<?xml version="1.0" encoding="UTF-8"?>
<svg xmlns="http://www.w3.org/2000/svg" id="Layer_1" data-name="Layer 1" viewBox="0 0 24 24" width="512" height="512"><path d="M22.123,6.085c1.13-1.13,1.641-3.4,1.86-4.868a1.058,1.058,0,0,0-1.205-1.2c-3.442.562-6.136,1.4-5.77,5.566L15.723,6.863c.854-1.838-.476-4.386-1.471-5.518a.992.992,0,0,0-1.5,0A7.194,7.194,0,0,0,11,5.5a4.988,4.988,0,0,0,2.262,3.824l-2.539,2.539c.854-1.838-.476-4.386-1.471-5.518a.992.992,0,0,0-1.5,0A7.194,7.194,0,0,0,6,10.5a4.988,4.988,0,0,0,2.262,3.824L5.723,16.863c.854-1.838-.476-4.386-1.471-5.518a.992.992,0,0,0-1.5,0A7.194,7.194,0,0,0,1,15.5a4.988,4.988,0,0,0,2.262,3.824L.293,22.293a1,1,0,0,0,1.414,1.414l2.969-2.969A4.988,4.988,0,0,0,8.5,23a7.194,7.194,0,0,0,4.155-1.748.992.992,0,0,0,0-1.5c-1.132-1-3.679-2.325-5.518-1.471l2.539-2.539A4.988,4.988,0,0,0,13.5,18a7.194,7.194,0,0,0,4.155-1.748.992.992,0,0,0,0-1.5c-1.132-.995-3.679-2.325-5.518-1.471l2.539-2.539A4.988,4.988,0,0,0,18.5,13a7.194,7.194,0,0,0,4.155-1.748.992.992,0,0,0,0-1.5c-1.132-.995-3.679-2.325-5.518-1.471l1.286-1.286C19.6,7.034,21.282,6.926,22.123,6.085Z"/></svg>
