<?xml version="1.0" encoding="UTF-8"?>
<svg xmlns="http://www.w3.org/2000/svg" id="Layer_1" data-name="Layer 1" viewBox="0 0 24 24" width="512" height="512"><path d="M0,7.23c0-.352,.184-.677,.485-.857L10.347,.456c1.021-.613,2.287-.613,3.307,0l9.861,5.917c.301,.181,.485,.506,.485,.857s-.184,.677-.485,.857l-9.861,5.917c-.51,.306-1.082,.458-1.653,.459-.572,0-1.143-.153-1.653-.459L.485,8.088c-.301-.181-.485-.506-.485-.857Zm23,11.77h-6c-.552,0-1,.447-1,1s.448,1,1,1h6c.552,0,1-.447,1-1s-.448-1-1-1Zm-10.485,2.914L1.515,15.314c-.475-.285-1.088-.131-1.372,.343-.284,.474-.131,1.088,.343,1.372l11,6.6c.161,.097,.338,.143,.514,.143,.34,0,.671-.173,.858-.485,.284-.474,.131-1.088-.343-1.372Zm9.971-11.167l-10.485,6.291L1.515,10.747c-.475-.285-1.088-.132-1.372,.343-.284,.474-.131,1.088,.343,1.372l11,6.6c.159,.095,.336,.143,.515,.143s.356-.048,.515-.143l11-6.6c.474-.284,.627-.898,.343-1.372s-.898-.627-1.372-.343Z"/></svg>
