<?xml version="1.0" encoding="UTF-8"?>
<svg xmlns="http://www.w3.org/2000/svg" id="Layer_1" data-name="Layer 1" viewBox="0 0 24 24" width="512" height="512"><path d="M4.5,11c.067,1.293,7.938,1.291,8,0C12.433,9.707,4.562,9.709,4.5,11Zm7-6c.067,1.293,7.938,1.291,8,0C19.433,3.707,11.562,3.709,11.5,5Zm-3,1C3.733,6,0,8.2,0,11v8c.162,6.6,16.839,6.6,17,0V11C17,8.2,13.267,6,8.5,6Zm0,2c8.572.227,8.572,5.774,0,6C-.072,13.773-.072,8.226,8.5,8ZM24,5v8c0,2.059-2.015,3.8-5,4.569V11a5.351,5.351,0,0,0-1.112-3.224C24.743,6.326,22.182,2.023,15.5,2c-2.96,0-5.22.945-6.1,2.028a15.806,15.806,0,0,0-2.252.03C8.812-1.6,23.83-1.262,24,5Z"/></svg>
