<?xml version="1.0" encoding="UTF-8"?>
<svg xmlns="http://www.w3.org/2000/svg" id="Layer_1" data-name="Layer 1" viewBox="0 0 24 24" width="512" height="512"><path d="M24,13a1,1,0,0,1-2,0,25.235,25.235,0,0,0-1.748-9.111A3.093,3.093,0,0,0,17,2V5H3.523L2.072,1.372A1.007,1.007,0,0,1,3,0H17.463a4.963,4.963,0,0,1,4.65,3.157A27.247,27.247,0,0,1,24,13Zm-3.027,5.47C20.3,11.987,18.235,8.383,17.261,7H3.739a18.948,18.948,0,0,0-2.381,5H15a1,1,0,0,1,0,2H.79a33.33,33.33,0,0,0-.763,4.47A5.043,5.043,0,0,0,5,24H16A5.043,5.043,0,0,0,20.973,18.47Z"/></svg>
