<?xml version="1.0" encoding="UTF-8"?>
<svg xmlns="http://www.w3.org/2000/svg" id="Layer_1" data-name="Layer 1" viewBox="0 0 24 24" width="512" height="512"><path d="M22.827,1.62c-.738-.568-1.676-.758-2.575-.521-.356,.095-.736,.23-1.131,.374-2.313,1.046-4.306,.247-6.846-.436-1.787-.51-3.635-1.038-5.275-1.038C4.945,0,2.937,.813,1.614,1.496,.617,2.01-.002,3.029-.002,4.158V23c.006,1.308,1.995,1.307,2,0v-7.437c.892-.51,2.981-1.563,5.002-1.563,1.36,0,3.071,.489,4.725,.962,3.443,1.167,7.268,1.54,10.383-.129,1.203-.63,1.892-1.644,1.892-2.78V4.004c0-.941-.428-1.811-1.173-2.384ZM11,6.763c.243,.068,.482,.129,.726,.199,3.368,1.234,7.346,1.398,10.274-.138v1.791c-.918,.465-2.988,1.385-5,1.385-1.36,0-3.071-.489-4.725-.962-.423-.121-.849-.242-1.275-.357v-1.918Zm6-2.763c1.018,0,1.966-.343,2.802-.646,.336-.122,.659-.24,.962-.32,.293-.076,.6-.016,.843,.172,.25,.191,.393,.483,.393,.799v.611c-.918,.465-2.988,1.385-5,1.385-1.36,0-3.07-.488-4.725-.961-.428-.122-.851-.234-1.275-.349v-1.932c.242,.068,.484,.135,.725,.204,1.787,.51,3.635,1.038,5.275,1.038Zm4.18,9.062c-2.713,1.426-5.825,.986-8.905-.023-3.437-1.239-7.312-1.435-10.277,.266v-1.74c.89-.509,2.978-1.564,5.002-1.564,1.36,0,3.071,.489,4.725,.962,3.369,1.232,7.346,1.399,10.275-.138v1.228c0,.479-.446,.812-.82,1.009Z"/></svg>
