<?xml version="1.0" encoding="UTF-8"?>
<svg xmlns="http://www.w3.org/2000/svg" id="Layer_1" data-name="Layer 1" viewBox="0 0 24 24" width="512" height="512"><path d="M21.973,6.533a4.011,4.011,0,0,0-4.921-3.414A3.479,3.479,0,0,0,14.66,2a3.517,3.517,0,0,0-5.646-.96,3.456,3.456,0,0,0-3.7,2.016A4.007,4.007,0,0,0,2.027,6.533C-.135,7.563-1.137,11.815,2.092,12H5a4,4,0,0,1,3.293,1.732,4.89,4.89,0,0,1,7.414,0A4,4,0,0,1,19,12h2.908C25.137,11.815,24.135,7.564,21.973,6.533ZM9,7A1,1,0,0,0,8,8,1,1,0,0,1,6,8,3,3,0,0,1,9,5,1,1,0,0,1,9,7Zm8,3a1,1,0,0,1-1-1,1,1,0,0,0-1-1,1,1,0,0,1,0-2,3,3,0,0,1,3,3A1,1,0,0,1,17,10Zm-2.1,6.872L14.105,24H9.9L9.1,16.872A2.9,2.9,0,0,1,14.9,16.872ZM7,16l.884,8a4.517,4.517,0,0,1-4.43-3.632L2.18,14H5A2,2,0,0,1,7,16Zm12-2h2.82l-1.274,6.369A4.517,4.517,0,0,1,16.117,24L17,16A2,2,0,0,1,19,14Z"/></svg>
