<?xml version="1.0" encoding="UTF-8"?>
<svg xmlns="http://www.w3.org/2000/svg" id="Layer_1" data-name="Layer 1" viewBox="0 0 24 24" width="512" height="512"><path d="M9,6H4v-1.5C4,2.019,6.019,0,8.5,0h7c2.481,0,4.5,2.019,4.5,4.5v1.5h-5c-.553,0-1,.447-1,1s.447,1,1,1,1,.448,1,1-.448,1-1,1h-6c-.552,0-1-.448-1-1s.448-1,1-1,1-.447,1-1-.447-1-1-1Zm15,3c0,.553-.447,1-1,1h-1.176c.111,.314,.176,.649,.176,1v8c0,2.757-2.243,5-5,5H7c-2.757,0-5-2.243-5-5V11c0-.351,.065-.686,.176-1H1c-.553,0-1-.447-1-1s.447-1,1-1H6.184c-.112,.314-.184,.648-.184,1,0,1.654,1.346,3,3,3h6c1.654,0,3-1.346,3-3,0-.352-.072-.686-.184-1h5.184c.553,0,1,.447,1,1Zm-13.5,6.5c0,.828,.672,1.5,1.5,1.5s1.5-.672,1.5-1.5-.672-1.5-1.5-1.5-1.5,.672-1.5,1.5Zm-4.5,0c0,.828,.672,1.5,1.5,1.5s1.5-.672,1.5-1.5-.672-1.5-1.5-1.5-1.5,.672-1.5,1.5Zm11,4.5c0-.553-.447-1-1-1H8c-.553,0-1,.447-1,1s.447,1,1,1h8c.553,0,1-.447,1-1Zm1-4.5c0-.828-.672-1.5-1.5-1.5s-1.5,.672-1.5,1.5,.672,1.5,1.5,1.5,1.5-.672,1.5-1.5Z"/></svg>
