<?xml version="1.0" encoding="UTF-8"?>
<svg xmlns="http://www.w3.org/2000/svg" id="Layer_1" data-name="Layer 1" viewBox="0 0 24 24" width="512" height="512"><path d="M10,24a.979.979,0,0,1-.394-.081,1,1,0,0,1-.525-1.313l3-7a1,1,0,0,1,1.838.788l-3,7A1,1,0,0,1,10,24Zm-3.081-.606,3-7a1,1,0,0,0-1.838-.788l-3,7a1,1,0,0,0,.525,1.313A.979.979,0,0,0,6,24,1,1,0,0,0,6.919,23.394Zm8,0,3-7a1,1,0,1,0-1.838-.788l-3,7a1,1,0,0,0,.525,1.313A.979.979,0,0,0,14,24,1,1,0,0,0,14.919,23.394Zm3-18.262a1.028,1.028,0,0,1-.685-.556A8.051,8.051,0,0,0,8.5.138a7.945,7.945,0,0,0-6.384,6.5,8.147,8.147,0,0,0,.033,2.889.98.98,0,0,1-.308.866,5.537,5.537,0,0,0,1.42,9.121.893.893,0,0,0,1.175-.474l1.81-4.223a3,3,0,0,1,3.944-1.573,1.821,1.821,0,0,0,1.705-.033,2.7,2.7,0,0,1,2.3.035,1.848,1.848,0,0,0,1.7-.035,2.8,2.8,0,0,1,2.3.034,3.024,3.024,0,0,1,1.525,4.039l-.482,1.125a.559.559,0,0,0,.753.729C25.9,16.137,25.265,6.591,17.916,5.132Z"/></svg>
