<?xml version="1.0" encoding="UTF-8"?>
<svg xmlns="http://www.w3.org/2000/svg" id="Layer_1" data-name="Layer 1" viewBox="0 0 24 24" width="512" height="512"><path d="M23,8c-1.855,0-3.495-.012-4.792-.795l3.5-3.5a1,1,0,1,0-1.415-1.415L16.807,5.779C16.08,4.543,16,2.972,16,1a1,1,0,0,0-1-1c-1.673.08-.844,2.919-.822,4.123C7.342.2,2.906,7.4.837,13.455-2.124,22.23,2.968,25.8,10.545,23.164c6.045-2.067,13.24-6.5,9.345-13.322C21.012,9.827,23.906,10.691,24,9A1,1,0,0,0,23,8ZM8.766,7.382a1.309,1.309,0,0,1,1.851,1.851,5.4,5.4,0,0,1-1.968.752.527.527,0,0,1-.635-.636A5.4,5.4,0,0,1,8.766,7.382ZM6.616,19.235a5.417,5.417,0,0,1-1.967.752.527.527,0,0,1-.635-.636,5.418,5.418,0,0,1,.751-1.967A1.309,1.309,0,0,1,6.616,19.235Zm2-5a5.4,5.4,0,0,1-1.967.752.527.527,0,0,1-.635-.636,5.4,5.4,0,0,1,.752-1.967A1.309,1.309,0,0,1,8.616,14.234Zm3,3a5.4,5.4,0,0,1-1.967.752.527.527,0,0,1-.636-.635,5.417,5.417,0,0,1,.752-1.967A1.309,1.309,0,0,1,11.617,17.234Zm2-5a5.4,5.4,0,0,1-1.967.752.526.526,0,0,1-.635-.635,5.4,5.4,0,0,1,.752-1.967A1.308,1.308,0,0,1,13.617,12.233Zm3,3a5.4,5.4,0,0,1-1.968.752.527.527,0,0,1-.635-.635,5.4,5.4,0,0,1,.752-1.968A1.309,1.309,0,0,1,16.618,15.234Z"/></svg>
