<?xml version="1.0" encoding="UTF-8"?>
<svg xmlns="http://www.w3.org/2000/svg" id="Layer_1" data-name="Layer 1" viewBox="0 0 24 24" width="512" height="512"><path d="M19.874,20.409a4.618,4.618,0,0,1-3.453,3.445,4.958,4.958,0,0,1-.993.123c-1.38.027-7.8.036-9.235,0a3.449,3.449,0,0,1-.781-.113,3.285,3.285,0,0,1-.424-6.188,5.3,5.3,0,0,1,.039-2.441A5.547,5.547,0,0,1,15.55,14.44c.079.187.408.263.738.323.108.02.2.038.267.056h0A4.671,4.671,0,0,1,19.874,20.409ZM9.283,9.082c.258-.038.717-.082.864-.3a.947.947,0,0,0-.514-1.317,5.534,5.534,0,0,0-7.606,3.769,5.3,5.3,0,0,0-.039,2.441A3.285,3.285,0,0,0,.114,17.566a1,1,0,0,0,.966.745c.025,0,.476.054.919-.71a3.17,3.17,0,0,1,.5-.607,1.282,1.282,0,0,0,.371-.829,7.717,7.717,0,0,1,.209-1.4A7.577,7.577,0,0,1,9.283,9.082Zm14.679,2.074A1.963,1.963,0,0,0,22.412,9.9,5.944,5.944,0,0,1,18.043,7.15a5.869,5.869,0,0,1-.351-4.614A1.945,1.945,0,0,0,17.231.6,1.971,1.971,0,0,0,15.3.069a8.787,8.787,0,0,0-3.011,1.54A8.078,8.078,0,0,0,9.955,4.646c-.09.24-.167.485-.233.733a7.284,7.284,0,0,1,.713.254,3.107,3.107,0,0,1,1.721,1.955c.267.6-.207,1.525.588,1.788a7.575,7.575,0,0,1,4.059,3.15,1.111,1.111,0,0,0,.59.461,6.826,6.826,0,0,1,3.21,2.256c.213-.087.424-.154.638-.257a.636.636,0,0,0,.058-.03,9.3,9.3,0,0,0,2.307-1.832A1.963,1.963,0,0,0,23.962,11.156Z"/></svg>
