<?xml version="1.0" encoding="UTF-8"?>
<svg xmlns="http://www.w3.org/2000/svg" id="Layer_1" data-name="Layer 1" viewBox="0 0 24 24" width="512" height="512"><path d="M7.447,21.5,5.975,22.975a3.5,3.5,0,0,1-4.95-4.95L2.5,16.553ZM24,12.125a2.77,2.77,0,0,1-.959,1.985A34.193,34.193,0,0,1,9.648,20.875L3.125,14.352A34.193,34.193,0,0,1,9.89.961,2.772,2.772,0,0,1,11.875,0a2.742,2.742,0,0,1,2.036.785,3.213,3.213,0,0,1,.821,1.406,3.261,3.261,0,0,1,3.285.741,3.135,3.135,0,0,1,.93,2.117,3.166,3.166,0,0,1,2.105.878l.036.035a3.189,3.189,0,0,1,.755,3.3,3.252,3.252,0,0,1,1.354.81A2.759,2.759,0,0,1,24,12.125ZM7.7,10.193c.729-1.018,2.91-4.023,4.728-6.12.029-.039.157-.179.18-.206a1.272,1.272,0,0,0-.093-1.649.756.756,0,0,0-1.105.045A29.994,29.994,0,0,0,6.947,9.441Zm2.348,2.347L16.584,6a1.1,1.1,0,0,0,.365-.837,1.152,1.152,0,0,0-.346-.817,1.212,1.212,0,0,0-1.676,0c-.055.055-.873.9-.9.932-1.962,2.245-4.52,5.821-4.894,6.348Zm2.308,2.308c.52-.37,4.018-2.872,6.267-4.825l.007-.007c.09-.09.824-.741,1.046-.962A1.186,1.186,0,0,0,19.693,7.4h0a1.213,1.213,0,0,0-1.675,0L11.46,13.954ZM21.792,11.5a1.327,1.327,0,0,0-.9-.386,1.1,1.1,0,0,0-.7.194c-2.1,1.862-5.339,4.214-6.4,4.977l.771.771a29.969,29.969,0,0,0,7.177-4.461A.754.754,0,0,0,22,12.043.73.73,0,0,0,21.792,11.5Z"/></svg>
