<?xml version="1.0" encoding="UTF-8"?>
<svg xmlns="http://www.w3.org/2000/svg" id="Layer_1" data-name="Layer 1" viewBox="0 0 24 24" width="512" height="512"><path d="M10,18a5,5,0,1,1-5-5A5.006,5.006,0,0,1,10,18Zm9-5a5,5,0,1,0,5,5A5.006,5.006,0,0,0,19,13Zm-6.349.241A1,1,0,0,1,13,14v4a1,1,0,0,1-2,0V14.459L9.062,12.794a2.99,2.99,0,0,1-.993-1.8C8.046,11,8.024,11,8,11A3,3,0,0,1,5,8C5,5.19,8.521,4,9.923,4a6.454,6.454,0,0,1,3.664,1.19c.044.032,4.12,4.1,4.12,4.1a1,1,0,1,1-1.414,1.414L12.966,7.38s-2.484,2.28-2.653,2.44a.988.988,0,0,0,.051,1.457ZM19,2.5A2.5,2.5,0,1,1,16.5,0,2.5,2.5,0,0,1,19,2.5Z"/></svg>
