<?xml version="1.0" encoding="UTF-8"?>
<svg xmlns="http://www.w3.org/2000/svg" id="Layer_1" data-name="Layer 1" viewBox="0 0 24 24" width="512" height="512"><path d="M24,19c0,1.654-1.346,3-3,3v1c0,.552-.447,1-1,1s-1-.448-1-1v-1h-.268c-1.067,0-2.063-.574-2.598-1.499-.277-.478-.113-1.089,.364-1.366,.48-.277,1.091-.113,1.366,.365,.179,.308,.511,.5,.867,.5h2.268c.552,0,1-.449,1-1,0-.378-.271-.698-.644-.76l-3.041-.507c-1.342-.223-2.315-1.373-2.315-2.733,0-1.654,1.346-3,3-3v-1c0-.552,.447-1,1-1s1,.448,1,1v1h.268c1.067,0,2.063,.575,2.598,1.5,.277,.478,.113,1.089-.364,1.366-.481,.276-1.091,.112-1.366-.365-.179-.309-.511-.5-.867-.5h-2.268c-.552,0-1,.449-1,1,0,.378,.271,.698,.644,.76l3.041,.507c1.342,.223,2.315,1.373,2.315,2.733ZM13,8h6.54c-.347-.913-.88-1.753-1.591-2.464l-3.484-3.486c-.712-.711-1.552-1.244-2.465-1.59V7c0,.551,.448,1,1,1Zm3.869,15.637c-.578,.234-1.208,.363-1.869,.363H5c-2.757,0-5-2.243-5-5V5C0,2.243,2.243,0,5,0h4.515c.163,0,.324,.013,.485,.024V7c0,1.654,1.346,3,3,3h4.172c-.045,.127-.082,.257-.11,.391-1.23,.519-2.211,1.518-2.708,2.76-.267-.097-.555-.151-.855-.151H6.5c-1.378,0-2.5,1.122-2.5,2.5v2c0,1.378,1.122,2.5,2.5,2.5h7c.171,0,.338-.017,.499-.05-.01,.54,.127,1.074,.404,1.552,.566,.98,1.444,1.724,2.466,2.136ZM4,6c0,.552,.448,1,1,1h2c.552,0,1-.448,1-1s-.448-1-1-1h-2c-.552,0-1,.448-1,1Zm0,4c0,.552,.448,1,1,1h2c.552,0,1-.448,1-1s-.448-1-1-1h-2c-.552,0-1,.448-1,1Zm2.5,5c-.276,0-.5,.224-.5,.5v2c0,.276,.224,.5,.5,.5h7c.276,0,.5-.224,.5-.5v-2c0-.276-.224-.5-.5-.5H6.5Z"/></svg>
