<?xml version="1.0" encoding="UTF-8"?>
<svg xmlns="http://www.w3.org/2000/svg" id="Layer_1" data-name="Layer 1" viewBox="0 0 24 24" width="512" height="512"><path d="M24,20.5A3.5,3.5,0,1,1,20.5,17,3.5,3.5,0,0,1,24,20.5ZM22.747,7.1A4.132,4.132,0,0,0,16.9,1.253L14.434,3.722a31.369,31.369,0,0,0-4.5,5.685S8.776,11.3,8.437,11.821L12.212,15.6c.447-.284,2.21-1.366,2.574-1.6a31.182,31.182,0,0,0,5.358-4.3ZM7.187,13.4,2.5,18.086l-.793-.793A1,1,0,1,0,.293,18.707l5,5a1,1,0,1,0,1.414-1.414L5.914,21.5,10.6,16.813Z"/></svg>
