<?xml version="1.0" encoding="UTF-8"?>
<svg xmlns="http://www.w3.org/2000/svg" id="Layer_1" data-name="Layer 1" viewBox="0 0 24 24" width="512" height="512"><path d="M20.552,12.139C21.15,9.561,21.6,6.247,18,6H10v4.584c.872.857,2.1,1.887,2,3.243V15.5A2.5,2.5,0,0,1,9.5,18h-1A2.5,2.5,0,0,1,6,15.5V13.829c-.1-1.353,1.127-2.39,2-3.243V6H3a3.031,3.031,0,0,0-2.245.981,2.93,2.93,0,0,0-.747,2.28A31.916,31.916,0,0,0,3.144,20.066,6.976,6.976,0,0,0,9.437,24h2.127A6.955,6.955,0,0,0,17.3,21H19C24.091,21.162,26.377,13.16,20.552,12.139ZM19,19h-.643A32.94,32.94,0,0,0,20.1,14.09C21.991,14.415,22,15.547,22,16A3,3,0,0,1,19,19ZM9.026,3V1a1,1,0,0,1,2,0V3A1,1,0,0,1,9.026,3Zm4,0V1a1,1,0,0,1,2,0V3A1,1,0,0,1,13.026,3Zm-8,0V1a1,1,0,0,1,2,0V3A1,1,0,0,1,5.026,3ZM8,13.829c-.056-.551.684-1.058,1-1.415.317.363,1.055.86,1,1.415V15.5a.5.5,0,0,1-.5.5h-1a.5.5,0,0,1-.5-.5Z"/></svg>
