<?xml version="1.0" encoding="UTF-8"?>
<svg xmlns="http://www.w3.org/2000/svg" id="Layer_1" data-name="Layer 1" viewBox="0 0 24 24" width="512" height="512"><path d="M13,24H6a1,1,0,0,1,0-2h7A1,1,0,0,1,13,24Zm6-1a1,1,0,0,0-1-1H17a1,1,0,0,0,0,2h1A1,1,0,0,0,19,23Zm0-4a1,1,0,0,0-1-1H11a1,1,0,0,0,0,2h7A1,1,0,0,0,19,19ZM8,19a1,1,0,0,0-1-1H6a1,1,0,0,0,0,2H7A1,1,0,0,0,8,19Zm6-4a1,1,0,0,0-1-1H6a1,1,0,0,0,0,2h7A1,1,0,0,0,14,15Zm5,0a1,1,0,0,0-1-1H17a1,1,0,0,0,0,2h1A1,1,0,0,0,19,15ZM17.918,5.133a1.033,1.033,0,0,1-.687-.557A8.049,8.049,0,0,0,8.5.138a7.945,7.945,0,0,0-6.383,6.5,8.134,8.134,0,0,0,.033,2.887.987.987,0,0,1-.315.874,5.549,5.549,0,0,0,1.211,9.012c-.354-1.133.843-1.993.344-2.959A3.027,3.027,0,0,1,6.117,12H13a2.928,2.928,0,0,1,1.415.364c.891.494,1.644-.472,2.585-.364,1.686-.18,3.521.521,3.919,2.3a2.95,2.95,0,0,1-.309,2.156c-.451.718.279,1.338.342,2.061C25.917,15.046,24.66,6.371,17.918,5.133Z"/></svg>
