<?xml version="1.0" encoding="UTF-8"?>
<svg xmlns="http://www.w3.org/2000/svg" id="Layer_1" data-name="Layer 1" viewBox="0 0 24 24" width="512" height="512"><path d="M8,8.5v2a.5.5,0,0,1-.5.5h-3a.5.5,0,0,1-.5-.5v-2A.5.5,0,0,1,4.5,8h3A.5.5,0,0,1,8,8.5ZM16.5,8h-2a.5.5,0,0,0-.5.5V21h3V8.5A.5.5,0,0,0,16.5,8Zm-9,16a3.5,3.5,0,0,0,0-7A3.5,3.5,0,0,0,7.5,24ZM24,20a1,1,0,0,1-1,1H19V8.5A2.5,2.5,0,0,0,16.5,6h-2A2.5,2.5,0,0,0,12,8.5v8.837a5.523,5.523,0,0,0-9.978,2.677A5,5,0,0,1,0,16V5A5.006,5.006,0,0,1,5,0H17a5.006,5.006,0,0,1,5,5V19h1A1,1,0,0,1,24,20ZM10,8.5A2.5,2.5,0,0,0,7.5,6h-3A2.5,2.5,0,0,0,2,8.5v2A2.5,2.5,0,0,0,4.5,13h3A2.5,2.5,0,0,0,10,10.5Z"/></svg>
