<?xml version="1.0" encoding="UTF-8"?>
<svg xmlns="http://www.w3.org/2000/svg" id="Layer_1" data-name="Layer 1" viewBox="0 0 24 24" width="512" height="512"><path d="M2,20H12a2,2,0,0,1,2,2h0a2,2,0,0,1-2,2H2a2,2,0,0,1-2-2H0A2,2,0,0,1,2,20ZM11.752,5.707c-.019.041-1.029,1.6-1.029,1.6A1,1,0,0,1,10,9H4a1,1,0,0,1-.722-1.692S2.27,5.748,2.25,5.707A2.6,2.6,0,0,1,4.6,2H6.01V1a1,1,0,0,1,2,0V2H9.4a2.6,2.6,0,0,1,2.352,3.707ZM22,20H15.463a3.993,3.993,0,0,1,0,4H22a2,2,0,0,0,2-2A1.952,1.952,0,0,0,22,20ZM11.737,18a46.7,46.7,0,0,1-1.526-7H3.791a46.246,46.246,0,0,1-1.527,7ZM14,10.731V18h8V10.731A2,2,0,0,0,23,9V8a1,1,0,0,0-2,0V9H19V8a1,1,0,0,0-2,0V9H15V8a1,1,0,0,0-2,0V9A2,2,0,0,0,14,10.731Z"/></svg>
