<?xml version="1.0" encoding="UTF-8"?>
<svg xmlns="http://www.w3.org/2000/svg" id="Layer_1" data-name="Layer 1" viewBox="0 0 24 24" width="512" height="512"><path d="M16.229,15.37A18.968,18.968,0,0,1,17,19,5,5,0,0,1,7,19a19.025,19.025,0,0,1,.77-3.63C10.844,13.622,13.156,13.622,16.229,15.37Zm4.825-.387ZM24,11.33C24,5.083,18.617,0,12,0S0,5.083,0,11.33a3.887,3.887,0,0,0,.953,2.9c1.659,1.485,3.6.5,5.615-.5A12.75,12.75,0,0,1,12,12c3.167-.1,6.189,2.757,9.054,2.983C23.121,14.946,24,13.485,24,11.33Z"/></svg>
