<?xml version="1.0" encoding="UTF-8"?>
<svg xmlns="http://www.w3.org/2000/svg" id="Layer_1" data-name="Layer 1" viewBox="0 0 24 24" width="512" height="512"><path d="M18.986,24a1,1,0,0,1-1-1V20a1,1,0,0,1,2,0v3A1,1,0,0,1,18.986,24Zm-4,0a1,1,0,0,1-1-1V20a1,1,0,0,1,2,0v3A1,1,0,0,1,14.986,24Zm-4,0a1,1,0,0,1-1-1V20a1,1,0,0,1,2,0v3A1,1,0,0,1,10.986,24Zm9.162-10.855a1.056,1.056,0,0,1-.605-.467,6,6,0,0,0-11.368.855,10.226,10.226,0,0,0-.176,2A1.74,1.74,0,0,1,7.063,17a3.513,3.513,0,0,0,.923,5.643V20a3.01,3.01,0,0,1,5-2.22,2.988,2.988,0,0,1,4,0,3.01,3.01,0,0,1,5,2.22v1.988A5.008,5.008,0,0,0,20.148,13.146ZM5.672,15.564a3.048,3.048,0,0,1,.33-.27,11.539,11.539,0,0,1,.23-2.233,8.015,8.015,0,0,1,3.922-5.076A9.562,9.562,0,0,1,12.6,3.87,2.122,2.122,0,0,0,11.654.276,10.038,10.038,0,0,0,7.779.117,9.254,9.254,0,0,0,3.872,16.781a3.767,3.767,0,0,0,.651.416A5.476,5.476,0,0,1,5.672,15.564ZM15,6a1,1,0,0,0,2,0A1,1,0,0,0,15,6Zm4-3a1,1,0,0,0,2,0A1,1,0,0,0,19,3Zm2,6a1,1,0,0,0,2,0A1,1,0,0,0,21,9Z"/></svg>
