<?xml version="1.0" encoding="UTF-8"?>
<svg xmlns="http://www.w3.org/2000/svg" id="Layer_1" data-name="Layer 1" viewBox="0 0 24 24" width="512" height="512"><path d="M18.769,11.514a5.191,5.191,0,0,1-1.778,5.548c0,3-2.187,6.5-2.187,6.5a1,1,0,0,1-1.8-.595V9a1,1,0,0,0-2,0V23a1,1,0,0,1-1.8.6S7,19.983,7,17a5.1,5.1,0,0,1-2-4c-.1-.9.666-1.883.013-2.672a4.5,4.5,0,0,1,2.816-7.26.668.668,0,0,0,.4-.405,4,4,0,0,1,7.542,0,.652.652,0,0,0,.421.409,4.5,4.5,0,0,1,2.795,7.256A1.273,1.273,0,0,0,18.769,11.514Zm4.8-1.717a4.014,4.014,0,0,0-2.513-5.648,6.448,6.448,0,0,1-.272,7.126,6.972,6.972,0,0,1-1.834,6.658,14.3,14.3,0,0,1-1.075,3.981A4.993,4.993,0,0,0,22,17c.019-.029.295-.252.295-.252A4.977,4.977,0,0,0,23.6,11.061,1.53,1.53,0,0,1,23.566,9.8ZM.4,11.061A4.977,4.977,0,0,0,1.71,16.745s.276.223.3.252a4.991,4.991,0,0,0,4.122,4.917,14.3,14.3,0,0,1-1.075-3.981,6.971,6.971,0,0,1-1.834-6.658,6.448,6.448,0,0,1-.272-7.126A4.013,4.013,0,0,0,.434,9.8,1.53,1.53,0,0,1,.4,11.061Z"/></svg>
