<?xml version="1.0" encoding="UTF-8"?>
<svg xmlns="http://www.w3.org/2000/svg" id="Layer_1" data-name="Layer 1" viewBox="0 0 24 24" width="512" height="512"><path d="M18,9.195c-.356-.318-.92-.237-1.163,.174-1.369,2.316-1.055,5.632-2.282,5.632-.581,0-.49-1.004-.764-1.624-.194-.439-.784-.507-1.086-.133-1.157,1.432-2.271,3.953-1.246,6.416,1.097,2.636,3.575,4.497,6.425,4.33,3.41-.199,6.115-3.028,6.115-6.489,0-3.417-3.789-6.333-6-8.305Zm1.402,11.928c-1.003,1.17-2.802,1.17-3.805,0-.867-1.011-.699-2.557,.243-3.499l1.103-1.103c.307-.307,.805-.307,1.112,0l1.103,1.103c.942,.942,1.11,2.487,.243,3.499Zm-9.789-.695c-1.324-3.181-.075-6.446,1.536-8.441,.587-.726,1.483-1.087,2.412-.962,.161,.021,.317,.057,.469,.105,.229-.898,.548-1.869,1.085-2.778,.421-.711,1.131-1.191,1.948-1.318,.815-.127,1.647,.116,2.268,.669h0c.221,.197,.458,.404,.705,.619,1.272,1.11,2.781,2.428,3.964,3.973V5c0-2.757-2.243-5-5-5H5C2.243,0,0,2.243,0,5v14c0,2.757,2.243,5,5,5h7.25c-1.112-.93-2.038-2.135-2.636-3.573ZM4,5c-.552,0-1-.448-1-1s.448-1,1-1,1,.448,1,1-.448,1-1,1Zm4,0c-.552,0-1-.448-1-1s.448-1,1-1,1,.448,1,1-.448,1-1,1Z"/></svg>
