<?xml version="1.0" encoding="UTF-8"?>
<svg xmlns="http://www.w3.org/2000/svg" id="Layer_1" data-name="Layer 1" viewBox="0 0 24 24" width="512" height="512"><path d="M12.836,.028C9.361-.202,5.961,1.066,3.509,3.521,1.057,5.977-.211,9.378,.03,12.854c.44,6.354,6.052,11.146,13.054,11.146h5.917c2.757,0,5-2.243,5-5v-6.66C24,5.861,19.096,.454,12.836,.028Zm-.933,18.972c-.828,0-1.5-.672-1.5-1.5s.672-1.5,1.5-1.5,1.5,.672,1.5,1.5-.672,1.5-1.5,1.5Zm1.928-6.512c-.521,.287-.928,.951-.928,1.512,0,.553-.448,1-1,1s-1-.447-1-1c0-1.285,.807-2.627,1.963-3.264,.763-.42,1.157-1.254,1.004-2.125-.138-.786-.81-1.458-1.596-1.596-.605-.107-1.196,.049-1.657,.435-.454,.382-.714,.94-.714,1.532,0,.553-.448,1-1,1s-1-.447-1-1c0-1.185,.521-2.301,1.428-3.063,.908-.762,2.107-1.078,3.289-.874,1.613,.283,2.938,1.607,3.221,3.221,.298,1.699-.509,3.396-2.009,4.223Z"/></svg>
