<?xml version="1.0" encoding="UTF-8"?>
<svg xmlns="http://www.w3.org/2000/svg" id="Layer_1" data-name="Layer 1" viewBox="0 0 24 24" width="512" height="512"><path d="M15.363,2.636C13.52,.792,10.964-.167,8.349,.023,3.823,.343,0,4.589,0,9.296v5.038c0,2.021,1.642,3.666,3.661,3.666h4.477c5.187,0,9.509-3.667,9.839-8.349,.185-2.613-.768-5.17-2.613-7.016Zm-6.363,11.864c-.69,0-1.25-.56-1.25-1.25s.56-1.25,1.25-1.25,1.25,.56,1.25,1.25-.56,1.25-1.25,1.25Zm1.447-4.871c-.447,.246-.447,.318-.447,.371,0,.553-.448,1-1,1s-1-.447-1-1c0-1.308,1.038-1.879,1.481-2.123,.29-.159,.595-.535,.502-1.066-.069-.392-.402-.725-.793-.793-.306-.056-.602,.022-.832,.216-.228,.19-.358,.47-.358,.767,0,.553-.448,1-1,1s-1-.447-1-1c0-.889,.391-1.727,1.072-2.299,.681-.572,1.577-.814,2.463-.653,1.209,.211,2.204,1.205,2.417,2.417,.223,1.272-.382,2.543-1.506,3.164Zm13.553,6.371v5c0,1.657-1.343,3-3,3h-5c-2.955,0-5.535-1.615-6.92-4.004l.04-.04c5.787-.442,10.47-4.744,10.852-10.164,.017-.234,.01-.466,.012-.699l.013-.013c2.389,1.385,4.004,3.965,4.004,6.92Z"/></svg>
