<?xml version="1.0" encoding="UTF-8"?>
<svg xmlns="http://www.w3.org/2000/svg" id="Layer_1" data-name="Layer 1" viewBox="0 0 24 24" width="512" height="512"><path d="M8,14a4,4,0,0,1,3-3.858V3a3,3,0,0,1,3-3h2a1,1,0,0,1,0,2H14a1,1,0,0,0-1,1V4h3a1,1,0,0,1,0,2H13v4.142A3.993,3.993,0,1,1,8,14Zm14.332,7.489a2.2,2.2,0,0,1-3.39-.822,1,1,0,0,0-1.884,0,2.279,2.279,0,0,1-4.116,0,1,1,0,0,0-1.884,0,2.279,2.279,0,0,1-4.116,0,1,1,0,0,0-1.884,0,2.2,2.2,0,0,1-3.39.822A1,1,0,0,0,.332,22.978,4.185,4.185,0,0,0,6,22.774a4.334,4.334,0,0,0,6,0,4.334,4.334,0,0,0,6,0,4.185,4.185,0,0,0,5.668.2,1,1,0,0,0-1.336-1.489ZM21,18a3.985,3.985,0,0,0,2.668-1.022,1,1,0,0,0-1.336-1.489,2.2,2.2,0,0,1-2.73.032,1,1,0,0,0-1.2,1.6A4.348,4.348,0,0,0,21,18ZM3,18a4.354,4.354,0,0,0,2.6-.881,1,1,0,0,0-1.2-1.6,2.2,2.2,0,0,1-2.73-.032A1,1,0,0,0,.332,16.978,3.985,3.985,0,0,0,3,18Z"/></svg>
