<?xml version="1.0" encoding="UTF-8"?>
<svg xmlns="http://www.w3.org/2000/svg" id="Layer_1" data-name="Layer 1" viewBox="0 0 24 24" width="512" height="512"><path d="M6,20a5.983,5.983,0,0,0,.539,2.481A4.779,4.779,0,0,1,4.433,23,4.725,4.725,0,0,1,.014,17.934C.309,11.919,5.158,7.6,7.379,5.919A8.235,8.235,0,0,1,9.259,9.68C7.859,12.117,6,15.956,6,20ZM12,7a1.967,1.967,0,0,1,1.3.488,14.735,14.735,0,0,1,2.7-3.9A3.1,3.1,0,0,0,13,0H11A3.1,3.1,0,0,0,8,3.589,14.359,14.359,0,0,1,10.7,7.5,1.97,1.97,0,0,1,12,7Zm4.632-1.075a8.079,8.079,0,0,0-1.891,3.751c1.587,2.825,4.45,8.59,2.72,12.813,3.089,1.738,6.832-1.148,6.528-4.556C23.691,11.926,18.853,7.606,16.629,5.925ZM12,8.995C10.414,11.167,3.916,23.307,12,24,20.09,23.3,13.579,11.173,12,8.995Z"/></svg>
