<?xml version="1.0" encoding="UTF-8"?>
<svg xmlns="http://www.w3.org/2000/svg" id="Layer_1" data-name="Layer 1" viewBox="0 0 24 24" width="512" height="512"><path d="M12,16a4,4,0,1,1,4-4A4,4,0,0,1,12,16ZM5.683,16H1a1,1,0,0,1-1-1A6.022,6.022,0,0,1,5.131,9.084a1,1,0,0,1,1.1,1.266A6.009,6.009,0,0,0,6,12a5.937,5.937,0,0,0,.586,2.57,1,1,0,0,1-.9,1.43ZM17,24H7a1,1,0,0,1-1-1,6,6,0,0,1,12,0A1,1,0,0,1,17,24ZM18,8a4,4,0,1,1,4-4A4,4,0,0,1,18,8ZM6,8a4,4,0,1,1,4-4A4,4,0,0,1,6,8Zm17,8H18.317a1,1,0,0,1-.9-1.43A5.937,5.937,0,0,0,18,12a6.009,6.009,0,0,0-.236-1.65,1,1,0,0,1,1.105-1.266A6.022,6.022,0,0,1,24,15,1,1,0,0,1,23,16Z"/></svg>
