<?xml version="1.0" encoding="UTF-8"?>
<svg xmlns="http://www.w3.org/2000/svg" id="Layer_1" data-name="Layer 1" viewBox="0 0 24 24" width="512" height="512"><path d="M23,12c-.553,0-1-.448-1-1,0-4.962-4.037-9-9-9-.553,0-1-.448-1-1s.447-1,1-1c6.065,0,11,4.935,11,11,0,.552-.447,1-1,1Zm-3-1c0-3.86-3.141-7-7-7-.553,0-1,.448-1,1s.447,1,1,1c2.757,0,5,2.243,5,5,0,.552,.447,1,1,1s1-.448,1-1Zm-4,2v6c0,2.757-2.243,5-5,5H5c-2.757,0-5-2.243-5-5v-6c0-2.757,2.243-5,5-5h6c2.757,0,5,2.243,5,5Zm-11-1c0-.552-.448-1-1-1s-1,.448-1,1,.448,1,1,1,1-.448,1-1Z"/></svg>
