<?xml version="1.0" encoding="UTF-8"?>
<svg xmlns="http://www.w3.org/2000/svg" id="Layer_1" data-name="Layer 1" viewBox="0 0 24 24" width="512" height="512"><path d="M16,2.5A2.5,2.5,0,1,1,18.5,5,2.5,2.5,0,0,1,16,2.5Zm7.513,17.9a1,1,0,0,0-1.334.469,2.089,2.089,0,0,1-2.767.94l-6.386-3.112,1.352-3.244a2.016,2.016,0,0,0-.588-2.561l-.872-.6,1.547-1.507L9.82,8.6a2.776,2.776,0,0,0,.062,3.961c.034.031,2.739,1.934,2.739,1.934l-1.4,3.326L1.436,13.1a1,1,0,0,0-.872,1.8l18,8.716A4.313,4.313,0,0,0,20.335,24a4.012,4.012,0,0,0,3.647-2.271A1,1,0,0,0,23.513,20.4ZM16,9.281V9.7a3.011,3.011,0,0,0,1.737,2.722l2.714,1.258a1,1,0,1,0,.841-1.814L18.579,10.6A1.006,1.006,0,0,1,18,9.7V8.47a3.4,3.4,0,0,0-1.339-2.721A2.926,2.926,0,0,0,14.812,5a3.022,3.022,0,0,0-2.256.916L11.341,7.1,16,9.285ZM11.341,7.1,5.967,4.583l.366-.771a1,1,0,1,0-1.807-.858l-.369.779-.7-.33A1,1,0,1,0,2.6,5.212l.7.328-.384.81a1,1,0,1,0,1.806.858L5.11,6.39,9.82,8.6C9.85,8.564,11.341,7.1,11.341,7.1Z"/></svg>
