<?xml version="1.0" encoding="UTF-8"?>
<svg xmlns="http://www.w3.org/2000/svg" id="Layer_1" data-name="Layer 1" viewBox="0 0 24 24" width="512" height="512"><path d="M14.92,8.941a8.013,8.013,0,0,0,7.016-6.92l1.064,0a1,1,0,0,0,0-2l-1.8,0a1.023,1.023,0,0,0-.39,0L15.433.007C9.894.191,9.458,8.147,14.92,8.941ZM15,3a1,1,0,0,1,0,2A1,1,0,0,1,15,3Z"/><path d="M8.411,10.945A4.448,4.448,0,0,0,12,13a1,1,0,0,0,0-2,2.377,2.377,0,0,1-1.791-.986,6.934,6.934,0,0,1,1.105-.549A6.546,6.546,0,0,1,10.709.122a12.5,12.5,0,0,0-8.6,5.222A7.048,7.048,0,0,0,8.411,10.945Z"/><path d="M6.429,15.911c.523.48,4.33,2.208,4.571.089a1,1,0,0,0-1-1,3.683,3.683,0,0,1-2.789-1.048A6.472,6.472,0,0,1,7.6,12.881,9.1,9.1,0,0,1,.815,7.751a11.4,11.4,0,0,0-.728,5.6C.443,14.376,3.1,16.526,6.429,15.911Z"/><path d="M21,18c-2.059,0-6.039,2.977-7.348,4a6.6,6.6,0,0,1-6.241-4.224A9.628,9.628,0,0,1,1.1,17,12,12,0,0,0,12,24h9A3,3,0,0,0,21,18Z"/></svg>
