<?xml version="1.0" encoding="UTF-8"?>
<svg xmlns="http://www.w3.org/2000/svg" id="Layer_1" data-name="Layer 1" viewBox="0 0 24 24" width="512" height="512"><path d="M11,15.5c0,1.379-1.121,2.5-2.5,2.5s-2.5-1.121-2.5-2.5,1.121-2.5,2.5-2.5,2.5,1.121,2.5,2.5Zm9.637-5.895c-.302,.481-.597,.951-.87,1.395h.729c.916,0,1.758,.5,2.196,1.304,.439,.806,.404,1.784-.093,2.556-2.841,4.419-8.036,9.141-14.099,9.141-2.27,0-4.404-.884-6.011-2.489-1.605-1.606-2.489-3.741-2.489-6.011C0,9.438,4.722,4.242,9.141,1.4c.771-.495,1.751-.531,2.556-.092,.804,.438,1.304,1.28,1.304,2.196v.729c.443-.273,.913-.568,1.395-.87,2.076-1.301,4.224-2.646,5.516-3.152,1.123-.441,2.351-.182,3.206,.673,.855,.855,1.113,2.084,.673,3.206-.506,1.292-1.852,3.438-3.152,5.516Zm-7.637,5.895c0-2.481-2.019-4.5-4.5-4.5s-4.5,2.019-4.5,4.5,2.019,4.5,4.5,4.5,4.5-2.019,4.5-4.5Z"/></svg>
