<?xml version="1.0" encoding="UTF-8"?>
<svg xmlns="http://www.w3.org/2000/svg" id="Layer_1" data-name="Layer 1" viewBox="0 0 24 24" width="512" height="512"><path d="M18,18c-7.929-.252-7.928-11.749,0-12C25.929,6.252,25.928,17.749,18,18Zm-8-6a7.977,7.977,0,0,1,2.443-5.754A1.913,1.913,0,0,0,13,4.863V1a1,1,0,0,0-2,0V5.071a6.913,6.913,0,0,0-1.6.43L7.355,1.986A1,1,0,1,0,5.627,2.992L7.669,6.5A7.08,7.08,0,0,0,6.522,7.646L3,5.6A1,1,0,0,0,2,7.326L5.512,9.372A6.94,6.94,0,0,0,5.071,11H1a1,1,0,0,0,0,2H5.071a6.95,6.95,0,0,0,.439,1.622L2,16.662A1,1,0,0,0,3.01,18.391l3.509-2.042a7.028,7.028,0,0,0,1.13,1.131L5.6,21A1,1,0,0,0,7.33,22.007L9.376,18.49A6.966,6.966,0,0,0,11,18.929V23a1,1,0,0,0,2,0V19.137a1.913,1.913,0,0,0-.557-1.383A7.977,7.977,0,0,1,10,12Z"/></svg>
