<?xml version="1.0" encoding="UTF-8"?>
<svg xmlns="http://www.w3.org/2000/svg" id="Layer_1" data-name="Layer 1" viewBox="0 0 24 24" width="512" height="512"><path d="M23.861,8H13V2a1.959,1.959,0,0,1,2-2C15.083,0,22.746.1,23.861,8ZM6.505,10,4.244,7.457C3.462,6.449.284,4.946,0,7A1,1,0,0,0,1,8a2.34,2.34,0,0,1,1.749.786L4,10.193V11a5.006,5.006,0,0,0,5,5h2.865L9.257,19.129C5.576,18.113,4.685,23.824,8.5,24a2.506,2.506,0,0,0,2.261-3.551L14,16.562l3.239,3.887A2.506,2.506,0,0,0,19.5,24c3.816-.177,2.923-5.887-.757-4.871L16.135,16H19a5.006,5.006,0,0,0,5-5V10Z"/></svg>
