<?xml version="1.0" encoding="UTF-8"?>
<svg xmlns="http://www.w3.org/2000/svg" id="Layer_1" data-name="Layer 1" viewBox="0 0 24 24" width="512" height="512"><path d="M10,8v-1H2V15c0,1.654,1.346,3,3,3h5v-2c0-1.654,1.346-3,3-3h2.586c.534,0,1.036,.208,1.414,.586l1.414,1.414h2.586c1.654,0,3,1.346,3,3v3c0,1.654-1.346,3-3,3H13c-1.654,0-3-1.346-3-3v-1H5c-2.757,0-5-2.243-5-5V1C.006-.308,1.995-.307,2,1V5H10V3c0-1.654,1.346-3,3-3h2.586c.534,0,1.036,.208,1.414,.586l1.414,1.414h2.586c1.654,0,3,1.346,3,3v3c0,1.654-1.346,3-3,3H13c-1.654,0-3-1.346-3-3Z"/></svg>
