<?xml version="1.0" encoding="UTF-8"?>
<!-- Generator: Adobe Illustrator 26.0.3, SVG Export Plug-In . SVG Version: 6.00 Build 0)  -->
<svg xmlns="http://www.w3.org/2000/svg" xmlns:xlink="http://www.w3.org/1999/xlink" version="1.1" id="Layer_1" x="0px" y="0px" viewBox="0 0 512 512" style="enable-background:new 0 0 512 512;" xml:space="preserve" width="512" height="512">
<path d="M11.815,289.919c-11.596-17.06-13.914-38.781-6.179-57.904c17.287-35.265,46.246-63.459,81.961-79.795  c25.858-12.859,53.867-20.834,82.619-23.527c-12.528,15.416-25.07,31.864-37.626,49.347c-25.554,38.696-47.428,79.7-65.335,122.475  l-7.708,17.284C40.239,316.201,22.691,305.952,11.815,289.919z M41.181,379.609c-18.448,25.473-31.689,54.335-38.963,84.934  c-4.535,19.882,7.906,39.677,27.789,44.212c5.411,1.234,11.03,1.233,16.441-0.004c30.552-7.286,59.369-20.518,84.807-38.942l0,0  c24.908-24.896,24.918-65.271,0.021-90.179c-24.896-24.908-65.271-24.918-90.179-0.021H41.181z M209.711,442.885l-17.411,7.729  v6.243c0.042,14.955,6.031,29.279,16.647,39.813c10.098,9.821,23.625,15.32,37.711,15.331  c50.047-0.722,90.625-46.289,111.922-88.713c13.047-26.256,21.049-54.727,23.59-83.936c-15.571,12.74-32.268,25.48-50.09,38.22  c-38.681,25.561-79.679,47.428-122.454,65.314H209.711z M510.802,62.827c-2.824,92.429-69.37,184.094-203.459,280.282  c-36.49,23.654-74.985,44.06-115.043,60.983v-11.954c-0.198-40.962-33.355-74.12-74.317-74.317h-11.954  c16.962-40.059,37.403-78.554,61.089-115.043C263.071,69.006,354.587,2.375,446.868-0.64  C492.859-0.64,510.802,18.088,510.802,62.827z M383.401,179.802c0-29.317-23.766-53.084-53.084-53.084s-53.084,23.766-53.084,53.084  c0,29.317,23.766,53.084,53.084,53.084S383.401,209.119,383.401,179.802z"/>
</svg>
