<?xml version="1.0" encoding="UTF-8"?>
<svg xmlns="http://www.w3.org/2000/svg" id="Layer_1" data-name="Layer 1" viewBox="0 0 24 24" width="512" height="512"><path d="M2.735,21.062c-1.215-1.3-3.379-2.71-2.584-4.8a2.58,2.58,0,0,1,2.108-1.784,2.536,2.536,0,0,0,1.509-.726,2.506,2.506,0,0,0,.721-1.465,3.284,3.284,0,0,1,2.805-2.8A2.541,2.541,0,0,0,9.48,7.3a3.284,3.284,0,0,1,2.806-2.805,2.532,2.532,0,0,0,2.185-2.185A2.764,2.764,0,0,1,19.15.823h0l1.915,1.914a3.477,3.477,0,0,0-3.255,2.907A2.529,2.529,0,0,1,15.626,7.83a3.286,3.286,0,0,0-2.806,2.805,2.531,2.531,0,0,1-2.186,2.185,3.285,3.285,0,0,0-2.805,2.805A2.534,2.534,0,0,1,5.643,17.81,3.474,3.474,0,0,0,2.735,21.062ZM23.084,4.756l-.521-.521a4.456,4.456,0,0,1-1.692.587A1.277,1.277,0,0,0,19.8,5.9a4.534,4.534,0,0,1-3.916,3.913A1.277,1.277,0,0,0,14.8,10.888,4.531,4.531,0,0,1,10.888,14.8a1.278,1.278,0,0,0-1.077,1.077A4.527,4.527,0,0,1,5.9,19.792,1.278,1.278,0,0,0,4.82,20.868a4.49,4.49,0,0,1-.587,1.692,3.335,3.335,0,0,0,4.775.73,5.176,5.176,0,0,1,.709-.334,4.474,4.474,0,0,0,3.409-3.764A1.278,1.278,0,0,1,14.2,18.116,4.529,4.529,0,0,0,18.118,14.2,1.278,1.278,0,0,1,19.2,13.126,4.575,4.575,0,0,0,23.04,9.487a2.867,2.867,0,0,1,.251-.5A3.169,3.169,0,0,0,23.084,4.756Z"/></svg>
