<?xml version="1.0" encoding="UTF-8"?>
<svg xmlns="http://www.w3.org/2000/svg" id="Layer_1" data-name="Layer 1" viewBox="0 0 24 24" width="512" height="512"><path d="M8.001,19.998h8v.31c0,2.035-1.655,3.69-3.69,3.69h-.619c-2.035,0-3.69-1.655-3.69-3.69v-.31Zm13-11c0,2.59-1.118,5.055-3.068,6.763-.739,.648-1.275,1.413-1.594,2.237H7.564c-.358-.877-.926-1.702-1.695-2.417-2.149-2.001-3.167-4.83-2.793-7.761C3.591,3.78,6.905,.515,10.957,.057c2.567-.289,5.13,.522,7.038,2.227,1.91,1.707,3.006,4.154,3.006,6.714Zm-5.001,2.002c0-1.36-.974-2.51-2.315-2.733l-3.041-.507c-.373-.062-.644-.382-.644-.76,0-.551,.448-1,1-1h2.268c.356,0,.688,.192,.867,.5,.275,.478,.886,.642,1.366,.365,.478-.277,.642-.888,.364-1.366-.534-.925-1.53-1.5-2.598-1.5h-.268v-1c0-.552-.447-1-1-1s-1,.448-1,1v1c-1.654,0-3,1.346-3,3,0,1.36,.974,2.51,2.315,2.733l3.041,.507c.373,.062,.644,.382,.644,.76,0,.551-.448,1-1,1h-2.268c-.356,0-.688-.192-.867-.5-.276-.479-.887-.644-1.366-.365-.478,.277-.642,.888-.364,1.366,.534,.925,1.53,1.499,2.598,1.499h.268v1c0,.552,.447,1,1,1s1-.448,1-1v-1c1.654,0,3-1.346,3-3Z"/></svg>
