<?xml version="1.0" encoding="UTF-8"?>
<svg xmlns="http://www.w3.org/2000/svg" id="Layer_1" data-name="Layer 1" viewBox="0 0 24 24" width="512" height="512"><path d="M21.781,22.375l-7.543-9.429L21.832,1.555c.306-.459,.182-1.081-.277-1.387-.46-.308-1.081-.182-1.387,.277l-7.703,11.555H4V1c0-.552-.448-1-1-1s-1,.448-1,1V12.978c0,.008-.004,.014-.004,.022,0,.008,.004,.014,.004,.022v9.978c0,.553,.448,1,1,1s1-.447,1-1V14H12.519l7.7,9.625c.197,.247,.488,.375,.781,.375,.219,0,.44-.071,.624-.219,.432-.346,.501-.975,.156-1.406Z"/></svg>
