<?xml version="1.0" encoding="UTF-8"?>
<svg xmlns="http://www.w3.org/2000/svg" id="Layer_1" data-name="Layer 1" viewBox="0 0 24 24" width="512" height="512"><path d="M7.293,7.121c-.391-.391-.391-1.023,0-1.414s1.023-.391,1.414,0l2.293,2.293V1c0-.553,.447-1,1-1s1,.447,1,1v7l2.293-2.293c.391-.391,1.023-.391,1.414,0s.391,1.023,0,1.414l-3.293,3.293c-.387,.387-.896,.582-1.405,.584l-.009,.002-.009-.002c-.509-.002-1.018-.197-1.405-.584l-3.293-3.293Zm13.707,4.879h-3c-1.103,0-2,.897-2,2s-.897,2-2,2h-4c-1.103,0-2-.897-2-2s-.897-2-2-2H3c-1.654,0-3,1.346-3,3v4c0,2.757,2.243,5,5,5h14c2.757,0,5-2.243,5-5v-4c0-1.654-1.346-3-3-3Z"/></svg>
