<?xml version="1.0" encoding="UTF-8"?>
<svg xmlns="http://www.w3.org/2000/svg" id="Layer_1" data-name="Layer 1" viewBox="0 0 24 24" width="512" height="512"><path d="M16,2h-.171c-.413-1.164-1.525-2-2.829-2h-2c-1.304,0-2.416,.836-2.829,2h-.171c-2.757,0-5,2.243-5,5v12c0,2.757,2.243,5,5,5h8c2.757,0,5-2.243,5-5V7c0-2.757-2.243-5-5-5ZM7,17c-1.308-.006-1.308-1.994,0-2,1.308,.006,1.308,1.994,0,2Zm.667-5c-.445,0-.864-.173-1.178-.488l-1.008-.951c-.401-.379-.42-1.012-.041-1.414,.379-.402,1.012-.42,1.414-.041l.811,.766,1.64-1.59c.396-.384,1.029-.375,1.414,.022,.384,.396,.375,1.029-.022,1.414l-1.862,1.805c-.303,.304-.722,.477-1.167,.477Zm9.333,5h-6c-1.308-.006-1.307-1.994,0-2h6c1.308,.006,1.307,1.994,0,2Zm0-5h-4c-1.308-.006-1.307-1.994,0-2h4c1.308,.006,1.307,1.994,0,2Z"/></svg>
