<?xml version="1.0" encoding="UTF-8"?>
<svg xmlns="http://www.w3.org/2000/svg" id="Layer_1" data-name="Layer 1" viewBox="0 0 24 24" width="512" height="512"><path d="M23,17h-.1a4.952,4.952,0,0,0-.729-1.756l.073-.073a1,1,0,0,0-1.414-1.414l-.073.073A4.952,4.952,0,0,0,19,13.1V13a1,1,0,0,0-2,0v.1a4.952,4.952,0,0,0-1.756.729l-.073-.073a1,1,0,0,0-1.414,1.414l.073.073A4.952,4.952,0,0,0,13.1,17H10.9a4.952,4.952,0,0,0-.729-1.756l.073-.073a1,1,0,0,0-1.414-1.414l-.073.073A4.952,4.952,0,0,0,7,13.1V13a1,1,0,0,0-2,0v.1a4.952,4.952,0,0,0-1.756.729l-.073-.073a1,1,0,0,0-1.414,1.414l.073.073A4.952,4.952,0,0,0,1.1,17H1a1,1,0,0,0,0,2h.1a4.952,4.952,0,0,0,.729,1.756l-.073.073a1,1,0,0,0,1.414,1.414l.073-.073A4.952,4.952,0,0,0,5,22.9V23a1,1,0,0,0,2,0v-.1a4.952,4.952,0,0,0,1.756-.729l.073.073a1,1,0,0,0,1.414-1.414l-.073-.073A4.952,4.952,0,0,0,10.9,19h2.2a4.952,4.952,0,0,0,.729,1.756l-.073.073a1,1,0,0,0,1.414,1.414l.073-.073A4.952,4.952,0,0,0,17,22.9V23a1,1,0,0,0,2,0v-.1a4.952,4.952,0,0,0,1.756-.729l.073.073a1,1,0,0,0,1.414-1.414l-.073-.073A4.952,4.952,0,0,0,22.9,19H23A1,1,0,0,0,23,17ZM6,19a1,1,0,0,1,0-2A1,1,0,0,1,6,19Zm12,0a1,1,0,0,1,0-2A1,1,0,0,1,18,19ZM19.685,6H9V2.5A2.5,2.5,0,0,1,11.5,0h1a5,5,0,0,1,3.91,1.884ZM6,10a7.98,7.98,0,0,0-6,2.709V11A3,3,0,0,1,3,8H20a4.112,4.112,0,0,1,4,4.709c-2.865-3.554-9.135-3.554-12,0A7.98,7.98,0,0,0,6,10Z"/></svg>
