<?xml version="1.0" encoding="UTF-8"?>
<svg xmlns="http://www.w3.org/2000/svg" id="Layer_1" data-name="Layer 1" viewBox="0 0 24 24" width="512" height="512"><path d="M23.286,10.058A2.992,2.992,0,0,0,21,9H17.58L13.313,1.546a2.883,2.883,0,0,0-4.807-.425,2.688,2.688,0,0,0-.363,2.426L10.083,9H5.532L4.116,7.1A2.43,2.43,0,0,0,2.079,6h0A2.075,2.075,0,0,0,.126,8.788L2,12,.126,15.212A2.075,2.075,0,0,0,2.075,18h0a2.43,2.43,0,0,0,2.037-1.1L5.532,15h4.551l-1.94,5.453a2.688,2.688,0,0,0,.363,2.426,2.883,2.883,0,0,0,4.807-.425L17.58,15H21a3.011,3.011,0,0,0,2.286-4.942Z"/></svg>
