<?xml version="1.0" encoding="UTF-8"?>
<svg xmlns="http://www.w3.org/2000/svg" id="Layer_1" data-name="Layer 1" viewBox="0 0 24 24" width="512" height="512"><path d="M16,14a1,1,0,0,1,0,2A1,1,0,0,1,16,14Zm-5,1a1,1,0,0,0,2,0A1,1,0,0,0,11,15ZM7,15a1,1,0,0,0,2,0A1,1,0,0,0,7,15Zm0,3a1,1,0,0,0,0,2A1,1,0,0,0,7,18Zm4,0a1,1,0,0,0,0,2A1,1,0,0,0,11,18Zm4,0a1,1,0,0,0,0,2A1,1,0,0,0,15,18ZM17.974,5.146a1.036,1.036,0,0,1-.742-.569A8.062,8.062,0,0,0,8.5.137a7.946,7.946,0,0,0-6.384,6.5,8.147,8.147,0,0,0,.033,2.889,1,1,0,0,1-.345.9,5.538,5.538,0,0,0,2.327,9.39A2.943,2.943,0,0,1,4.771,17a1.437,1.437,0,0,0,.3-1.351A3.005,3.005,0,0,1,8,12c1.091-.112,1.5.892,2.708.3A2.476,2.476,0,0,1,12,12c1.125-.073,1.413.806,2.75.28a3,3,0,0,1,3.506,4.687c-.841,1.043.07,1.859-.4,2.9C25.89,18.316,26.038,6.867,17.974,5.146ZM14,22a1,1,0,0,0,0,2A1,1,0,0,0,14,22Zm-4,0a1,1,0,0,0,0,2A1,1,0,0,0,10,22ZM6,22a1,1,0,0,0,0,2A1,1,0,0,0,6,22Z"/></svg>
