<?xml version="1.0" encoding="UTF-8"?>
<svg xmlns="http://www.w3.org/2000/svg" id="Layer_1" data-name="Layer 1" viewBox="0 0 24 24" width="512" height="512"><path d="M24,11c.323,6.893-5.045,12.9-11.775,13C5.13,23.987-.187,18.489,0,11a2,2,0,0,1,4,0c.905,3.936,3.923,4,4.515,4,2,0,3.466-1.662,3.485-3.952a6.143,6.143,0,0,1,1.234-3.615,4.982,4.982,0,0,0,9.548-.052A6,6,0,0,1,24,11ZM9,6.692A1.019,1.019,0,1,0,11,7,4.47,4.47,0,0,0,9.707,3.571,2.4,2.4,0,0,1,9,1.864V1A1,1,0,0,0,7,1v.864A4.386,4.386,0,0,0,8.293,4.986,2.394,2.394,0,0,1,9,6.692ZM14,2c1.169,0,2.684.351,2.954,3.1a5.81,5.81,0,0,0-1.935.713c-.159,4.216,6.139,4.2,5.961-.011a6.064,6.064,0,0,0-2.015-.7C18.622.688,15.753,0,14,0A1,1,0,0,0,14,2ZM4.294,6.293A2.434,2.434,0,0,1,5,8,1,1,0,0,0,6,9c2-.29.622-3.264-.293-4.121A2.463,2.463,0,0,1,5,2.994a1,1,0,0,0-2,.012A4.423,4.423,0,0,0,4.294,6.293ZM12.225,24Z"/></svg>
