<?xml version="1.0" encoding="UTF-8"?>
<svg xmlns="http://www.w3.org/2000/svg" id="Layer_1" data-name="Layer 1" viewBox="0 0 24 24" width="512" height="512"><path d="M20.276,1.724c3.278,4.181,1.7,11.042-3.845,12.129A5.23,5.23,0,0,1,10,9.048a5.009,5.009,0,0,1,4.148-4.975C18.66,3.352,19.487,9.7,15,10h0a1,1,0,0,1,0-2,1,1,0,0,0,0-2,3.01,3.01,0,1,0,.635,5.96,5.043,5.043,0,0,0,4.334-5.617C19.446.748,12.368-1.267,8.488,2.8A9,9,0,0,0,8,14.588l-7.7,7.705a1,1,0,0,0,1.414,1.414L9.416,16C19.211,23.33,29.856,9.157,20.276,1.724Z"/></svg>
