<?xml version="1.0" encoding="UTF-8"?>
<svg xmlns="http://www.w3.org/2000/svg" id="Layer_1" data-name="Layer 1" viewBox="0 0 24 24" width="512" height="512"><path d="M12,0A12.013,12.013,0,0,0,0,12c.6,15.9,23.4,15.893,24,0A12.013,12.013,0,0,0,12,0ZM9,10c0-1.054-.68-2-1-2s-1,.946-1,2a1,1,0,0,1-2,0C5,8.108,6.232,6,8,6s3,2.108,3,4A1,1,0,0,1,9,10Zm3.5,10H10.769a1,1,0,0,1,0-2H12.5a.5.5,0,0,0,0-1H12a1,1,0,0,1,0-2h.5a.5.5,0,0,0,0-1H10.769a1,1,0,0,1,0-2H12.5a2.507,2.507,0,0,1,1.987,4A2.507,2.507,0,0,1,12.5,20ZM18,11a1,1,0,0,1-1-1c0-1.054-.68-2-1-2s-1,.946-1,2a1,1,0,0,1-2,0c0-1.892,1.232-4,3-4s3,2.108,3,4A1,1,0,0,1,18,11Z"/></svg>
