<?xml version="1.0" encoding="UTF-8"?>
<svg xmlns="http://www.w3.org/2000/svg" id="Layer_1" data-name="Layer 1" viewBox="0 0 24 24" width="512" height="512"><path d="M23,24H2.988C1.333,24-.012,22.654-.012,21V1C-.006-.308,1.982-.307,1.988,1V21c0,.552,.449,1,1,1H23c1.308,.006,1.307,1.995,0,2ZM14,13c.006,1.308,1.994,1.308,2,0-.006-1.308-1.994-1.308-2,0Zm6-6c.006,1.308,1.994,1.308,2,0-.006-1.308-1.994-1.308-2,0Zm-9,11c.006,1.308,1.994,1.308,2,0-.006-1.308-1.994-1.308-2,0Zm9-1c.006,1.308,1.994,1.308,2,0-.006-1.308-1.994-1.308-2,0ZM9,5c.006,1.308,1.994,1.308,2,0-.006-1.308-1.994-1.308-2,0Zm-4,7c.006,1.308,1.994,1.308,2,0-.006-1.308-1.994-1.308-2,0Z"/></svg>
