<?xml version="1.0" encoding="UTF-8"?>
<svg xmlns="http://www.w3.org/2000/svg" id="Layer_1" data-name="Layer 1" viewBox="0 0 24 24" width="512" height="512"><path d="M8.5,8.07c.16-.042,.325-.071,.498-.071l5.993-.005h.002c.18,0,.353,.032,.522,.077l-2.519,2.519c-.527,.527-1.448,.527-1.976,0l-2.521-2.521Zm5.91,3.935c-.641,.642-1.494,.995-2.401,.995s-1.761-.354-2.402-.995l-2.528-2.529c-.046,.168-.078,.341-.078,.523v2.999c0,.535,.208,1.037,.586,1.415s.88,.585,1.414,.585h0l5.993-.003c1.103,0,1.999-.898,1.999-2v-3c0-.172-.029-.339-.071-.501l-2.512,2.512Zm9.59-.005c0,6.617-5.383,12-12,12S0,18.617,0,12,5.383,0,12,0s12,5.383,12,12Zm-5.007-2.006c0-1.069-.417-2.074-1.173-2.83-.756-.754-1.76-1.17-2.827-1.17h-.004l-5.993,.005c-2.203,.002-3.996,1.796-3.996,4v2.999c0,1.069,.416,2.074,1.172,2.829s1.76,1.171,2.828,1.171h.003l5.993-.003c2.204-.001,3.997-1.796,3.997-4v-3Z"/></svg>
