<?xml version="1.0" encoding="UTF-8"?>
<svg xmlns="http://www.w3.org/2000/svg" id="Layer_1" data-name="Layer 1" viewBox="0 0 24 24" width="512" height="512"><path d="M4.942,20C5.529,23.954-.53,23.952.058,20ZM22.632,7.735A3.994,3.994,0,0,0,18.838,5H16v6h7.716C23.692,10.92,22.632,7.735,22.632,7.735ZM16,13v3H1a1,1,0,0,0,0,2H20c2.744-.026,4.3-2.416,4-5ZM6.058,20c-.587,3.954,5.472,3.952,4.884,0Zm9,0c-.587,3.954,5.472,3.952,4.884,0ZM14,5.5V13a1,1,0,0,1-1,1H1a1,1,0,0,1-1-1V5.5A4.505,4.505,0,0,1,4.5,1h5A4.505,4.505,0,0,1,14,5.5ZM4,5A1,1,0,0,0,2,5v6a1,1,0,0,0,2,0ZM8,5A1,1,0,0,0,6,5v6a1,1,0,0,0,2,0Zm4,0a1,1,0,0,0-2,0v6a1,1,0,0,0,2,0Z"/></svg>
