<?xml version="1.0" encoding="UTF-8"?>
<svg xmlns="http://www.w3.org/2000/svg" id="Layer_1" data-name="Layer 1" viewBox="0 0 24 24" width="512" height="512"><path d="M7.942,20c.034,.162,.058,.328,.058,.5,0,1.381-1.119,2.5-2.5,2.5s-2.5-1.119-2.5-2.5c0-.172,.024-.338,.058-.5H7.942Zm8.115,0c-.034,.162-.058,.328-.058,.5,0,1.381,1.119,2.5,2.5,2.5s2.5-1.119,2.5-2.5c0-.172-.024-.338-.058-.5h-4.885Zm7.942-5v1c0,1.105-.895,2-2,2H2c-1.105,0-2-.895-2-2v-1c0-2.209,1.791-4,4-4h0c.552,0,1-.448,1-1h0c0-.552-.448-1-1-1h0c-.591,0-1.16,.089-1.699,.249l1.525-4.021c.737-1.943,2.598-3.228,4.675-3.228h3.835c1.635,0,3.167,.799,4.102,2.141l3.387,4.859h-1.825c-.552,0-1,.448-1,1s.448,1,1,1h2c2.209,0,4,1.791,4,4Zm-10.191-5.154c-.28-.521-.821-.846-1.413-.846h-2.067l1.523-2.476c.29-.47,.143-1.086-.328-1.375-.47-.291-1.086-.143-1.375,.328,0,0-2.054,3.359-2.079,3.441-.147,.487-.055,1.021,.249,1.43s.788,.653,1.297,.653h2.068l-1.533,2.473c-.291,.469-.146,1.086,.323,1.377,.164,.102,.346,.15,.526,.15,.334,0,.662-.168,.851-.473l1.881-3.037c.327-.493,.357-1.123,.077-1.645Z"/></svg>
