<?xml version="1.0" encoding="UTF-8"?>
<svg xmlns="http://www.w3.org/2000/svg" id="Layer_1" data-name="Layer 1" viewBox="0 0 24 24" width="512" height="512"><path d="M23.433,20.4a1,1,0,0,0-1.334.468,2,2,0,0,1-2.7.926L17,20.726V15.877a3.027,3.027,0,0,0-.99-2.227L13.416,11.4l2.747-3.566,6.3,4.009a1,1,0,0,0,1.074-1.688S13.077,3.538,12.673,3.351A4.98,4.98,0,0,0,10.835,3H9.657a2.983,2.983,0,0,1-2.122-.878L5.707.293A1,1,0,0,0,4.293,1.707L6.121,3.536A4.968,4.968,0,0,0,9.657,5h1.156L8.621,7.852A3.018,3.018,0,0,0,8,9.68v3.084a.994.994,0,0,1-.553.894L4.553,15.105a1.132,1.132,0,0,0-.108.063L3.159,14.6a2,2,0,0,1-.973-2.655A1,1,0,0,0,.371,11.1a4,4,0,0,0,1.963,5.318l16.231,7.184a3.97,3.97,0,0,0,1.727.4,4.026,4.026,0,0,0,1.33-.228A3.973,3.973,0,0,0,23.9,21.729,1,1,0,0,0,23.433,20.4ZM8.342,15.447A2.984,2.984,0,0,0,10,12.764V11.083l4.677,4.058a1.007,1.007,0,0,1,.323.736V19.84L6.808,16.214ZM17.5,5A2.5,2.5,0,1,0,15,2.5,2.5,2.5,0,0,0,17.5,5Z"/></svg>
