<?xml version="1.0" encoding="UTF-8"?>
<svg xmlns="http://www.w3.org/2000/svg" id="Layer_1" data-name="Layer 1" viewBox="0 0 24 24" width="512" height="512"><path d="M17.974,7.146c-.332-.066-.603-.273-.742-.569-1.552-3.271-5.143-5.1-8.735-4.438-3.272,.6-5.837,3.212-6.384,6.501-.162,.971-.15,1.943,.033,2.89,.06,.309-.073,.653-.346,.901-1.145,1.041-1.801,2.524-1.801,4.07,0,3.032,2.467,5.5,5.5,5.5h11c4.136,0,7.5-3.364,7.5-7.5,0-3.565-2.534-6.658-6.026-7.354Zm-2.853,7.562l-2.707,2.707c-.387,.387-.896,.582-1.405,.584l-.009,.002-.009-.002c-.509-.002-1.018-.197-1.405-.584l-2.707-2.707c-.391-.391-.391-1.023,0-1.414s1.023-.391,1.414,0l1.707,1.707v-5c0-.553,.448-1,1-1s1,.447,1,1v5l1.707-1.707c.391-.391,1.023-.391,1.414,0s.391,1.023,0,1.414Z"/></svg>
