<?xml version="1.0" encoding="UTF-8"?>
<svg xmlns="http://www.w3.org/2000/svg" id="Layer_1" data-name="Layer 1" viewBox="0 0 24 24" width="512" height="512"><path d="M6.233,21.883a2.117,2.117,0,0,1-4.233,0c-.053-.927,1.541-4.751,2.6-3.582A7.088,7.088,0,0,1,6.233,21.883ZM21.883,7a2.117,2.117,0,0,0,0-4.233c-.927-.053-4.751,1.541-3.582,2.6A7.088,7.088,0,0,0,21.883,7Zm1.636,1.657c2.866,9.162-6.589,18.055-15.55,14.634.945-2.068-.869-5.184-1.839-6.279a2.632,2.632,0,0,0-2.008-.938H4.113A2.632,2.632,0,0,0,2.108,17a8.892,8.892,0,0,0-.606.81C-4.431,6.956,7.978-4.708,18.429,1.879a10.087,10.087,0,0,0-1.431,1A2.655,2.655,0,0,0,17.01,6.9C18.157,7.925,21.428,9.763,23.519,8.657Zm-12.933.514a1,1,0,0,0,.9.274l3.536-.707a1,1,0,0,0-.393-1.961l-2.064.412.412-2.064a1,1,0,1,0-1.96-.393l-.708,3.536A1,1,0,0,0,10.586,9.171ZM9.171,10.586a.993.993,0,0,0-.9-.274l-3.536.708a1,1,0,1,0,.393,1.96l2.064-.412-.412,2.064a1,1,0,1,0,1.961.393l.707-3.536A1,1,0,0,0,9.171,10.586Zm9.61-.07a1,1,0,0,0-1.817-.329,15.416,15.416,0,0,1-2.7,4.079,15.391,15.391,0,0,1-4.079,2.7,1,1,0,0,0,.329,1.817,6.841,6.841,0,0,0,6.581-1.69A6.828,6.828,0,0,0,18.781,10.516Z"/></svg>
