<?xml version="1.0" encoding="UTF-8"?>
<svg xmlns="http://www.w3.org/2000/svg" id="Layer_1" data-name="Layer 1" viewBox="0 0 24 24" width="512" height="512"><path d="M12.836,.028C9.364-.202,5.96,1.066,3.509,3.521,1.057,5.977-.211,9.378,.03,12.854c.44,6.354,6.052,11.146,13.053,11.146h5.917c2.757,0,5-2.243,5-5v-6.66C24,5.861,19.097,.454,12.836,.028Zm-1.836,12.972c0,2.206-1.794,4-4,4-.552,0-1-.447-1-1s.448-1,1-1c1.103,0,2-.897,2-2h-1.5c-.828,0-1.5-.672-1.5-1.5v-1.5c0-1.105,.895-2,2-2h1.5c.828,0,1.5,.672,1.5,1.5v3.5Zm7,0c0,2.206-1.794,4-4,4-.553,0-1-.447-1-1s.447-1,1-1c1.103,0,2-.897,2-2h-1.5c-.828,0-1.5-.672-1.5-1.5v-1.5c0-1.105,.895-2,2-2h1.5c.828,0,1.5,.672,1.5,1.5v3.5Z"/></svg>
