<?xml version="1.0" encoding="UTF-8"?>
<svg xmlns="http://www.w3.org/2000/svg" id="Layer_1" data-name="Layer 1" viewBox="0 0 24 24" width="512" height="512"><path d="M23.27,16.245c.972,.971,.972,2.539,.008,3.502l-2.578,2.522c-.194,.19-.447,.285-.699,.285-.26,0-.519-.101-.715-.301-.386-.395-.379-1.027,.016-1.414l1.881-1.84h-2.181c-1.654,0-3,1.346-3,3v1c0,.553-.447,1-1,1s-1-.447-1-1v-1c0-2.757,2.243-5,5-5h2.181l-1.881-1.84c-.395-.387-.401-1.02-.016-1.414,.388-.395,1.021-.401,1.414-.016l2.57,2.515ZM9,0c-1.896,0-3.489,1.327-3.898,3.102-1.774,.409-3.102,2.001-3.102,3.898v.021c-1.248,.939-2,2.41-2,3.979,0,.886,.235,1.737,.686,2.5-.45,.763-.686,1.614-.686,2.5,0,1.686,.858,3.244,2.267,4.165,.719,2.279,2.812,3.835,5.233,3.835h.04c1.941-.014,3.46-1.701,3.46-3.643V2.005C11,.9,10.105,.003,9,0Zm8.115,15.258c-.28-1-.035-2.117,.741-2.911,1.161-1.182,3.063-1.203,4.244-.045l1.143,1.119c.272-.482,.553-1.019,.582-1.126,.116-.421,.175-.857,.175-1.295,0-1.568-.752-3.04-2-3.979v-.021c0-1.897-1.327-3.489-3.102-3.898-.409-1.774-2.002-3.102-3.898-3.102h-.022c-1.111,.006-1.978,.977-1.978,2.088V18.398c.911-1.512,2.378-2.654,4.115-3.14Z"/></svg>
