<?xml version="1.0" encoding="UTF-8"?>
<svg xmlns="http://www.w3.org/2000/svg" id="Layer_1" data-name="Layer 1" viewBox="0 0 24 24" width="512" height="512"><path d="M23.283,9.034A3.008,3.008,0,0,0,20.93,8C19.5-2.6,4.492-2.591,3.07,8A3.018,3.018,0,0,0,.046,11.425l1.059,7.424A6.024,6.024,0,0,0,7.037,24h9.957a6.025,6.025,0,0,0,5.932-5.151l1.059-7.424A3,3,0,0,0,23.283,9.034ZM5.089,8C6.356.062,17.647.068,18.911,8Zm15.233,3.707-4.559,4.564a2.493,2.493,0,0,1-3.531,0L7.673,11.707a1,1,0,0,1,1.413-1.414l4.558,4.564a.5.5,0,0,0,.706,0l4.559-4.564A1,1,0,0,1,20.322,11.707Z"/></svg>
