<?xml version="1.0" encoding="UTF-8"?>
<svg xmlns="http://www.w3.org/2000/svg" id="Layer_1" data-name="Layer 1" viewBox="0 0 24 24" width="512" height="512"><path d="M12,21.215l3.025,2.415c.688,.549,1.713,.176,1.887-.687l.765-3.795,3.87-.095c.88-.022,1.425-.966,1.004-1.739l-1.853-3.399,2.904-2.56c.66-.582,.471-1.656-.349-1.977l-3.604-1.412,.579-3.827c.132-.87-.704-1.571-1.538-1.291l-3.669,1.235L13.004,.78C12.545,.029,11.455,.029,10.996,.78l-2.017,3.304-3.669-1.235c-.834-.281-1.67,.42-1.538,1.291l.579,3.827-3.604,1.412c-.819,.321-1.009,1.395-.349,1.977l2.904,2.56-1.853,3.399c-.421,.773,.124,1.717,1.004,1.739l3.87,.095,.765,3.795c.174,.863,1.199,1.236,1.887,.687l3.025-2.415Z"/></svg>
