<?xml version="1.0" encoding="UTF-8"?>
<svg xmlns="http://www.w3.org/2000/svg" id="Layer_1" data-name="Layer 1" viewBox="0 0 24 24" width="512" height="512"><path d="M4.003,1.248C3.953,.546,4.546-.047,5.248,.003c4.489,.316,6.511,2.401,6.752,6.997C12.241,2.404,14.263,.319,18.752,.003c.701-.049,1.294,.543,1.245,1.245-.316,4.489-2.407,6.486-7.002,6.727,0,.009,.005,.017,.005,.026v2c-.005,1.308-1.995,1.307-2,0v-2c0-.009,.005-.017,.005-.026-4.596-.241-6.686-2.238-7.002-6.727ZM23.444,13.258c-.521-.723-1.323-1.178-2.203-1.248-.875-.076-1.74,.246-2.331,.839l-1.947,1.786c.284,2.315-1.649,4.38-3.963,4.365h-4c-1.308-.005-1.307-1.995,0-2h4c2.629-.048,2.627-3.953,0-4h-3.912c-2.938,0-5.7,1.145-7.797,3.24l-1.017,1.071c-.176,.186-.274,.433-.274,.688v5c0,.553,.447,1,1,1H11.32c2.746,0,5.377-1.019,7.408-2.868l4.318-3.935c1.07-1.073,1.241-2.766,.397-3.939Z"/></svg>
