<?xml version="1.0" encoding="UTF-8"?>
<svg xmlns="http://www.w3.org/2000/svg" id="Layer_1" data-name="Layer 1" viewBox="0 0 24 24" width="512" height="512"><path d="M16,9c0,1.654-1.346,3-3,3v1c-.005,1.308-1.995,1.307-2,0v-1h-.268c-1.067,0-2.063-.574-2.598-1.499-.277-.479-.113-1.09,.364-1.366,.479-.279,1.091-.114,1.366,.364,.179,.31,.511,.501,.867,.501h2.268c.998,.065,1.443-1.55,.355-1.761l-3.04-.506c-3.501-.651-2.748-5.753,.685-5.733V1c.005-1.308,1.995-1.307,2,0v1h.268c1.067,0,2.063,.574,2.598,1.499,.277,.479,.113,1.09-.364,1.366-.48,.277-1.091,.113-1.366-.364-.179-.31-.511-.501-.867-.501h-2.268c-.998-.065-1.443,1.55-.355,1.761l3.04,.506c1.342,.224,2.315,1.374,2.315,2.733Zm3.102-6h-1.276c.202,.566,.232,1.18,.073,1.774-.145,.54-.429,1.018-.824,1.394,1.906,2.424,.67,6.387-2.137,7.441-.617,3.087-5.12,3.167-5.851,.11-1.114-.39-2.077-1.169-2.684-2.219-.401-.691-.509-1.5-.302-2.275,.145-.54,.429-1.018,.824-1.394-1.01-1.307-1.208-3.322-.497-4.832h-1.53C1.621,2.904-.255,7.109,1.985,9.487l7.015,7.893v2.62c0,.314,.148,.611,.4,.8l4,3c.303,.229,.709,.263,1.047,.095,.339-.17,.553-.516,.553-.895v-5.62l7.015-7.892c2.24-2.38,.365-6.584-2.913-6.488Z"/></svg>
