<?xml version="1.0" encoding="UTF-8"?>
<svg xmlns="http://www.w3.org/2000/svg" id="Layer_1" data-name="Layer 1" viewBox="0 0 24 24" width="512" height="512"><path d="M21,8.567C14.97,2.814,4.893,7.4,5,15.791V19.5a1.5,1.5,0,0,1-3,0V15.274a7.486,7.486,0,0,1,1.626-4.65A1,1,0,0,0,2.063,9.377C-.336,12.054-.036,16.165,0,19.5A3.5,3.5,0,0,0,3.5,23H19a5.006,5.006,0,0,0,5-5V15.5A9.536,9.536,0,0,0,21,8.567ZM16,20a1,1,0,0,1,0-2A1,1,0,0,1,16,20Zm2-3a1,1,0,0,1,0-2A1,1,0,0,1,18,17Zm2,3a1,1,0,0,1,0-2A1,1,0,0,1,20,20ZM5.215,8.178A3.839,3.839,0,0,1,8.257,3.063a3.315,3.315,0,0,1,3.8-1.947,3.23,3.23,0,0,1,4.918-.011,3.308,3.308,0,0,1,3.768,1.958,3.927,3.927,0,0,1,2.929,5.525c-4.2-6.042-14.026-6.02-18.22-.072A3.113,3.113,0,0,0,5.215,8.178Z"/></svg>
