<?xml version="1.0" encoding="UTF-8"?>
<svg xmlns="http://www.w3.org/2000/svg" id="Layer_1" data-name="Layer 1" viewBox="0 0 24 24" width="512" height="512"><path d="M23.784,23.621A1,1,0,0,1,23,24H15a1,1,0,0,1-.97-1.245c1.231-4.947,8.773-4.935,9.943.016A1,1,0,0,1,23.784,23.621Zm-4.7-18.078L15.265,2.067a5,5,0,0,0-4.958-.7L3.2,4.138A5.012,5.012,0,0,0,.125,8.106C.121,8.143,0,13.385,0,13.385c0,.217.006.489.022.788l19.8-7.911A5.442,5.442,0,0,0,19.083,5.543ZM17.124,15.961A2,2,0,0,0,20.8,14.4l-.072-.177a3.992,3.992,0,0,0,.976-4.42l-.53-1.3c-.074-.184-.164-.353-.249-.527L17.242,9.445l.381.937a1,1,0,1,1-1.853.753l-.385-.948L5.866,13.992l.363.915a1,1,0,0,1-1.858.738l-.362-.911L.326,16.206a5.3,5.3,0,0,0,.189.575l.529,1.3a3.955,3.955,0,0,0,4.02,2.466l.083.2a2,2,0,0,0,3.707-1.5Z"/></svg>
