<?xml version="1.0" encoding="UTF-8"?>
<svg xmlns="http://www.w3.org/2000/svg" id="Layer_1" data-name="Layer 1" viewBox="0 0 24 24" width="512" height="512"><path d="M23.707,22.293l-5.921-5.921c.128-.445,.214-.901,.214-1.372v-6c0-2.757-2.243-5-5-5H5.414L1.708,.293C1.317-.098,.684-.098,.293,.293S-.097,1.316,.293,1.707l4,4h0L22.293,23.707c.195,.195,.451,.293,.707,.293s.512-.098,.707-.293c.391-.391,.391-1.023,0-1.414Zm-8.489-2.833c-.671,.335-1.417,.54-2.218,.54H5C2.239,20,0,17.761,0,15v-6C0,7.678,.52,6.486,1.351,5.593l13.866,13.867Zm8.782-11.147v7.319c0,.757-.42,1.437-1.097,1.775-.283,.141-.587,.211-.889,.211-.421,0-.837-.135-1.189-.399-.037-.028-.825-.81-.825-.81V7.544s.786-.789,.825-.818c.604-.454,1.399-.527,2.078-.188s1.097,1.018,1.097,1.775Z"/></svg>
