<?xml version="1.0" encoding="UTF-8"?>
<svg xmlns="http://www.w3.org/2000/svg" id="Layer_1" data-name="Layer 1" viewBox="0 0 24 24" width="512" height="512"><path d="M19,0H5C2.243,0,0,2.243,0,5v14c0,2.757,2.243,5,5,5h14c2.757,0,5-2.243,5-5V5c0-2.757-2.243-5-5-5Zm-7,19c-.828,0-1.5-.672-1.5-1.5s.672-1.5,1.5-1.5,1.5,.672,1.5,1.5-.672,1.5-1.5,1.5Zm1.928-6.512c-.521,.287-.928,.952-.928,1.512,0,.553-.448,1-1,1s-1-.447-1-1c0-1.284,.807-2.626,1.963-3.264,.763-.42,1.157-1.254,1.004-2.125-.138-.787-.81-1.458-1.596-1.596-.606-.107-1.195,.047-1.656,.435-.455,.381-.715,.94-.715,1.533,0,.552-.448,1-1,1s-1-.448-1-1c0-1.185,.521-2.302,1.429-3.064,.908-.762,2.109-1.077,3.287-.873,1.613,.282,2.938,1.606,3.221,3.22,.298,1.699-.509,3.395-2.009,4.222Z"/></svg>
