<?xml version="1.0" encoding="UTF-8"?>
<svg xmlns="http://www.w3.org/2000/svg" id="Layer_1" data-name="Layer 1" viewBox="0 0 24 24" width="512" height="512"><path d="M24,16v5c0,1.657-1.343,3-3,3h-5c-2.955,0-5.535-1.615-6.92-4.004l.04-.04c1.804-.138,3.499-.651,4.992-1.455l1.974,1.914c.392,.392,.905,.586,1.418,.586,.509,0,1.017-.191,1.399-.575l2.793-2.707c.396-.384,.406-1.018,.021-1.414s-1.018-.405-1.414-.021l-2.814,2.707-1.662-1.611c2.36-1.853,3.93-4.543,4.145-7.586,.017-.234,.01-.466,.012-.699l.013-.013c2.389,1.385,4.004,3.965,4.004,6.92Zm-15.862,2H3.661c-2.019,0-3.661-1.645-3.661-3.666v-5.038C0,4.589,3.823,.343,8.349,.023c2.615-.19,5.17,.769,7.014,2.612s2.798,4.402,2.613,7.016c-.33,4.682-4.652,8.349-9.839,8.349Zm2.112-4.75c0-.69-.56-1.25-1.25-1.25s-1.25,.56-1.25,1.25,.56,1.25,1.25,1.25,1.25-.56,1.25-1.25Zm1.703-6.785c-.213-1.212-1.208-2.206-2.417-2.417-.886-.161-1.783,.081-2.463,.653-.682,.572-1.072,1.41-1.072,2.299,0,.553,.448,1,1,1s1-.447,1-1c0-.297,.13-.576,.358-.767,.23-.193,.526-.271,.832-.216,.391,.068,.725,.401,.793,.793,.093,.531-.212,.907-.502,1.066-.443,.244-1.481,.815-1.481,2.123,0,.553,.448,1,1,1s1-.447,1-1c0-.053,0-.125,.447-.371,1.124-.621,1.729-1.892,1.506-3.164Z"/></svg>
