<?xml version="1.0" encoding="UTF-8"?>
<svg xmlns="http://www.w3.org/2000/svg" id="Layer_1" data-name="Layer 1" viewBox="0 0 24 24" width="512" height="512"><path d="M15,6a1,1,0,0,1,2,0A1,1,0,0,1,15,6ZM10,9.1c0-.034,0-.06,0-.1a6.421,6.421,0,0,1,2.6-5.13A2.124,2.124,0,0,0,11.653.275,10,10,0,0,0,7.778.117,9.351,9.351,0,0,0,.051,8.272a9.3,9.3,0,0,0,3.867,8.544l.022.016a9.029,9.029,0,0,0,1,.578A5.434,5.434,0,0,1,6,16.253a8.221,8.221,0,0,1,.229-2.168A8.01,8.01,0,0,1,10,9.1ZM22,10a1,1,0,0,0,0-2A1,1,0,0,0,22,10ZM20,4a1,1,0,0,0,0-2A1,1,0,0,0,20,4Zm.306,10.172s-.613-.14-.744-.425c-2.438-5.675-10.274-4.372-11.387.812-.426.955.274,2.321-.591,3.015a3.5,3.5,0,0,0,1.162,6.347A3.689,3.689,0,0,0,9.429,24h4.385l1.87-3H13.615a1.614,1.614,0,0,1-1.546-2.082,1.014,1.014,0,0,1,.106-.235l1.973-3.207a1,1,0,0,1,1.7,1.048L14.328,19H16.4a1.6,1.6,0,0,1,1.336,2.489L16.176,24H19.39a4.066,4.066,0,0,0,1.9-.42,5.172,5.172,0,0,0,2.577-3.408A5.013,5.013,0,0,0,20.306,14.172Z"/></svg>
