<?xml version="1.0" encoding="UTF-8"?>
<svg xmlns="http://www.w3.org/2000/svg" id="Layer_1" data-name="Layer 1" viewBox="0 0 24 24" width="512" height="512"><path d="M21.933,2.067C18.767-1.1,13.086-.569,9.267,3.248A10.6,10.6,0,0,0,6.029,10.9a13.291,13.291,0,0,0,.157,1.433c.149,1.571.129,3.938-.884,4.951l-5,5A1,1,0,1,0,1.716,23.7l5-5c1.025-1.023,3.433-1.033,5-.879a13.448,13.448,0,0,0,1.62.163,10.667,10.667,0,0,0,7.412-3.249C24.569,10.915,25.1,5.234,21.933,2.067Zm-.517,8.154L19.933,8.739,21.976,6.7A7.455,7.455,0,0,1,21.416,10.221Zm-.1-5.689L18.519,7.325,16.593,5.4l2.753-2.753a4.525,4.525,0,0,1,1.966,1.886ZM13.046,15.98l-.3-.051,2.241-2.241,1.568,1.568A7.682,7.682,0,0,1,13.046,15.98ZM8.02,10.951a7.685,7.685,0,0,1,.723-3.5L10.23,8.934,8.048,11.117C8.038,11.058,8.028,11,8.02,10.951Zm2.531,4.342a4.718,4.718,0,0,1-1.9-1.952l2.992-2.993,1.926,1.926Zm2.507-6.359,2.121-2.121,1.926,1.926L14.984,10.86Zm4.079-6.907L15.179,3.985l-1.4-1.4a7.7,7.7,0,0,1,2.891-.6C16.832,1.988,16.982,2.016,17.137,2.027ZM11.958,3.592,13.765,5.4,11.644,7.52,9.8,5.679a10.045,10.045,0,0,1,.879-1.017A9.868,9.868,0,0,1,11.958,3.592Zm-3.9,12.346c0-.014,0-.029.007-.043l.017.019.019.017ZM18.321,14.2,16.4,12.274l2.121-2.121,1.891,1.891a9.879,9.879,0,0,1-1.073,1.275A9.927,9.927,0,0,1,18.321,14.2Z"/></svg>
