<?xml version="1.0" encoding="UTF-8"?>
<svg xmlns="http://www.w3.org/2000/svg" id="Layer_1" data-name="Layer 1" viewBox="0 0 24 24" width="512" height="512"><path d="M12.836,.028C9.364-.204,5.96,1.066,3.509,3.521,1.057,5.977-.211,9.378,.03,12.854c.44,6.354,6.052,11.146,13.054,11.146h5.917c2.757,0,5-2.243,5-5v-6.66C24,5.861,19.096,.454,12.836,.028Zm-.836,18.972c-.828,0-1.5-.672-1.5-1.5s.672-1.5,1.5-1.5,1.5,.672,1.5,1.5-.672,1.5-1.5,1.5Zm1-6c0,.553-.448,1-1,1s-1-.447-1-1V5c0-.553,.448-1,1-1s1,.447,1,1V13Z"/></svg>
