<?xml version="1.0" encoding="UTF-8"?>
<svg xmlns="http://www.w3.org/2000/svg" id="Layer_1" data-name="Layer 1" viewBox="0 0 24 24" width="512" height="512"><path d="M24,18v1.001c0,1.653-1.345,2.999-2.999,2.999-.802,0-1.555-.312-2.122-.88-.546-.547-.855-1.267-.876-2.035-.002-.028-.003-.057-.003-.085h-1.98c0,1.655-1.344,3-2.997,3-.807,0-1.559-.312-2.124-.879-.565-.567-.875-1.32-.873-2.121H6.006c-.005,1.66-1.35,3-2.997,3-1.666,0-3.01-1.345-3.01-2.997v-4.003H19.998l.005,4c0,.268,.104,.518,.292,.707,.189,.188,.439,.293,.707,.293,.551,0,.999-.448,.999-.999v-1.001c0-.553,.448-1,1-1s1,.447,1,1ZM0,13v-5C0,4.691,2.691,2,6,2H14.014c1.604,0,3.111,.625,4.245,1.76,1.134,1.135,1.743,2.643,1.741,4.247v4.993H0Zm13-5c0,.552,.448,1,1,1s1-.448,1-1-.448-1-1-1-1,.448-1,1Zm-4,0c0,.552,.448,1,1,1s1-.448,1-1-.448-1-1-1-1,.448-1,1Zm-4,0c0,.552,.448,1,1,1s1-.448,1-1-.448-1-1-1-1,.448-1,1Z"/></svg>
