<?xml version="1.0" encoding="UTF-8"?>
<svg xmlns="http://www.w3.org/2000/svg" id="Layer_1" data-name="Layer 1" viewBox="0 0 24 24" width="512" height="512"><path d="M0,13a11.878,11.878,0,0,0,3.759,8.712A4.84,4.84,0,0,0,7.113,23H16.88a4.994,4.994,0,0,0,3.509-1.429A12,12,0,1,0,0,13Zm5.109,1.875,4.915-2.114a2,2,0,1,1,.787,1.839L5.9,16.712a1,1,0,0,1-.79-1.837Zm-2.04-2.994A8.92,8.92,0,0,1,5.636,6.636,9,9,0,0,1,18.364,19.364c-.134.134-.27.263-.411.387a1,1,0,0,1-1.324-1.5c.109-.1.217-.2.321-.3a7,7,0,0,0-9.9-9.9,6.929,6.929,0,0,0-2,4.079,1,1,0,0,1-1.985-.248Z"/></svg>
