<?xml version="1.0" encoding="UTF-8"?>
<svg xmlns="http://www.w3.org/2000/svg" id="Layer_1" data-name="Layer 1" viewBox="0 0 24 24" width="512" height="512"><path d="M21.3,20a4.527,4.527,0,0,1-4.482,4H7.178A4.527,4.527,0,0,1,2.7,20a6.021,6.021,0,0,0,6.3.2,6.159,6.159,0,0,0,6,0A6.018,6.018,0,0,0,21.3,20ZM13,3V1a1,1,0,0,0-2,0V3A1,1,0,0,0,13,3Zm4,0V1a1,1,0,0,0-2,0V3A1,1,0,0,0,17,3ZM9,3V1A1,1,0,0,0,7,1V3A1,1,0,0,0,9,3ZM24,14a2.918,2.918,0,0,1-2.513,2.949,4.027,4.027,0,0,1-6.487.7,4.038,4.038,0,0,1-6,0,4.028,4.028,0,0,1-6.488-.7A2.918,2.918,0,0,1,0,14c0-3.624,5.353-8,12-8S24,10.376,24,14ZM10.985,9.65a.526.526,0,0,0-.635-.635,5.4,5.4,0,0,0-1.967.752,1.308,1.308,0,0,0,1.85,1.85A5.4,5.4,0,0,0,10.985,9.65Zm4.632.117a5.4,5.4,0,0,0-1.967-.752.526.526,0,0,0-.635.635,5.4,5.4,0,0,0,.752,1.967A1.308,1.308,0,0,0,15.617,9.767Z"/></svg>
