<?xml version="1.0" encoding="UTF-8"?>
<svg xmlns="http://www.w3.org/2000/svg" id="Layer_1" data-name="Layer 1" viewBox="0 0 24 24" width="512" height="512"><path d="M12,8H4V4c0-2.209,1.791-4,4-4h0c2.209,0,4,1.791,4,4h1c.552,0,1,.448,1,1h0c0,.552-.448,1-1,1h-1v2Zm-2,8H6c-.552,0-1,.448-1,1h0c0,.552,.448,1,1,1h4c.552,0,1-.448,1-1h0c0-.552-.448-1-1-1Zm7-12c-.552,0-1,.448-1,1s.448,1,1,1,1-.448,1-1-.448-1-1-1Zm6,0c-.552,0-1,.448-1,1s.448,1,1,1,1-.448,1-1-.448-1-1-1Zm0-2c.552,0,1-.448,1-1s-.448-1-1-1-1,.448-1,1,.448,1,1,1Zm0,6c-.552,0-1,.448-1,1s.448,1,1,1,1-.448,1-1-.448-1-1-1Zm-3-6c-.552,0-1,.448-1,1s.448,1,1,1,1-.448,1-1-.448-1-1-1Zm0,4c-.552,0-1,.448-1,1s.448,1,1,1,1-.448,1-1-.448-1-1-1Zm-4,10v3c0,2.761-2.239,5-5,5H5c-2.761,0-5-2.239-5-5v-3c0-2.35,1.196-4.606,3.036-6H12.964c1.84,1.394,3.036,3.65,3.036,6Zm-6-2H6c-1.657,0-3,1.343-3,3h0c0,1.657,1.343,3,3,3h4c1.657,0,3-1.343,3-3h0c0-1.657-1.343-3-3-3Z"/></svg>
