<?xml version="1.0" encoding="UTF-8"?>
<svg xmlns="http://www.w3.org/2000/svg" id="Layer_1" data-name="Layer 1" viewBox="0 0 24 24" width="512" height="512"><path d="M23,24H1a1,1,0,0,1,0-2H5.071A6.991,6.991,0,0,1,5.5,20.39L1.982,18.349a1,1,0,0,1,1-1.731L6.51,18.662A7.053,7.053,0,0,1,7.662,17.51L5.618,13.985a1,1,0,0,1,1.731-1L9.39,16.5A6.991,6.991,0,0,1,11,16.071V12a1,1,0,0,1,2,0v4.071a6.97,6.97,0,0,1,1.609.433l2.042-3.522a1,1,0,1,1,1.731,1L16.338,17.51a7.047,7.047,0,0,1,1.151,1.152l3.527-2.044a1,1,0,0,1,1,1.731L18.5,20.39A6.894,6.894,0,0,1,18.929,22H23A1,1,0,0,1,23,24ZM8.3,5.708l3,3a1,1,0,0,0,1.414,0l3-3A1,1,0,0,0,14.3,4.293L13,5.586V1a1,1,0,0,0-2,0V5.586L9.7,4.293A1,1,0,0,0,8.291,5.708h0Z"/></svg>
