<?xml version="1.0" encoding="UTF-8"?>
<svg xmlns="http://www.w3.org/2000/svg" id="Layer_1" data-name="Layer 1" viewBox="0 0 24 24" width="512" height="512"><path d="M20.305,14.167s-.62-.141-.754-.447c-2.433-5.662-10.282-4.328-11.377.833-.426.955.274,2.322-.59,3.016a3.5,3.5,0,0,0,1.161,6.347A3.7,3.7,0,0,0,9.428,24h4.385l1.87-3H13.614a1.616,1.616,0,0,1-1.546-2.082c.025-.083,2.08-3.443,2.08-3.443a1,1,0,1,1,1.7,1.049L14.327,19H16.4a1.6,1.6,0,0,1,1.337,2.489L16.176,24h3.213a4.066,4.066,0,0,0,1.9-.42,5.169,5.169,0,0,0,2.577-3.408A5.013,5.013,0,0,0,20.305,14.167Zm-3.88-8.3-2.25,1.288a5.64,5.64,0,0,1,.233.871,8.152,8.152,0,0,0-1.025,0,7.658,7.658,0,0,0-2.126.448,7.965,7.965,0,0,0-4.936,5.312,4.833,4.833,0,0,1-1.5-1.221l-2.25,1.3a1,1,0,1,1-1-1.732l2.25-1.3A5.437,5.437,0,0,1,3.6,10H1A1,1,0,0,1,1,8H3.6a5.362,5.362,0,0,1,.213-.8L1.551,5.915A1,1,0,1,1,2.54,4.177L4.8,5.46a5.474,5.474,0,0,1,.636-.638l-1.3-2.25a1,1,0,0,1,1.732-1l1.3,2.25A5.437,5.437,0,0,1,8,3.6V1a1,1,0,0,1,2,0V3.6a5.407,5.407,0,0,1,.8.213l1.283-2.257a1,1,0,0,1,1.739.988L12.54,4.8a5.585,5.585,0,0,1,.631.628l2.26-1.293a1,1,0,0,1,.994,1.736Z"/></svg>
