<?xml version="1.0" encoding="UTF-8"?>
<svg xmlns="http://www.w3.org/2000/svg" id="Layer_1" data-name="Layer 1" viewBox="0 0 24 24" width="512" height="512"><path d="M21,23a4.375,4.375,0,0,1-3-1.225,4.336,4.336,0,0,1-6,0,4.336,4.336,0,0,1-6,0,4.186,4.186,0,0,1-5.668.2,1,1,0,1,1,1.335-1.489,2.2,2.2,0,0,0,3.39-.822A1,1,0,0,1,6,19H6a1,1,0,0,1,.943.667,2.278,2.278,0,0,0,4.114,0A1,1,0,0,1,12,19h0a1,1,0,0,1,.943.667,2.278,2.278,0,0,0,4.114,0A1,1,0,0,1,18,19h0a1,1,0,0,1,.943.667,2.2,2.2,0,0,0,3.389.823,1,1,0,0,1,1.336,1.487A3.981,3.981,0,0,1,21,23Zm0-6a4.375,4.375,0,0,1-3-1.225,4.336,4.336,0,0,1-6,0,4.336,4.336,0,0,1-6,0,4.186,4.186,0,0,1-5.668.2,1,1,0,1,1,1.335-1.489,2.2,2.2,0,0,0,3.39-.822A1,1,0,0,1,6,13H6a1,1,0,0,1,.943.667,2.278,2.278,0,0,0,4.114,0A1,1,0,0,1,12,13h0a1,1,0,0,1,.943.667,2.278,2.278,0,0,0,4.114,0A1,1,0,0,1,18,13h0a1,1,0,0,1,.943.667,2.2,2.2,0,0,0,3.389.823,1,1,0,0,1,1.336,1.487A3.981,3.981,0,0,1,21,17Zm0-6a4.375,4.375,0,0,1-3-1.225,4.336,4.336,0,0,1-6,0,4.336,4.336,0,0,1-6,0,4.186,4.186,0,0,1-5.668.2A1,1,0,1,1,1.667,8.489a2.2,2.2,0,0,0,3.39-.822A1,1,0,0,1,6,7H6a1,1,0,0,1,.943.667,2.278,2.278,0,0,0,4.114,0A1,1,0,0,1,12,7h0a1,1,0,0,1,.943.667,2.278,2.278,0,0,0,4.114,0A1,1,0,0,1,18,7h0a1,1,0,0,1,.943.667,2.2,2.2,0,0,0,3.389.823,1,1,0,0,1,1.336,1.487A3.981,3.981,0,0,1,21,11Zm0-6a4.375,4.375,0,0,1-3-1.225,4.336,4.336,0,0,1-6,0,4.336,4.336,0,0,1-6,0,4.186,4.186,0,0,1-5.668.2A1,1,0,1,1,1.667,2.489a2.2,2.2,0,0,0,3.39-.822A1,1,0,0,1,6,1H6a1,1,0,0,1,.943.667,2.278,2.278,0,0,0,4.114,0A1,1,0,0,1,12,1h0a1,1,0,0,1,.943.667,2.278,2.278,0,0,0,4.114,0A1,1,0,0,1,18,1h0a1,1,0,0,1,.943.667,2.2,2.2,0,0,0,3.389.823,1,1,0,1,1,1.336,1.487A3.981,3.981,0,0,1,21,5Z"/></svg>
