<?xml version="1.0" encoding="UTF-8"?>
<svg xmlns="http://www.w3.org/2000/svg" id="Layer_1" data-name="Layer 1" viewBox="0 0 24 24" width="512" height="512"><path d="M.293,23.707c.391,.391,1.023,.391,1.414,0l1.077-1.077,1.726-1.726,2.786,2.786c.241,.243,.593,.343,.924,.27,.333-.074,.606-.313,.723-.635l3.263-8.969c.268-.738,.09-1.541-.466-2.097-.554-.555-1.356-.734-2.096-.464L.676,15.057c-.321,.116-.561,.39-.635,.723-.073,.334,.027,.683,.27,.924l2.786,2.786-1.726,1.726-1.077,1.077c-.391,.391-.391,1.023,0,1.414ZM14.992,15.004c-.212-.511,.03-1.096,.54-1.308,3.997-1.64,2.79-7.707-1.532-7.696-1.626,0-3.078,.971-3.699,2.474-.211,.512-.797,.753-1.306,.542-.511-.211-.753-.795-.542-1.306,.931-2.254,3.108-3.71,5.547-3.71,6.511,.034,8.3,9.03,2.299,11.544-.125,.052-.255,.076-.383,.076-.392,0-.764-.231-.924-.616Zm-1.992,3.996c0-.553,.448-1,1-1,10.588-.376,10.586-15.626,0-16-4.411,0-8,3.589-8,8,0,.553-.447,1-1,1s-1-.447-1-1C4,4.486,8.486,0,14,0c13.248,.503,13.245,19.499,0,20-.552,0-1-.447-1-1Z"/></svg>
