<?xml version="1.0" encoding="UTF-8"?>
<svg xmlns="http://www.w3.org/2000/svg" id="Layer_1" data-name="Layer 1" viewBox="0 0 24 24" width="512" height="512"><path d="M14,7V.46c.913,.346,1.753,.879,2.465,1.59l3.484,3.486c.712,.711,1.245,1.551,1.591,2.464h-6.54c-.552,0-1-.449-1-1Zm1.5,8h-7c-.276,0-.5,.224-.5,.5v2c0,.276,.224,.5,.5,.5h7c.276,0,.5-.224,.5-.5v-2c0-.276-.224-.5-.5-.5Zm6.5-4.515v8.515c0,2.757-2.243,5-5,5H7c-2.757,0-5-2.243-5-5V5C2,2.243,4.243,0,7,0h4.515c.163,0,.324,.013,.485,.024V7c0,1.654,1.346,3,3,3h6.976c.011,.161,.024,.322,.024,.485ZM6,6c0,.552,.448,1,1,1h2c.552,0,1-.448,1-1s-.448-1-1-1h-2c-.552,0-1,.448-1,1Zm0,4c0,.552,.448,1,1,1h2c.552,0,1-.448,1-1s-.448-1-1-1h-2c-.552,0-1,.448-1,1Zm12,5.5c0-1.378-1.122-2.5-2.5-2.5h-7c-1.378,0-2.5,1.122-2.5,2.5v2c0,1.378,1.122,2.5,2.5,2.5h7c1.378,0,2.5-1.122,2.5-2.5v-2Z"/></svg>
