<?xml version="1.0" encoding="UTF-8"?>
<svg xmlns="http://www.w3.org/2000/svg" id="Layer_1" data-name="Layer 1" viewBox="0 0 24 24" width="512" height="512"><path d="M14,24a1,1,0,0,1-.929-1.372l2-5a1,1,0,0,1,1.858.744l-2,5A1,1,0,0,1,14,24Zm-3.071-.628,2-5a1,1,0,0,0-1.858-.744l-2,5a1,1,0,0,0,.557,1.3A1.015,1.015,0,0,0,10,24,1,1,0,0,0,10.929,23.372Zm-4,0,2-5a1,1,0,1,0-1.858-.744l-2,5a1,1,0,0,0,.557,1.3A1.015,1.015,0,0,0,6,24,1,1,0,0,0,6.929,23.372ZM24,12.5A7.508,7.508,0,0,1,18.548,19.7l.238-.595A2.987,2.987,0,0,0,14,15.774a2.944,2.944,0,0,0-4,0,2.973,2.973,0,0,0-4.787,1.106L4.049,19.8A5.539,5.539,0,0,1,1.8,10.425a.994.994,0,0,0,.345-.9,8.153,8.153,0,0,1-.033-2.89A7.945,7.945,0,0,1,8.5.133a8.058,8.058,0,0,1,8.734,4.439,1.04,1.04,0,0,0,.743.569A7.515,7.515,0,0,1,24,12.5ZM16,9a1,1,0,0,0-1-1H13.226l.882-1.539a1,1,0,1,0-1.734-1L11.5,6.989l-.873-1.523a1,1,0,0,0-1.735,1L9.774,8H8a1,1,0,0,0,0,2H9.774l-.882,1.539a1,1,0,0,0,1.735,1l.873-1.523.874,1.523a1,1,0,1,0,1.734-1L13.226,10H15A1,1,0,0,0,16,9Z"/></svg>
