<?xml version="1.0" encoding="UTF-8"?>
<svg xmlns="http://www.w3.org/2000/svg" id="Layer_1" data-name="Layer 1" viewBox="0 0 24 24" width="512" height="512"><path d="M17.914,5.132a1.033,1.033,0,0,1-.683-.555C13.1-3.756.516.231,2.146,9.528a1,1,0,0,1-.345.9A5.54,5.54,0,0,0,2.214,18.9a.988.988,0,0,0,1.524-.486,5.5,5.5,0,0,1,10.554.08A2.063,2.063,0,0,0,16.5,20C25.123,20.017,27.132,7.12,17.914,5.132ZM17,11H15.726l.633,1.105a1,1,0,1,1-1.734.995L14,12.01l-.625,1.09a1,1,0,1,1-1.734-.995L12.274,11H11a1,1,0,0,1,0-2h1.274L11.641,7.9A1,1,0,1,1,13.375,6.9L14,7.99l.625-1.09a1,1,0,1,1,1.734.995L15.726,9H17A1,1,0,0,1,17,11Zm-4,9a1,1,0,0,1-1,1H10.726l.633,1.105a1,1,0,1,1-1.734,1L9,22.01,8.375,23.1a1,1,0,1,1-1.734-1L7.274,21H6a1,1,0,0,1,0-2H7.274L6.641,17.9a1,1,0,1,1,1.734-1L9,17.99l.625-1.09a1,1,0,1,1,1.734,1L10.726,19H12A1,1,0,0,1,13,20Z"/></svg>
