<?xml version="1.0" encoding="UTF-8"?>
<svg xmlns="http://www.w3.org/2000/svg" id="Layer_1" data-name="Layer 1" viewBox="0 0 24 24" width="512" height="512"><path d="M12,0A9,9,0,0,0,8.054,17.086a4.962,4.962,0,0,0,1.41,2.792L11,21.414V23a1,1,0,0,0,2,0V21.414l1.535-1.536a4.959,4.959,0,0,0,1.41-2.792A9,9,0,0,0,12,0Zm3,5a1,1,0,1,1-1,1A1,1,0,0,1,15,5ZM13,8a1,1,0,1,1-1,1A1,1,0,0,1,13,8Zm-2,3a1,1,0,1,1-1,1A1,1,0,0,1,11,11Zm2.121,7.464L12,19.586l-1.122-1.122a3.022,3.022,0,0,1-.8-1.464h3.85A3.016,3.016,0,0,1,13.121,18.464ZM15,13a1,1,0,1,1,1-1A1,1,0,0,1,15,13Zm2-3a1,1,0,1,1,1-1A1,1,0,0,1,17,10Z"/></svg>
