<?xml version="1.0" encoding="UTF-8"?>
<svg xmlns="http://www.w3.org/2000/svg" id="Layer_1" data-name="Layer 1" viewBox="0 0 24 24" width="512" height="512"><path d="M4.999,.005C2.238,.005,0,2.243,0,5.004H0C0,6.66,1.343,8.003,2.999,8.003H20.996c1.579,.019,2.897-1.201,2.999-2.776C24.116,2.466,21.975,.13,19.214,.01c-.073-.003-14.215-.005-14.215-.005ZM21.996,10.003H2c-.552,0-1,.448-1,1v7.998c.003,2.759,2.24,4.996,4.999,4.999h11.998c2.759-.003,4.996-2.24,4.999-4.999v-7.998c0-.552-.448-1-1-1Zm-4.314,4.729l-4.74,4.414c-.541,.542-1.294,.854-2.096,.854s-1.555-.312-2.122-.879l-2.429-2.411c-.392-.39-.394-1.022-.005-1.414,.39-.393,1.021-.395,1.415-.006l2.432,2.414c.383,.385,1.039,.382,1.416,.003l4.766-4.438c.403-.376,1.038-.354,1.413,.05,.377,.404,.354,1.037-.05,1.413Z"/></svg>
