<?xml version="1.0" encoding="UTF-8"?>
<!-- Generator: Adobe Illustrator 24.3.0, SVG Export Plug-In . SVG Version: 6.00 Build 0)  -->
<svg xmlns="http://www.w3.org/2000/svg" xmlns:xlink="http://www.w3.org/1999/xlink" version="1.1" id="Layer_1" x="0px" y="0px" viewBox="0 0 512 512" style="enable-background:new 0 0 512 512;" xml:space="preserve" width="512" height="512">
<path d="M256,0.828C114.683,0.993,0.165,115.511,0,256.828c12.8,339.2,499.2,339.051,512,0C511.847,115.506,397.322,0.981,256,0.828  z M155.904,191.185h64c11.782,0,21.333,9.551,21.333,21.333c0,11.782-9.551,21.333-21.333,21.333h-64  c-11.782,0-21.333-9.551-21.333-21.333C134.571,200.737,144.122,191.185,155.904,191.185z M387.2,330.748  c-25.506,44.966-72.938,73.042-124.629,73.771c-51.727-0.722-99.199-28.793-124.757-73.771c-6.356-9.921-3.466-23.116,6.455-29.471  c4.713-3.02,10.425-4.066,15.902-2.913c32.804,12.359,67.374,19.388,102.4,20.821c34.968-1.451,69.479-8.48,102.229-20.821  c11.524-2.454,22.855,4.898,25.309,16.422C391.279,320.282,390.234,326.018,387.2,330.748z M347.904,233.852  c-23.573,0-42.667,0-42.667-21.333c0-23.564,19.103-42.667,42.667-42.667s42.667,19.103,42.667,42.667  C390.571,233.852,371.477,233.852,347.904,233.852z"/>
</svg>
