<?xml version="1.0" encoding="UTF-8"?>
<svg xmlns="http://www.w3.org/2000/svg" id="Layer_1" data-name="Layer 1" viewBox="0 0 24 24" width="512" height="512"><path d="M22.5,14H1.5a7.109,7.109,0,0,1,.423-.88L3.98,9.52A5.013,5.013,0,0,1,8.321,7h7.358A5.011,5.011,0,0,1,20.02,9.52l2.057,3.6A7.116,7.116,0,0,1,22.5,14ZM19,16v1a1,1,0,0,1-2,0V16H7v1a1,1,0,0,1-2,0V16H1.026Q1,16.3,1,16.594V18a4,4,0,0,0,2,3.463V22a2,2,0,0,0,4,0H17a2,2,0,0,0,4,0v-.537A4,4,0,0,0,23,18V16.594q0-.3-.026-.594ZM23,4H22a1,1,0,0,1,0-2h1c.673,0,.625-.448.493-.649A3.015,3.015,0,0,0,18.167,2H5.845A3.015,3.015,0,0,0,.519,1.351C0,2.283,1.926,1.939,2.012,2a1,1,0,0,1,0,2h-1c-.673,0-.625.448-.493.649A3.015,3.015,0,0,0,5.845,4H18.167a3.015,3.015,0,0,0,5.326.649C23.625,4.448,23.673,4,23,4Z"/></svg>
