<?xml version="1.0" encoding="UTF-8"?>
<svg xmlns="http://www.w3.org/2000/svg" id="Layer_1" data-name="Layer 1" viewBox="0 0 24 24" width="512" height="512"><path d="M16,24a5.017,5.017,0,0,1-2.336-.578,6.271,6.271,0,0,1-5.536-.152.586.586,0,0,0-.571.027A5.028,5.028,0,0,1,.134,17.829a4.947,4.947,0,0,1,3.677-3.69,5.07,5.07,0,0,1,2.375,0,.276.276,0,0,0,.282-.074,6.034,6.034,0,0,1,8.8-.288c.065.067.217.22.734.22a4.984,4.984,0,0,1,3.9,1.874.4.4,0,0,0,.193.149,3.62,3.62,0,0,1,1.437.128,3.445,3.445,0,0,1,2.349,2.435,3.5,3.5,0,0,1-4.343,4.279c-.275-.077-.331-.03-.356-.01A4.929,4.929,0,0,1,16,24ZM3.356,12.191a7.109,7.109,0,0,1,2.318-.16A8.044,8.044,0,0,1,16.3,12.007a6.97,6.97,0,0,1,4.616,2.009,5.689,5.689,0,0,1,1.181.216,5.382,5.382,0,0,1,1.513.732,4.556,4.556,0,0,0,.232-.714,5.383,5.383,0,0,0,.069-2.2,5.048,5.048,0,0,0-6.3-3.862,6.013,6.013,0,0,0-9.842.895,3.864,3.864,0,0,0-1.828.07,4.05,4.05,0,0,0-2.707,2.511,2.551,2.551,0,0,0-.087.6C3.216,12.238,3.283,12.208,3.356,12.191ZM1.45,10.749A6.048,6.048,0,0,1,5.4,7.223,5.934,5.934,0,0,1,6.772,7,8.014,8.014,0,0,1,18.307,6.03,7.046,7.046,0,0,1,22.97,7.245a2.955,2.955,0,0,0-.362-1.728,3.042,3.042,0,0,0-1.974-1.45.925.925,0,0,1-.561-.289,4.572,4.572,0,0,0-5.131-1.5,5.51,5.51,0,0,0-9.35.767c-.026.053-.062.079-.052.083a4.346,4.346,0,0,0-2.474.113A4.524,4.524,0,0,0,.043,6.87,4.972,4.972,0,0,0,.434,9.43,3.208,3.208,0,0,0,1.45,10.749Z"/></svg>
