<?xml version="1.0" encoding="UTF-8"?>
<svg xmlns="http://www.w3.org/2000/svg" id="Layer_1" data-name="Layer 1" viewBox="0 0 24 24" width="512" height="512"><path d="M12.836,.029C9.367-.206,5.961,1.065,3.509,3.521S-.211,9.378,.03,12.854c.44,6.354,6.052,11.146,13.053,11.146h5.917c2.757,0,5-2.243,5-5v-6.66C24,5.861,19.097,.454,12.836,.029Zm3.871,14.56l-2.535,2.535c-.585,.585-1.354,.877-2.122,.877h-.05c-.021,0-.042-.001-.064-.003-.73-.027-1.452-.318-2.007-.874l-2.636-2.636c-.391-.39-.391-1.023,0-1.414s1.023-.391,1.414,0l2.293,2.293V7c0-.552,.448-1,1-1s1,.448,1,1V15.467l2.293-2.293c.391-.391,1.023-.391,1.414,0s.391,1.023,0,1.414Z"/></svg>
