<?xml version="1.0" encoding="UTF-8"?>
<svg xmlns="http://www.w3.org/2000/svg" id="Layer_1" data-name="Layer 1" viewBox="0 0 24 24" width="512" height="512"><path d="M6,16H22.003l-.002,3.005c-.105,3.941-5.87,3.953-5.988,.013l-4.025-.018c.009,.796-.302,1.551-.868,2.119-1.776,1.892-5.198,.487-5.119-2.116v-3.003Zm17.752-5.341c-.365,.417-.997,.456-1.411,.093l-.335-.294-.002,3.542H5.735l-.92-3.876c-1.772,.81-2.783,1.332-4.132,.173-.91-.91-.91-2.387,0-3.297L3.481,3.265c.156-.188,.332-.353,.519-.502v-.763c.006-1.308,1.994-1.307,2,0v.019c.334-.05,.674,.018,1,.094v-.113c.006-1.308,1.994-1.307,2,0v1.25l2.333,1.75h5.672c1.472,0,2.784,.652,3.7,1.669,.01,.008,.022,.01,.031,.018l2.922,2.561c.416,.364,.457,.996,.093,1.411ZM8.956,3.217l.005,.003c-.002-.008-.003-.01-.005-.003Zm1.044,6.783c-.006-1.308-1.994-1.308-2,0,.006,1.308,1.994,1.308,2,0Zm4,0c-.006-1.308-1.994-1.308-2,0,.006,1.308,1.994,1.308,2,0Zm4,0c-.006-1.308-1.994-1.308-2,0,.006,1.308,1.994,1.308,2,0Z"/></svg>
