<?xml version="1.0" encoding="UTF-8"?>
<svg xmlns="http://www.w3.org/2000/svg" id="Layer_1" data-name="Layer 1" viewBox="0 0 24 24" width="512" height="512"><path d="M17.847,9.149c.49,1.106-.234,2.9-1.347,2.851-1.113.045-1.838-1.745-1.347-2.851A1.505,1.505,0,0,0,17.847,9.149ZM9,10a2.487,2.487,0,0,0-.153-.851,1.505,1.505,0,0,1-2.694,0C5.218,11.952,8.737,13.405,9,10Zm15,2A12.013,12.013,0,0,1,12,24C-3.9,23.4-3.894.6,12,0A12.013,12.013,0,0,1,24,12ZM7.5,14c4.612-.129,4.611-7.872,0-8C2.888,6.129,2.889,13.872,7.5,14ZM17,17a1,1,0,0,0-1-1H8a1,1,0,0,0,0,2h8A1,1,0,0,0,17,17Zm3-7c-.128-5.278-6.872-5.277-7,0C13.128,15.278,19.872,15.277,20,10Z"/></svg>
