<?xml version="1.0" encoding="UTF-8"?>
<svg xmlns="http://www.w3.org/2000/svg" id="Layer_1" data-name="Layer 1" viewBox="0 0 24 24" width="512" height="512"><path d="M12,0A12.013,12.013,0,0,0,0,12c.6,15.9,23.4,15.893,24,0A12.013,12.013,0,0,0,12,0ZM6,12a1.007,1.007,0,0,1-.707-1.707L6.586,9,5.293,7.707A1,1,0,0,1,6.707,6.293L8,7.586,9.293,6.293a1,1,0,0,1,1.414,1.414L9.414,9l1.293,1.293a1,1,0,0,1-1.414,1.414L8,10.414,6.707,11.707A1,1,0,0,1,6,12Zm6,8a3,3,0,0,1,0-6A3,3,0,0,1,12,20Zm6.707-9.707a1,1,0,0,1-1.414,1.414L16,10.414l-1.293,1.293a1,1,0,0,1-1.414-1.414L14.586,9,13.293,7.707a1,1,0,0,1,1.414-1.414L16,7.586l1.293-1.293a1,1,0,0,1,1.414,1.414L17.414,9Z"/></svg>
