<?xml version="1.0" encoding="UTF-8"?>
<svg xmlns="http://www.w3.org/2000/svg" id="Layer_1" data-name="Layer 1" viewBox="0 0 24 24" width="512" height="512"><path d="M15.364,2.636C13.519,.791,10.96-.158,8.349,.023,3.823,.342,0,4.588,0,9.294v5.04c0,2.532,1.507,3.666,3,3.666h5.703c4.708,0,8.955-3.823,9.274-8.349,.185-2.613-.768-5.17-2.613-7.015ZM7.644,7.76l3.042,.507c1.341,.223,2.315,1.373,2.315,2.733,0,1.654-1.346,3-3,3v1c0,.553-.448,1-1,1s-1-.447-1-1v-1h-.268c-1.068,0-2.063-.574-2.598-1.499-.276-.478-.113-1.089,.365-1.366,.477-.277,1.089-.114,1.366,.365,.178,.308,.511,.5,.867,.5h2.268c.551,0,1-.449,1-1,0-.378-.271-.698-.644-.76l-3.042-.507c-1.341-.223-2.315-1.373-2.315-2.733,0-1.654,1.346-3,3-3v-1c0-.552,.448-1,1-1s1,.448,1,1v1h.268c1.067,0,2.063,.575,2.598,1.5,.276,.478,.113,1.089-.365,1.366-.477,.277-1.09,.113-1.366-.365-.179-.309-.511-.5-.867-.5h-2.268c-.551,0-1,.449-1,1,0,.378,.271,.698,.644,.76Zm16.356,8.24v5c0,1.657-1.343,3-3,3h-5c-2.955,0-5.535-1.615-6.92-4.004l.004-.004c5.564-.202,10.507-4.79,10.888-10.2,.017-.237,.025-.474,.026-.71,2.388,1.386,4.001,3.965,4.001,6.918Z"/></svg>
