<?xml version="1.0" encoding="UTF-8"?>
<svg xmlns="http://www.w3.org/2000/svg" id="Layer_1" data-name="Layer 1" viewBox="0 0 24 24" width="512" height="512"><path d="M4.395,16.061c-.87,.104-1.696,.437-2.395,.964V5c0-2.376,1.672-4.425,4-4.9v15.9h-1c-.203,0-.406,.02-.605,.061Zm-2.395,4.939c0,1.657,1.343,3,3,3h11v-6H5c-1.657,0-3,1.343-3,3Zm14,3h1c2.761,0,5-2.239,5-5v-1h-6v6ZM17,0H8V16h7v-6.4l-1.293,1.293c-.391,.391-1.023,.391-1.414,0s-.391-1.023,0-1.414l1.613-1.613c1.153-1.154,3.03-1.154,4.188,0l1.613,1.614c.391,.391,.391,1.023,0,1.414-.195,.195-.451,.293-.707,.293s-.512-.098-.707-.293l-1.293-1.293v6.4h5V5c0-2.761-2.239-5-5-5Z"/></svg>
