<?xml version="1.0" encoding="UTF-8"?>
<svg xmlns="http://www.w3.org/2000/svg" id="Layer_1" data-name="Layer 1" viewBox="0 0 24 24" width="512" height="512"><path d="M0,7v-1C0,3.243,2.243,1,5,1h2.528c.463,0,.927,.109,1.341,.316l3.156,1.578c.138,.069,.292,.105,.446,.105h6.528c2.414,0,4.434,1.721,4.899,4H0Zm24,2v9c0,2.757-2.243,5-5,5H5c-2.757,0-5-2.243-5-5V9H24Zm-7,7c-.167-6.594-9.834-6.593-10,0,.167,6.594,9.834,6.593,10,0Zm-3.293,1.707c.391-.391,.391-1.023,0-1.414l-.707-.707v-1.586c-.005-1.308-1.995-1.307-2,0v2c0,.266,.105,.52,.293,.707l1,1c.195,.195,.451,.293,.707,.293s.512-.098,.707-.293Z"/></svg>
