<?xml version="1.0" encoding="UTF-8"?>
<svg xmlns="http://www.w3.org/2000/svg" id="Layer_1" data-name="Layer 1" viewBox="0 0 24 24" width="512" height="512"><path d="M1.767,12H22.233l1.7-8.034a2.719,2.719,0,0,0-.691-2.5A2.69,2.69,0,0,0,20.81.682S19.252,1,19,1A6.307,6.307,0,0,1,17.146.254,3,3,0,0,0,14.878.192,12.355,12.355,0,0,1,12,1,12.354,12.354,0,0,1,9.123.193a3,3,0,0,0-2.267.06A6.316,6.316,0,0,1,5,1C4.748,1,3.192.683,3.192.683a2.683,2.683,0,0,0-2.431.782A2.711,2.711,0,0,0,.066,3.948ZM15,4a1,1,0,0,1,2,0V9a1,1,0,0,1-2,0ZM7,4A1,1,0,0,1,9,4V9A1,1,0,0,1,7,9ZM8,21a3,3,0,0,1-6,0A3,3,0,0,1,8,21Zm14,0a3,3,0,0,1-6,0A3,3,0,0,1,22,21Zm0-7v3a5.033,5.033,0,0,0-8,4H10a5.032,5.032,0,0,0-8-4V14Z"/></svg>
