<?xml version="1.0" encoding="UTF-8"?>
<svg xmlns="http://www.w3.org/2000/svg" id="Layer_1" data-name="Layer 1" viewBox="0 0 24 24" width="512" height="512"><path d="M13,2.046V1c0-.552-.448-1-1-1s-1,.448-1,1v1.046C5.401,2.553,1,7.272,1,13c0,2.738,1.006,5.246,2.668,7.173-.846,.448-1.668,1.317-1.668,2.827,0,.552,.448,1,1,1s1-.448,1-1c0-1,.858-1.194,1.11-1.229,.07-.008,.138-.023,.203-.044,1.854,1.424,4.173,2.272,6.687,2.272s4.835-.849,6.689-2.274c.06,.021,.124,.036,.189,.045,.263,.036,1.122,.229,1.122,1.229,0,.552,.448,1,1,1s1-.448,1-1c0-1.51-.821-2.378-1.668-2.827,1.662-1.927,2.668-4.435,2.668-7.173,0-5.728-4.401-10.447-10-10.954Zm3,11.954h-3v3c0,.552-.448,1-1,1s-1-.448-1-1v-3h-3c-.552,0-1-.448-1-1s.448-1,1-1h3v-3c0-.552,.448-1,1-1s1,.448,1,1v3h3c.552,0,1,.448,1,1s-.448,1-1,1ZM24,4.5c0,.552-.448,1-1,1s-1-.448-1-1c0-1.212-.976-2.5-2.785-2.5-.552,0-1-.448-1-1s.448-1,1-1c2.683,0,4.785,1.977,4.785,4.5ZM1,5.5c-.552,0-1-.448-1-1C0,1.977,2.102,0,4.785,0c.552,0,1,.448,1,1s-.448,1-1,1c-1.809,0-2.785,1.288-2.785,2.5,0,.552-.448,1-1,1Z"/></svg>
