<?xml version="1.0" encoding="UTF-8"?>
<svg xmlns="http://www.w3.org/2000/svg" id="Layer_1" data-name="Layer 1" viewBox="0 0 24 24" width="512" height="512"><path d="M10,16a2,2,0,1,1-2-2A2,2,0,0,1,10,16Zm14-5.5v1.248a2.5,2.5,0,0,1-2.054,2.46l-5.161.938A1,1,0,0,0,16,16.152a7.9,7.9,0,0,1-.806,3.287A7.956,7.956,0,0,1,9.285,23.9a8.264,8.264,0,0,1-1.279.1,8,8,0,0,1-7.984-8.6A8.152,8.152,0,0,1,8.229,8H21.5A2.5,2.5,0,0,1,24,10.5ZM12,16a4,4,0,1,0-4,4A4,4,0,0,0,12,16ZM11,4V1A1,1,0,0,0,9,1V4a1,1,0,0,0,2,0Zm3.4,1.447,1.5-3a1,1,0,0,0-1.79-.894l-1.5,3a1,1,0,1,0,1.789.894Zm-7.428.446a1,1,0,0,0,.441-1.344l-1.516-3a1,1,0,1,0-1.786.9l1.517,3A1,1,0,0,0,6.518,6,1.011,1.011,0,0,0,6.968,5.893Z"/></svg>
