<?xml version="1.0" encoding="UTF-8"?>
<svg xmlns="http://www.w3.org/2000/svg" id="Layer_1" data-name="Layer 1" viewBox="0 0 24 24" width="512" height="512"><path d="M14.971,6.578c.817-.681,1.975-.627,2.711,.111l.475,.479,4.962-4.994c-.902-1.312-2.411-2.175-4.119-2.175h-6c-2.757,0-5,2.243-5,5v4c0,1.057,.334,2.035,.896,2.843l6.075-5.265Zm-3.484-4.463c.828,0,1.5,.672,1.5,1.5s-.672,1.5-1.5,1.5-1.5-.672-1.5-1.5,.672-1.5,1.5-1.5Zm12.513,2.885v4c0,2.757-2.243,5-5,5h-6c-.974,0-1.877-.291-2.646-.775l5.909-5.126,.476,.48c.779,.779,2.049,.779,2.83-.002l4.351-4.374c.042,.261,.081,.524,.081,.797Zm-7,11c-.552,0-1,.448-1,1v1h-2v-1c0-.558-.455-.999-1.012-1-3.263-.006-5.995-2.245-6.764-5.27-.11-.434-.511-.73-.958-.73h-.766c-2.485,0-4.5,2.015-4.5,4.5v5c0,2.485,2.015,4.5,4.5,4.5H13.5c2.485,0,4.5-2.015,4.5-4.5v-2.5c0-.552-.448-1-1-1Zm-15,0h2v2H2v-2Zm2-3.95v1.95h-1.945c.2-.977,.968-1.75,1.945-1.95Zm-1.945,7.95h1.945v1.95c-.978-.199-1.745-.972-1.945-1.95Zm11.945,1.949v-1.949h1.945c-.2,.977-.968,1.75-1.945,1.949Z"/></svg>
