<?xml version="1.0" encoding="UTF-8"?>
<svg xmlns="http://www.w3.org/2000/svg" id="Layer_1" data-name="Layer 1" viewBox="0 0 24 24" width="512" height="512"><path d="M20.5,15H12.5c-1.93,0-3.5,1.57-3.5,3.5s1.57,3.5,3.5,3.5h8c1.93,0,3.5-1.57,3.5-3.5s-1.57-3.5-3.5-3.5Zm0,5h-4.5v-3h4.5c.827,0,1.5,.673,1.5,1.5s-.673,1.5-1.5,1.5ZM12.5,9h8c1.93,0,3.5-1.57,3.5-3.5s-1.57-3.5-3.5-3.5H12.5c-1.93,0-3.5,1.57-3.5,3.5s1.57,3.5,3.5,3.5Zm6.5-5h1.5c.827,0,1.5,.673,1.5,1.5s-.673,1.5-1.5,1.5h-1.5v-3ZM1,3C1,1.346,2.346,0,4,0s3,1.346,3,3-1.346,3-3,3S1,4.654,1,3Zm6.937,6.649c.115,.307,.072,.65-.115,.92-.187,.27-.494,.431-.822,.431H1c-.328,0-.635-.161-.822-.431-.187-.27-.229-.613-.115-.92,.594-1.585,2.176-2.649,3.937-2.649s3.343,1.064,3.937,2.649Zm-3.937,9.351c-1.654,0-3-1.346-3-3s1.346-3,3-3,3,1.346,3,3-1.346,3-3,3Zm3.937,3.649c.115,.307,.072,.65-.115,.92-.187,.27-.494,.431-.822,.431H1c-.328,0-.635-.161-.822-.431-.187-.27-.229-.613-.115-.92,.594-1.585,2.176-2.649,3.937-2.649s3.343,1.064,3.937,2.649Z"/></svg>
