<?xml version="1.0" encoding="UTF-8"?>
<svg xmlns="http://www.w3.org/2000/svg" id="Layer_1" data-name="Layer 1" viewBox="0 0 24 24" width="512" height="512"><path d="M23.5,10.57c.316,.665,.5,1.392,.5,2.137v6.292c0,2.757-2.243,5-5,5H5c-2.757,0-5-2.243-5-5v-6.292c0-.746,.184-1.472,.5-2.137l7.965,7.966c1.862,1.939,5.21,1.94,7.071,0l7.965-7.966Zm-2.5-6.57v6.242l-6.879,6.879c-1.133,1.133-3.109,1.133-4.243,0L3,10.243V4C3,1.794,4.794,0,7,0h10c2.206,0,4,1.794,4,4Zm-5,6c0-1.36-.974-2.51-2.315-2.733l-3.042-.507c-1.086-.211-.64-1.825,.356-1.76h2.268c.356,0,.688,.192,.867,.5,.277,.479,.89,.642,1.366,.365,.479-.277,.642-.888,.365-1.366-.535-.925-1.531-1.5-2.598-1.5h-.268c-.006-1.308-1.994-1.307-2,0-3.435-.019-4.184,5.084-.685,5.733l3.042,.507c1.086,.211,.64,1.825-.356,1.76h-2.268c-.356,0-.688-.192-.867-.5-.277-.479-.89-.643-1.366-.365-1.533,1.221,.913,2.989,2.233,2.865h.268c.006,1.308,1.994,1.307,2,0,1.654,0,3-1.346,3-3Z"/></svg>
