<?xml version="1.0" encoding="UTF-8"?>
<svg xmlns="http://www.w3.org/2000/svg" id="Layer_1" data-name="Layer 1" viewBox="0 0 24 24" width="512" height="512"><path d="M23.999,8c0-1.271-.583-2.439-1.6-3.205-1.007-.757-2.274-.991-3.481-.644-.857,.248-1.848,.349-3.418,.349-1.366,0-2.639-.347-3.987-.715-1.415-.386-2.879-.785-4.513-.785-1.159,0-2.427,.259-3.768,.771C1.298,4.508-.002,6.389-.002,8.452v7.548c0,1.271,.584,2.439,1.601,3.205,1.006,.757,2.274,.991,3.481,.644,.857-.248,1.849-.349,3.42-.349,1.366,0,2.639,.347,3.985,.715,1.415,.386,2.879,.785,4.513,.785,1.159,0,2.427-.259,3.768-.771,1.935-.737,3.234-2.618,3.234-4.681v-7.548ZM5,15c-.552,0-1-.448-1-1s.448-1,1-1,1,.448,1,1-.448,1-1,1Zm0-6c-.552,0-1-.448-1-1s.448-1,1-1,1,.448,1,1-.448,1-1,1Zm9,6c0,.552-.447,1-1,1s-1-.448-1-1v-3.586l-.293,.293c-.391,.391-1.023,.391-1.414,0s-.391-1.023,0-1.414l2-2c.286-.287,.716-.372,1.09-.217,.374,.155,.617,.52,.617,.924v6Zm5,2c-.552,0-1-.448-1-1s.448-1,1-1,1,.448,1,1-.448,1-1,1Zm0-6c-.552,0-1-.448-1-1s.448-1,1-1,1,.448,1,1-.448,1-1,1Z"/></svg>
