<?xml version="1.0" encoding="UTF-8"?>
<svg xmlns="http://www.w3.org/2000/svg" id="Layer_1" data-name="Layer 1" viewBox="0 0 24 24" width="512" height="512"><path d="M12.056,11.211l8.039,6.718-5.694,4.271c-1.422,1.067-3.378,1.067-4.8,0l-6.133-4.6c-.519-.389-1.151-.6-1.8-.6h-.667C.448,17,0,16.552,0,16V4.937c0-.508,.379-.931,.884-.988,1.357-.151,2.579-.696,3.829-1.424,1.798-.925,4.157-.595,5.616,.772l.617,.593-4.007,3.911c-1.073,1.072-1.244,2.767-.398,3.938,.52,.723,1.461,1.259,2.444,1.259,.793,0,1.554-.312,2.104-.863l.967-.925ZM19.954,2.525c-1.69-.845-3.798-.625-5.308,.548l-6.303,6.152c-.371,.372-.455,.967-.181,1.347,.18,.25,.441,.4,.739,.425,.295,.025,.581-.082,.788-.29l3.618-3.429c.949-.901,2.324,.537,1.383,1.445l-1.181,1.097,8.593,7.181h.897c.552,0,1-.448,1-1V4.903c0-.49-.358-.895-.841-.982-1.694-.306-3.205-1.395-3.205-1.395Z"/></svg>
