<?xml version="1.0" encoding="UTF-8"?>
<svg xmlns="http://www.w3.org/2000/svg" id="Layer_1" data-name="Layer 1" viewBox="0 0 24 24" width="512" height="512"><path d="M21.297,16.785c1.818,.491,3.075,2.347,2.603,4.4-.303,1.322-1.379,2.392-2.701,2.694-.267,.061-.531,.093-.788,.098-1.467,.028-7.92,.035-9.189,0-.181-.005-.367-.031-.556-.081-.762-.2-1.384-.823-1.584-1.584-.315-1.196,.314-2.293,1.302-2.717,.424-.182,.68-.625,.583-1.076-.138-.641-.141-1.331,.034-2.047,.432-1.773,1.91-3.158,3.716-3.421,2.193-.32,4.144,.919,4.913,2.773,.349,.836,1.364,.88,1.669,.962Zm-13.626,7.215h-2.671c-2.757,0-5-2.243-5-5V5C0,2.243,2.243,0,5,0h14c2.757,0,5,2.243,5,5v11.005c-.616-.523-1.35-.926-2.183-1.15,0,0-.43-.09-.476-.1-1.233-2.599-4.03-4.105-6.915-3.684-2.586,.377-4.744,2.358-5.37,4.926-.173,.713-.229,1.431-.167,2.141-1.5,1.004-2.222,2.858-1.743,4.683,.112,.425,.294,.819,.523,1.18ZM5,4c0-.552-.448-1-1-1s-1,.448-1,1,.448,1,1,1,1-.448,1-1Zm2,0c0,.552,.448,1,1,1s1-.448,1-1-.448-1-1-1-1,.448-1,1Z"/></svg>
