<?xml version="1.0" encoding="UTF-8"?>
<!-- Generator: Adobe Illustrator 24.3.0, SVG Export Plug-In . SVG Version: 6.00 Build 0)  -->
<svg xmlns="http://www.w3.org/2000/svg" xmlns:xlink="http://www.w3.org/1999/xlink" version="1.1" id="Layer_1" x="0px" y="0px" viewBox="0 0 512 512" style="enable-background:new 0 0 512 512;" xml:space="preserve" width="512" height="512">
<path d="M256,0.828C114.678,0.981,0.153,115.506,0,256.828c12.8,339.2,499.2,339.051,512,0C511.847,115.506,397.322,0.981,256,0.828  z M133.227,242.407c-6.539-9.801-3.896-23.047,5.905-29.586c0.001-0.001,0.003-0.002,0.004-0.003l37.44-24.917l-37.44-24.917  c-9.803-6.539-12.448-19.787-5.909-29.589c6.539-9.803,19.787-12.448,29.589-5.909l64,42.667  c9.803,6.684,12.331,20.049,5.647,29.852c-1.513,2.219-3.428,4.134-5.647,5.647l-64,42.667c-9.801,6.539-23.047,3.896-29.586-5.905  C133.229,242.41,133.228,242.408,133.227,242.407z M363.221,322.151c-17.863,58.334-79.632,91.142-137.966,73.28  c-35.027-10.726-62.458-38.118-73.234-73.13c-3.607-11.142,2.502-23.098,13.645-26.705c2.207-0.714,4.516-1.062,6.835-1.028h170.261  c11.711-0.13,21.31,9.258,21.44,20.968C364.228,317.778,363.896,320.011,363.221,322.151L363.221,322.151z M376.149,212.817  c9.803,6.539,12.448,19.787,5.909,29.589c-6.539,9.803-19.787,12.448-29.589,5.909l-64-42.667  c-9.803-6.684-12.331-20.049-5.647-29.852c1.513-2.219,3.428-4.134,5.647-5.647l64-42.667c9.803-6.539,23.05-3.893,29.589,5.909  c6.539,9.803,3.893,23.05-5.909,29.589l-37.44,24.917L376.149,212.817z"/>
</svg>
