<?xml version="1.0" encoding="UTF-8"?>
<svg xmlns="http://www.w3.org/2000/svg" id="Layer_1" data-name="Layer 1" viewBox="0 0 24 24" width="512" height="512"><path d="M15.707,8.293c.189,.188,.293,.439,.293,.707s-.104,.518-.293,.707l-5.707,5.707c-.378,.378-.88,.586-1.414,.586h-.586v-.586c0-.526,.214-1.042,.586-1.414l5.707-5.707c.391-.39,1.023-.39,1.414,0Zm8.293,4.047v6.66c0,2.757-2.243,5-5,5h-5.917C6.082,24,.471,19.208,.029,12.854-.211,9.378,1.057,5.976,3.509,3.521,5.962,1.065,9.371-.205,12.836,.029c6.261,.425,11.164,5.833,11.164,12.312Zm-6-3.34c0-.801-.313-1.555-.879-2.121-1.17-1.17-3.072-1.17-4.242,0l-5.707,5.707c-.756,.755-1.172,1.76-1.172,2.828v1.586c0,.552,.447,1,1,1h1.586c1.068,0,2.073-.417,2.828-1.172l5.707-5.707c.566-.567,.879-1.32,.879-2.122Z"/></svg>
