<?xml version="1.0" encoding="UTF-8"?>
<svg xmlns="http://www.w3.org/2000/svg" id="Layer_1" data-name="Layer 1" viewBox="0 0 24 24" width="512" height="512"><path d="M20.055,17.042A1,1,0,1,1,18.2,16.29l.33-.812L11.883,12.82l-.328.81A1,1,0,0,1,9.7,12.878l.325-.8L6.51,10.672a9.009,9.009,0,0,0-.853,1.59s-.428.77-.445.811a3.441,3.441,0,0,0,.087,2.58,3.24,3.24,0,0,0,.728,1.053l-.035.089a2.491,2.491,0,0,0,4.58,1.958l4.818,1.934a2.5,2.5,0,0,0,4.678,1.735l.018-.043A2.979,2.979,0,0,0,23,20.5l.412-1.04a8.914,8.914,0,0,0,.5-1.828l-3.526-1.41ZM11.628,6.253A4.933,4.933,0,0,1,16.7,5.378l3.965,1.541A4.473,4.473,0,0,1,23.5,11s.514,4.455.518,4.517L7.871,9.062C7.9,9.036,11.628,6.253,11.628,6.253ZM6.508,7.6A20.432,20.432,0,0,0,4.845,9.564a11.015,11.015,0,0,0-.991,1.826c-.164.294-.268.482-.337.61H1a1,1,0,0,1-.768-1.64L1.823,8.451a.7.7,0,0,0,0-.9L.232,5.64A1,1,0,0,1,1,4H3.3A.705.705,0,0,0,4,3.3V1A1,1,0,0,1,5.64.232L7.549,1.823a.7.7,0,0,0,.9,0L10.36.232A1,1,0,0,1,12,1V3.659A6.643,6.643,0,0,0,10.368,4.7L6.507,7.6Z"/></svg>
