<?xml version="1.0" encoding="UTF-8"?>
<svg xmlns="http://www.w3.org/2000/svg" id="Layer_1" data-name="Layer 1" viewBox="0 0 24 24" width="512" height="512"><path d="M23.707,22.293l-5.946-5.946c1.412-1.725,2.261-3.928,2.261-6.325C20.021,4.508,15.535,.021,10.021,.021S.021,4.508,.021,10.021s4.486,10,10,10c2.398,0,4.601-.849,6.325-2.261l5.946,5.946c.195,.195,.451,.293,.707,.293s.512-.098,.707-.293c.391-.391,.391-1.023,0-1.414ZM13.535,12.535l-1.821,1.781c-.473,.463-1.093,.693-1.714,.693s-1.241-.23-1.715-.693l-1.812-1.773c-.952-.951-1.473-2.207-1.473-3.543s.521-2.592,1.465-3.535c.943-.944,2.199-1.465,3.535-1.465s2.591,.521,3.535,1.465,1.465,2.199,1.465,3.535-.521,2.592-1.465,3.535Zm-3.535-6.535c-.802,0-1.555,.312-2.12,.879-.567,.566-.88,1.319-.88,2.121s.312,1.555,.879,2.121l1.805,1.766c.174,.17,.458,.17,.632,0l1.813-1.773c.559-.559,.871-1.312,.871-2.113s-.313-1.555-.879-2.121c-.566-.566-1.32-.879-2.121-.879Zm0,3.993c-.552,0-1-.448-1-1s.448-1,1-1,1,.448,1,1-.448,1-1,1Z"/></svg>
