<?xml version="1.0" encoding="UTF-8"?>
<svg xmlns="http://www.w3.org/2000/svg" id="Layer_1" data-name="Layer 1" viewBox="0 0 24 24" width="512" height="512"><path d="M14,11h3.461a16.076,16.076,0,0,1,1.429-.894c-.039-.374-.092-.742-.154-1.106H17a1,1,0,0,1,0-2h1.278a15.938,15.938,0,0,0-.73-2H14a1,1,0,0,1,0-2h2.464c-2.5-3.941-6.429-3.94-8.928,0H10a1,1,0,0,1,0,2H6.452a15.938,15.938,0,0,0-.73,2H7A1,1,0,0,1,7,9H5.264c-.062.364-.115.732-.154,1.106A16.076,16.076,0,0,1,6.539,11H10a1,1,0,0,1,0,2H8.924A19.674,19.674,0,0,1,12,17.027,19.674,19.674,0,0,1,15.076,13H14A1,1,0,0,1,14,11ZM11,9a1,1,0,0,1,0-2h2a1,1,0,0,1,0,2Zm12,3.217C21.66,27.952,2.343,27.959,1,12.217a1.119,1.119,0,0,1,1.5-1.144C8.591,13.443,11.282,19.4,12,22c.718-2.6,3.409-8.557,9.5-10.927A1.119,1.119,0,0,1,23,12.217Z"/></svg>
