<?xml version="1.0" encoding="UTF-8"?>
<svg xmlns="http://www.w3.org/2000/svg" id="Layer_1" data-name="Layer 1" viewBox="0 0 24 24" width="512" height="512"><path d="M9,8.5v2a.5.5,0,0,1-.5.5h-4a.5.5,0,0,1-.5-.5v-2A.5.5,0,0,1,4.5,8h4A.5.5,0,0,1,9,8.5ZM17.5,8h-2a.5.5,0,0,0-.5.5v2a.5.5,0,0,0,.5.5h2a.5.5,0,0,0,.5-.5v-2A.5.5,0,0,0,17.5,8ZM7.5,24a3.5,3.5,0,0,0,0-7A3.5,3.5,0,0,0,7.5,24ZM24,20a1,1,0,0,1-1,1H12.977c.431-7.288-10.1-8.2-10.955-.986A5,5,0,0,1,0,16V5A5.006,5.006,0,0,1,5,0H17a5.006,5.006,0,0,1,5,5V19h1A1,1,0,0,1,24,20ZM11,8.5A2.5,2.5,0,0,0,8.5,6h-4A2.5,2.5,0,0,0,2,8.5v2A2.5,2.5,0,0,0,4.5,13h4A2.5,2.5,0,0,0,11,10.5Zm9,0A2.5,2.5,0,0,0,17.5,6h-2A2.5,2.5,0,0,0,13,8.5v2A2.5,2.5,0,0,0,15.5,13h2A2.5,2.5,0,0,0,20,10.5Z"/></svg>
