<?xml version="1.0" encoding="UTF-8"?>
<svg xmlns="http://www.w3.org/2000/svg" id="Layer_1" data-name="Layer 1" viewBox="0 0 24 24" width="512" height="512"><path d="M16.558,14.82h0c-.595.066-.927-.192-1-.379a5.548,5.548,0,0,0-10.524.794,5.312,5.312,0,0,0-.039,2.441,3.285,3.285,0,0,0,.424,6.188,3.458,3.458,0,0,0,.781.113c1.441.037,7.851.028,9.236,0a4.948,4.948,0,0,0,.992-.123,4.618,4.618,0,0,0,3.453-3.445A4.671,4.671,0,0,0,16.558,14.82ZM1.081,18.311a1,1,0,0,1-.966-.745,3.285,3.285,0,0,1,1.874-3.891,5.312,5.312,0,0,1,.039-2.441A5.534,5.534,0,0,1,9.634,7.465c.971.521.829,1.631-.35,1.617a7.578,7.578,0,0,0-6.2,5.678,6.875,6.875,0,0,0-.2,1.97A2.6,2.6,0,0,0,2,17.6C1.558,18.365,1.107,18.311,1.081,18.311ZM23,9H20.419c-.013-.108-.028-.211-.048-.31A6.1,6.1,0,0,0,20.047,7.6l2.225-1.313a1,1,0,1,0-1.017-1.722l-2.24,1.323a6.679,6.679,0,0,0-.943-.914l1.3-2.262a1,1,0,1,0-1.732-1L16.34,3.97A6.737,6.737,0,0,0,15,3.6V1a1,1,0,0,0-2,0V3.564h0a5.229,5.229,0,0,0-1.3.344l-1.415-2.2A1,1,0,0,0,8.6,2.786l1.769,2.822A3.066,3.066,0,0,1,12.1,9.219a7.564,7.564,0,0,1,4.912,3.652,6.9,6.9,0,0,1,2.982,1.683l1.317.814a1,1,0,0,0,1-1.733l-2.274-1.312A8.686,8.686,0,0,0,20.348,11H23A1,1,0,0,0,23,9Z"/></svg>
