<?xml version="1.0" encoding="UTF-8"?>
<svg xmlns="http://www.w3.org/2000/svg" id="Layer_1" data-name="Layer 1" viewBox="0 0 24 24" width="512" height="512"><path d="M14,18c-.552,0-1-.448-1-1s.448-1,1-1,1,.448,1,1-.448,1-1,1Zm4-2c-.552,0-1,.448-1,1s.448,1,1,1,1-.448,1-1-.448-1-1-1Zm4,0c-.552,0-1,.448-1,1s.448,1,1,1,1-.448,1-1-.448-1-1-1Zm0,4c-.552,0-1,.448-1,1s.448,1,1,1,1-.448,1-1-.448-1-1-1ZM2,16c-.552,0-1,.448-1,1s.448,1,1,1,1-.448,1-1-.448-1-1-1Zm0,4c-.552,0-1,.448-1,1s.448,1,1,1,1-.448,1-1-.448-1-1-1Zm9-3c0-.552-.448-1-1-1s-1,.448-1,1,.448,1,1,1,1-.448,1-1Zm-5,1c.552,0,1-.448,1-1s-.448-1-1-1-1,.448-1,1,.448,1,1,1Zm12,2H6c-.552,0-1,.447-1,1s.448,1,1,1h12c.553,0,1-.447,1-1s-.447-1-1-1Zm4.441-14.619C17.952,.894,6.045,.893,1.554,5.381,.55,6.387-.003,7.702,0,9.153l.081,1.126c0,1.5,1.221,2.721,2.721,2.721,.044,0,2.522-.322,2.522-.322,1.445-.038,2.613-1.208,2.648-2.654l.157-1.802c1.276-.501,2.587-.739,3.863-.744,1.266,.006,2.566,.26,3.875,.754l.155,1.792c.035,1.446,1.203,2.616,2.648,2.654,0,0,2.479,.322,2.522,.322,1.5,0,2.721-1.221,2.719-2.651l.085-1.264c0-1.383-.552-2.698-1.557-3.704Z"/></svg>
