<?xml version="1.0" encoding="UTF-8"?>
<svg xmlns="http://www.w3.org/2000/svg" id="Layer_1" data-name="Layer 1" viewBox="0 0 24 24" width="512" height="512"><path d="M24,21.5A2.5,2.5,0,0,1,21.5,24H2.5a2.5,2.5,0,0,1,0-5h19A2.5,2.5,0,0,1,24,21.5ZM22.8,5.375,19.686,1.75a4.974,4.974,0,0,0-5.8-1.327L2.394,5.447A4,4,0,0,0,0,8.887c0,.037,0,.324.006.373A3,3,0,0,0,3,12H21C24.482,11.942,24.728,7.461,22.8,5.375Zm.788,9.835-.8-.626a2.945,2.945,0,0,0-3.557,0,2.031,2.031,0,0,1-2.443,0,2.945,2.945,0,0,0-3.557,0,2.031,2.031,0,0,1-2.443,0,2.945,2.945,0,0,0-3.557,0,2.031,2.031,0,0,1-2.443,0,2.945,2.945,0,0,0-3.558,0c-.243.189-.815.611-.816.612A1.741,1.741,0,0,0,0,16a.989.989,0,0,0,1.584.789c.4-.242,1.3-1.207,1.972-.623a4.061,4.061,0,0,0,4.889,0,.942.942,0,0,1,1.111,0,4.061,4.061,0,0,0,4.889,0,.942.942,0,0,1,1.111,0,4.012,4.012,0,0,0,4.889,0c.665-.586,1.591.391,1.971.624A.982.982,0,0,0,23.584,15.21Z"/></svg>
