<?xml version="1.0" encoding="UTF-8"?>
<svg xmlns="http://www.w3.org/2000/svg" id="Layer_1" data-name="Layer 1" viewBox="0 0 24 24" width="512" height="512"><path d="M9.878,17.122c1.134,1.133,3.11,1.133,4.243,0l6.879-6.879V4c0-2.206-1.794-4-4-4H7C4.794,0,3,1.794,3,4v6.243l6.878,6.879Zm-1.878-13.122h8c1.308,.006,1.307,1.995,0,2H8c-1.308-.006-1.307-1.994,0-2Zm0,4h6c1.308,.006,1.307,1.995,0,2h-6c-1.308-.006-1.307-1.994,0-2Zm15.5,2.57c.316,.665,.5,1.392,.5,2.137v6.292c0,2.757-2.243,5-5,5H5c-2.757,0-5-2.243-5-5v-6.292c0-.746,.184-1.472,.5-2.137l7.965,7.966c1.862,1.939,5.21,1.94,7.071,0l7.965-7.966Z"/></svg>
