<?xml version="1.0" encoding="UTF-8"?>
<svg xmlns="http://www.w3.org/2000/svg" id="Layer_1" data-name="Layer 1" viewBox="0 0 24 24" width="512" height="512"><path d="M14,24a1,1,0,0,1-1-1V18a1,1,0,0,1,2,0v5A1,1,0,0,1,14,24Zm-3-3V16a1,1,0,0,0-2,0v5a1,1,0,0,0,2,0ZM7,23V18a1,1,0,0,0-2,0v5a1,1,0,0,0,2,0Zm12-2V16a1,1,0,0,0-2,0v5a1,1,0,0,0,2,0ZM17.918,5.133a1.033,1.033,0,0,1-.687-.557C13.125-3.731.494.19,2.146,9.528a.985.985,0,0,1-.315.873,5.552,5.552,0,0,0,.218,8.372A.593.593,0,0,0,3,18.189,3.056,3.056,0,0,1,7.116,15.22a2.994,2.994,0,0,1,5.768,0,2.972,2.972,0,0,1,2.232,0,3,3,0,0,1,5.884.9v1.215a.521.521,0,0,0,.886.371C25.838,13.831,24.046,6.223,17.918,5.133Z"/></svg>
