<?xml version="1.0" encoding="UTF-8"?>
<svg xmlns="http://www.w3.org/2000/svg" id="Layer_1" data-name="Layer 1" viewBox="0 0 24 24" width="512" height="512"><path d="M22.547,5.666,18.355,1.474a4.994,4.994,0,0,0-7.065,0L1.473,11.291a5.019,5.019,0,0,0,0,7.064l4.192,4.192a5.019,5.019,0,0,0,7.065,0l9.817-9.817A5.018,5.018,0,0,0,22.547,5.666ZM18.638,12.4l-2.861-2.86-2.4,2.4L16.242,14.8a1,1,0,0,1-1.413,1.413l-2.861-2.861L9.63,15.69l2.86,2.861a1,1,0,1,1-1.412,1.413L8.217,17.1,6.321,19a1,1,0,0,1-1.413-1.413l1.9-1.9L4.062,12.948a1,1,0,1,1,1.413-1.413l2.742,2.742,2.338-2.338L7.813,9.2A1,1,0,0,1,9.226,7.784l2.742,2.742,2.4-2.4L11.622,5.388a1,1,0,0,1,1.413-1.413l2.742,2.742,1.771-1.77A1,1,0,0,1,18.96,6.36L17.19,8.13l2.861,2.861A1,1,0,0,1,18.638,12.4Z"/></svg>
