<?xml version="1.0" encoding="UTF-8"?>
<svg xmlns="http://www.w3.org/2000/svg" id="Layer_1" data-name="Layer 1" viewBox="0 0 24 24" width="512" height="512"><path d="M19.927.269C21.162-1.126,23.071,3.414,23,4.5,22.523,9.264,14.458,6.91,19.927.269ZM24,12C23.412,27.9.586,27.9,0,12-.206,3.434,9.364-2.633,17.008,1.105c-1.071,1.872-1.514,4.4-.051,6.136C14.794,6.194,12.972,8.781,13,11a1,1,0,0,0,2,0c0-1.054.68-2,1-2s1,.946,1,2a1,1,0,0,0,1,1c1.782-.217.8-2.706.193-3.657A4.447,4.447,0,0,0,23.3,7.994,11.952,11.952,0,0,1,24,12ZM6,12a1,1,0,0,0,1-1c0-1.054.679-2,1-2s1,.946,1,2a1,1,0,0,0,2,0c0-1.892-1.232-4-3-4S5,9.108,5,11A1,1,0,0,0,6,12Zm10.789,2.024A15.4,15.4,0,0,1,12,15,15.4,15.4,0,0,1,7.2,14.024a1,1,0,0,0-1.052,1.518A6.836,6.836,0,0,0,12,19a6.827,6.827,0,0,0,5.842-3.458A1,1,0,0,0,16.789,14.024Z"/></svg>
