<?xml version="1.0" encoding="UTF-8"?>
<svg xmlns="http://www.w3.org/2000/svg" id="Layer_1" data-name="Layer 1" viewBox="0 0 24 24" width="512" height="512"><path d="M18.986,24a1,1,0,0,1-1-1V20a1,1,0,0,1,2,0v3A1,1,0,0,1,18.986,24Zm-4,0a1,1,0,0,1-1-1V20a1,1,0,0,1,2,0v3A1,1,0,0,1,14.986,24Zm-4,0a1,1,0,0,1-1-1V20a1,1,0,0,1,2,0v3A1,1,0,0,1,10.986,24Zm9.162-10.855a1.057,1.057,0,0,1-.605-.466,6,6,0,0,0-11.368.854A10.233,10.233,0,0,0,8,15.538,1.9,1.9,0,0,1,7.063,17a3.513,3.513,0,0,0,.923,5.643V20a3.01,3.01,0,0,1,5-2.22,2.99,2.99,0,0,1,4,0,3.01,3.01,0,0,1,5,2.22v1.989A5.008,5.008,0,0,0,20.148,13.145ZM5.333,13.1a7.9,7.9,0,0,0,.788.548c.03-.205.066-.4.111-.59a8.027,8.027,0,0,1,6.584-6,8.123,8.123,0,0,1,1.616-.051l1.993-1.143a1,1,0,0,0-.994-1.736L13.158,5.4a5.582,5.582,0,0,0-.615-.606l1.28-2.253a1,1,0,0,0-1.738-.988L10.8,3.807A5.516,5.516,0,0,0,10,3.6V1A1,1,0,0,0,8,1V3.589c-.131.023-.262.051-.393.083-.153.038-.3.083-.451.135L5.866,1.572a1,1,0,0,0-1.732,1L5.422,4.8a5.525,5.525,0,0,0-.643.646L2.54,4.177a1,1,0,0,0-.988,1.738L3.794,7.19c-.047.14-.089.283-.124.426s-.059.256-.081.384H1a1,1,0,0,0,0,2H3.6a5.477,5.477,0,0,0,.222.836l-2.248,1.3a1,1,0,1,0,1,1.732l2.244-1.3A5.5,5.5,0,0,0,5.333,13.1Z"/></svg>
