<?xml version="1.0" encoding="UTF-8"?>
<svg xmlns="http://www.w3.org/2000/svg" id="Layer_1" data-name="Layer 1" viewBox="0 0 24 24" width="512" height="512"><g><path d="M22,12.111V5c-.211-6.609-9.791-6.6-10,0v7.111C7.666,16.363,10.922,24.117,17,24,23.077,24.117,26.335,16.362,22,12.111ZM17,20a3.007,3.007,0,0,1-1-5.828V8a1,1,0,0,1,2,0v6.172A3.007,3.007,0,0,1,17,20Z"/><path d="M9.41,2.764a2.036,2.036,0,0,1-.42.323L9,12.854a1,1,0,0,1-1,1L6.934,14.916A1,1,0,0,1,5.52,13.5l1.056-1.056A2,2,0,0,1,7,12.12V11.034a3.485,3.485,0,0,1-1.841-.865l-.96.557a2.038,2.038,0,0,1-.066.528L3.75,12.7a1,1,0,1,1-1.934-.512L2.2,10.744l-1.455-.4a1,1,0,1,1,.512-1.933L2.7,8.794a2.022,2.022,0,0,1,.492.2l.923-.536a3.521,3.521,0,0,1,.009-1.82L3.193,6.1a2.015,2.015,0,0,1-.491.2l-1.446.382A1,1,0,1,1,.744,4.751L2.189,4.37,1.816,2.908A1,1,0,0,1,3.75,2.4l.383,1.445A1.972,1.972,0,0,1,4.2,4.37l.988.575A3.494,3.494,0,0,1,7,4.106l0-1.015a2.068,2.068,0,0,1-.428-.327L5.506,1.707A1,1,0,0,1,6.92.293L7.977,1.35,9.053.293a1,1,0,1,1,1.414,1.414Z"/></g></svg>
