<?xml version="1.0" encoding="UTF-8"?>
<svg xmlns="http://www.w3.org/2000/svg" id="Layer_1" data-name="Layer 1" viewBox="0 0 24 24" width="512" height="512"><path d="M24,12c0,.785-.378,1.933-2.178,2.946a8.292,8.292,0,0,1-2.96.964,6.914,6.914,0,0,0-.26-7.851,8.38,8.38,0,0,1,3.22,1C23.622,10.067,24,11.215,24,12ZM15.9,8H6v8H16.421C18.57,13.336,18.517,10.269,15.9,8ZM4,8H3a3,3,0,0,0-3,3v2a3,3,0,0,0,3,3H4Zm8.485-2L10.557,2.556A5.007,5.007,0,0,0,6.194,0H5.038a3,3,0,0,0-3,3V6ZM2,18v3a3,3,0,0,0,3,3H6.156a5.005,5.005,0,0,0,4.362-2.556L12.447,18Z"/></svg>
