<?xml version="1.0" encoding="UTF-8"?>
<svg xmlns="http://www.w3.org/2000/svg" id="Layer_1" data-name="Layer 1" viewBox="0 0 24 24" width="512" height="512"><path d="M23.707,4.707a1,1,0,0,1-1.414,0L21.5,3.914,17.311,8.1A2.686,2.686,0,0,0,16.5,9.98,2.526,2.526,0,0,0,16.721,11a3.072,3.072,0,0,1-.357,3.178l-.982-.982A4.2,4.2,0,0,0,12.424,12a1.444,1.444,0,0,1-.379-.031.642.642,0,0,1-.045-.3,4.218,4.218,0,0,0-1.194-3.056l-.981-.98A3.057,3.057,0,0,1,13,7.276a2.437,2.437,0,0,0,1.05.224A2.687,2.687,0,0,0,15.9,6.689L20.086,2.5l-.793-.793A1,1,0,0,1,20.707.293l3,3A1,1,0,0,1,23.707,4.707Zm-9.738,9.9A2.2,2.2,0,0,0,12.413,14,2.166,2.166,0,0,1,10,11.673a2.288,2.288,0,0,0-.609-1.642L8.4,9.038.917,16.518a3,3,0,0,0-.853,1.711,5.054,5.054,0,0,0,1.3,4.405A4.841,4.841,0,0,0,4.869,24a6.4,6.4,0,0,0,.9-.064,2.985,2.985,0,0,0,1.71-.852L14.963,15.6ZM24,20.5A3.5,3.5,0,1,0,20.5,24,3.5,3.5,0,0,0,24,20.5Z"/></svg>
