<?xml version="1.0" encoding="UTF-8"?>
<svg xmlns="http://www.w3.org/2000/svg" id="Layer_1" data-name="Layer 1" viewBox="0 0 24 24" width="512" height="512"><path d="M17,10c-3.859,0-7,3.14-7,7s3.141,7,7,7,7-3.14,7-7-3.141-7-7-7Zm2.772,8.425l-1.317,2.639c-.247,.494-.847,.695-1.341,.448h0c-.494-.246-.695-.847-.448-1.341l1.083-2.172h-2.134c-.509,0-.993-.244-1.297-.652-.303-.409-.396-.943-.249-1.43l1.751-3.278c.26-.488,.868-.67,1.354-.408h0c.485,.262,.666,.867,.404,1.352l-1.304,2.416h2.121c.592,0,1.133,.324,1.412,.845,.269,.499,.253,1.098-.035,1.581Zm-10.255-6.425H.337c.022-.081,.036-.164,.065-.244L3.104,4.329c.715-1.968,2.603-3.291,4.698-3.291h8.396c2.096,0,3.983,1.323,4.698,3.292l2.208,6.07c-1.605-1.485-3.745-2.4-6.104-2.4-3.12,0-5.868,1.589-7.482,4Zm-.571,9h-1.947v1c0,1.105-.895,2-2,2s-2-.895-2-2v-1.424c-1.763-.774-3-2.531-3-4.576v-1.962H4v2c0,.552,.447,1,1,1s1-.448,1-1v-2.038h2.523c-.333,.94-.523,1.946-.523,3,0,1.439,.346,2.794,.947,4Z"/></svg>
