<?xml version="1.0" encoding="UTF-8"?>
<svg xmlns="http://www.w3.org/2000/svg" id="Layer_1" data-name="Layer 1" viewBox="0 0 24 24" width="512" height="512"><path d="M22.707,22.293l-2.541-2.541c1.151-1.629,1.834-3.611,1.834-5.752v-4C22,4.486,17.514,0,12,0S2,4.486,2,10v4c0,5.514,4.486,10,10,10,2.652,0,5.059-1.045,6.851-2.735l2.442,2.442c.195,.195,.451,.293,.707,.293s.512-.098,.707-.293c.391-.391,.391-1.023,0-1.414Zm-10.707-.293c-4.411,0-8-3.589-8-8v-4C4,5.589,7.589,2,12,2s8,3.589,8,8v4c0,1.589-.471,3.067-1.273,4.313l-2.02-2.02c-.391-.391-1.023-.391-1.414,0s-.391,1.023,0,1.414l2.144,2.144c-1.429,1.329-3.337,2.149-5.437,2.149Z"/></svg>
