<?xml version="1.0" encoding="UTF-8"?>
<svg xmlns="http://www.w3.org/2000/svg" id="Layer_1" data-name="Layer 1" viewBox="0 0 24 24" width="512" height="512"><path d="M6.261,13.751.866,7.28,2.443,4.651,11,6.79v4.592ZM21.547,4.634,13,6.77v4.612l4.737,2.368,5.384-6.492ZM12,13.118,7.246,15.5,10.36,24h3.232l3.158-8.507Zm6.878,2.39-3,8.08a4.848,4.848,0,0,0,.587-.3l3.192-1.915a5.026,5.026,0,0,0,1.715-1.715l1.915-3.192A5,5,0,0,0,24,13.892V10.108a5,5,0,0,0-.052-.714ZM11.96,4.969l8.146-2.036a4.724,4.724,0,0,0-.449-.3L16.465.713A5,5,0,0,0,13.892,0H10.108A5,5,0,0,0,7.535.713L4.343,2.628a5.184,5.184,0,0,0-.47.32ZM5.121,15.507.048,9.422A4.912,4.912,0,0,0,0,10.108v3.784a5,5,0,0,0,.713,2.573l1.915,3.192a5.026,5.026,0,0,0,1.715,1.715l3.192,1.915a5.025,5.025,0,0,0,.535.278Z"/></svg>
