<?xml version="1.0" encoding="UTF-8"?>
<svg xmlns="http://www.w3.org/2000/svg" id="Layer_1" data-name="Layer 1" viewBox="0 0 24 24" width="512" height="512"><g><path d="M1,19.233a3,3,0,0,1,1.989.755A.517.517,0,0,0,3.2,19.92,2.978,2.978,0,0,1,7,18.178v-.193a4.986,4.986,0,0,1,2.628-4.374c.05-.028.1-.056.152-.083a5.016,5.016,0,0,1,.576-.243c.135-.049.272-.091.413-.128s.311-.07.471-.1c.088-.014.17-.044.26-.053.154-.015.3-.018.455-.019.016,0,.03,0,.045,0h.018a5.005,5.005,0,0,1,.922.093c.034.007.068.01.1.017a4.974,4.974,0,0,1,.834.26c.038.015.076.029.114.046a5,5,0,0,1,.742.4l.111.074a5.038,5.038,0,0,1,.643.531c.032.031.062.062.093.094a5.16,5.16,0,0,1,.534.646l.068.1a5.12,5.12,0,0,1,.409.753c.013.032.024.064.037.1a5.01,5.01,0,0,1,.266.855.39.39,0,0,0,.011.067,5.008,5.008,0,0,1,.1.969v.192a2.982,2.982,0,0,1,3.8,1.743.478.478,0,0,0,.215.07,3.01,3.01,0,0,1,1.966-.765,2.9,2.9,0,0,1,1.02.192V11.864a2,2,0,0,0-.563-1.392l-8.5-9.187a4,4,0,0,0-5.653-.223c-.077.072-.151.146-.222.223L.581,10.469A2,2,0,0,0,0,11.879v7.542A2.971,2.971,0,0,1,1,19.233Z"/><path d="M9.227,19.917A2.92,2.92,0,0,1,12,18a3,3,0,0,1,2.8,1.934.565.565,0,0,0,.2.033h0V17.985a3,3,0,0,0-6,0v1.982A.455.455,0,0,0,9.227,19.917Z"/><path d="M21,24a4.375,4.375,0,0,1-3-1.225,4.336,4.336,0,0,1-6,0,4.336,4.336,0,0,1-6,0,4.186,4.186,0,0,1-5.668.2,1,1,0,1,1,1.335-1.489,2.2,2.2,0,0,0,3.39-.822A1,1,0,0,1,6,20H6a1,1,0,0,1,.943.667,2.278,2.278,0,0,0,4.114,0A1,1,0,0,1,12,20h0a1,1,0,0,1,.943.667,2.278,2.278,0,0,0,4.114,0A1,1,0,0,1,18,20h0a1,1,0,0,1,.943.667,2.2,2.2,0,0,0,3.389.823,1,1,0,0,1,1.336,1.487A3.981,3.981,0,0,1,21,24Z"/></g></svg>
