<?xml version="1.0" encoding="UTF-8"?>
<svg xmlns="http://www.w3.org/2000/svg" id="Layer_1" data-name="Layer 1" viewBox="0 0 24 24" width="512" height="512"><path d="M22.99,15H10.01l.6-1.682A5.009,5.009,0,0,1,15.319,10h2.362a5.009,5.009,0,0,1,4.709,3.319ZM24,19.732A10.914,10.914,0,0,0,23.652,17H21v1a1,1,0,0,1-2,0V17H14v1a1,1,0,0,1-2,0V17H9.348c-.5,1.78-.8,4.669,1.652,4.973V22.5a1.5,1.5,0,0,0,3,0V22h5v.5a1.5,1.5,0,0,0,3,0v-.527A2.263,2.263,0,0,0,24,19.732ZM15,4V8.025a7,7,0,0,0-6.273,4.621L7.886,15l-.57,2c-.6,2.279-.493,5.187,1.8,6.41a1.914,1.914,0,0,1,.12.59H1a1,1,0,0,1-1-1V4A4,4,0,0,1,4,0h7A4,4,0,0,1,15,4ZM6,19a1,1,0,0,0-1-1H4a1,1,0,0,0-1,1v1a1,1,0,0,0,1,1H5a1,1,0,0,0,1-1Zm0-5a1,1,0,0,0-1-1H4a1,1,0,0,0-1,1v1a1,1,0,0,0,1,1H5a1,1,0,0,0,1-1ZM6,9A1,1,0,0,0,5,8H4A1,1,0,0,0,3,9v1a1,1,0,0,0,1,1H5a1,1,0,0,0,1-1ZM6,4A1,1,0,0,0,5,3H4A1,1,0,0,0,3,4V5A1,1,0,0,0,4,6H5A1,1,0,0,0,6,5Zm6,0a1,1,0,0,0-1-1H10A1,1,0,0,0,9,4V5a1,1,0,0,0,1,1h1a1,1,0,0,0,1-1Z"/></svg>
