<?xml version="1.0" encoding="UTF-8"?>
<svg xmlns="http://www.w3.org/2000/svg" id="Layer_1" data-name="Layer 1" viewBox="0 0 24 24" width="512" height="512"><path d="M8.105.553c1.113-1.652,3.32.961,3.9,2.009C13.982-.987,18.7-.828,19,3a2,2,0,0,1-2,2,1,1,0,0,1,0-2c-.074-1.8-3.63-1.383-3.971,3.193a2.995,2.995,0,1,1-2.063,0c-.155-2.151-.946-3.565-2.415-4.3A1,1,0,0,1,8.105.553ZM8,9A3,3,0,0,0,2,9,3,3,0,0,0,8,9Zm3,6a3,3,0,0,0-6,0A3,3,0,0,0,11,15Zm1,3a3,3,0,0,0,0,6A3,3,0,0,0,12,18ZM19,6a3,3,0,0,0,0,6A3,3,0,0,0,19,6Zm-3,6a3,3,0,0,0,0,6A3,3,0,0,0,16,12Z"/></svg>
