<?xml version="1.0" encoding="UTF-8"?>
<svg xmlns="http://www.w3.org/2000/svg" id="Layer_1" data-name="Layer 1" viewBox="0 0 24 24" width="512" height="512"><path d="M23.961,17.336h0c-.332-2.997-2.878-5.336-5.961-5.336-7.514,.194-8.097,10.912-.702,11.955,3.767,.499,7.135-2.85,6.663-6.62Zm-3.961,2.664c-.391,.391-1.023,.391-1.414,0l-1.293-1.293c-.188-.188-.293-.442-.293-.707v-2c.006-1.308,1.995-1.307,2,0v1.586l1,1c.391,.391,.391,1.023,0,1.414Zm-2-10c2.393,0,4.534,1.056,6,2.721v-3.721c0-2.757-2.243-5-5-5h-1.101c-.465-2.279-2.484-4-4.899-4h-2c-2.414,0-4.434,1.721-4.899,4h-1.101C2.243,4,0,6.243,0,9v3H12.721c1.409-1.241,3.254-2,5.279-2ZM11,2h2c1.302,0,2.402,.839,2.816,2h-7.631c.414-1.161,1.514-2,2.816-2Zm1.721,22H5c-2.757,0-5-2.243-5-5v-5H11.079c-1.939,3.109-1.132,7.725,1.642,10Z"/></svg>
