<?xml version="1.0" encoding="UTF-8"?>
<svg xmlns="http://www.w3.org/2000/svg" id="Layer_1" data-name="Layer 1" viewBox="0 0 24 24" width="512" height="512"><path d="M0,19H24c0,2.757-2.243,5-5,5H5c-2.757,0-5-2.243-5-5ZM24,11v6H0v-6c0-2.757,2.243-5,5-5h1.253c-1.417-1.4-1.625-3.203-.547-4.64C6.251,.633,7.046,.162,7.945,.034c.899-.131,1.794,.101,2.521,.646,.678,.508,1.178,1.154,1.547,1.812,.369-.658,.869-1.305,1.547-1.812,.726-.545,1.619-.777,2.521-.646,.899,.128,1.694,.599,2.239,1.326,1.084,1.445,.867,3.26-.545,4.64h1.226c2.757,0,5,2.243,5,5ZM13.006,6c.137,0,1.801-.035,3.371-1.428,.387-.369,.984-1.158,.343-2.013-.224-.299-.552-.493-.922-.546-.368-.049-.739,.042-1.038,.267-1.278,.958-1.65,2.818-1.739,3.416l.002,.021-.017,.283Zm-1.998,0h.012s-.016-.294-.015-.304c-.088-.595-.461-2.457-1.74-3.416-.245-.184-.537-.28-.837-.28-.47,0-.898,.261-1.123,.56-.641,.855-.043,1.643,.37,2.037,1.535,1.361,3.191,1.402,3.332,1.403Zm6.992,6c0-.553-.448-1-1-1-.163,0-4-.034-4-3h-2c0,2.936-3.818,2.999-4.001,3-.552,0-.999,.448-.999,1s.448,1,1,1c1.417,0,3.697-.488,5-2.056,1.303,1.569,3.583,2.056,5,2.056,.552,0,1-.447,1-1Z"/></svg>
