<?xml version="1.0" encoding="UTF-8"?>
<svg xmlns="http://www.w3.org/2000/svg" id="Layer_1" data-name="Layer 1" viewBox="0 0 24 24" width="512" height="512"><path d="M14,7V.46c.913,.346,1.753,.879,2.465,1.59l3.484,3.486c.712,.711,1.245,1.551,1.591,2.464h-6.54c-.552,0-1-.449-1-1Zm8,3.485v8.515c0,2.757-2.243,5-5,5H7c-2.757,0-5-2.243-5-5V5C2,2.243,4.243,0,7,0h4.515c.163,0,.324,.013,.485,.024V7c0,1.654,1.346,3,3,3h6.976c.011,.161,.024,.322,.024,.485Zm-13,7.515c-.006-1.308-1.994-1.307-2,0v2c.006,1.308,1.994,1.307,2,0v-2Zm4-5c-.006-1.308-1.994-1.307-2,0v7c.006,1.308,1.994,1.307,2,0v-7Zm4,3c-.006-1.308-1.995-1.307-2,0v4c.006,1.308,1.995,1.307,2,0v-4Z"/></svg>
