<?xml version="1.0" encoding="UTF-8"?>
<svg xmlns="http://www.w3.org/2000/svg" id="Layer_1" data-name="Layer 1" viewBox="0 0 24 24" width="512" height="512"><path d="M6.541,23.972C-2.13,23.037-2.141,7,6.51,6.03,2.027,10.6,1.8,19.844,6.541,23.972Zm2.61-17.63A11.608,11.608,0,0,0,5,15c0,4.569,2.88,8.8,4.308,8.982A26.324,26.324,0,0,1,8,15C8,11.021,8.383,8.154,9.151,6.342ZM17.49,6.03c4.483,4.574,4.708,13.814-.031,17.942C26.13,23.037,26.141,7,17.49,6.03Zm-2.641.312C15.617,8.154,16,11.021,16,15a26.324,26.324,0,0,1-1.308,8.982C16.12,23.8,19,19.569,19,15A11.608,11.608,0,0,0,14.849,6.342ZM16,0a4.771,4.771,0,0,0-3.99,2.563c-.582-1.046-2.8-3.664-3.9-2.01A1,1,0,0,0,8.553,1.9C10.2,2.718,11,4.41,11,7.022,9.591,9.214,9.531,24.211,12,24c2.478.2,2.4-14.816,1-17-.03-5.352,3.922-5.886,4-4a1,1,0,0,0,0,2C20.467,4.678,18.926-.176,16,0Z"/></svg>
