<?xml version="1.0" encoding="UTF-8"?>
<svg xmlns="http://www.w3.org/2000/svg" id="Layer_1" data-name="Layer 1" viewBox="0 0 24 24" width="512" height="512"><path d="M12,6a1,1,0,0,1-1-1V2a1,1,0,0,1,2,0V5A1,1,0,0,1,12,6Zm5-2V2a1,1,0,0,0-2,0V4A1,1,0,0,0,17,4ZM9,3.989V2A1,1,0,0,0,7,2V3.989A1,1,0,0,0,9,3.989ZM20.441,22.061c5.283-2.692,1.537-10.546-3.887-8.12A9.327,9.327,0,0,1,12,15a9.327,9.327,0,0,1-4.556-1.059c-5.419-2.426-9.174,5.427-3.887,8.12C7.915,24.6,16.084,24.6,20.441,22.061ZM.957,12.906A3.5,3.5,0,0,1,6.015,8.065c2.558,2.553,9.49,2.513,11.98-.014,3.423-3.284,8.322,1.858,4.812,5.083a6.507,6.507,0,0,0-7.117-1A7.388,7.388,0,0,1,12,13a7.4,7.4,0,0,1-3.693-.862,6.505,6.505,0,0,0-7.116,1C1.073,13.025.994,12.945.957,12.906Z"/></svg>
