<?xml version="1.0" encoding="UTF-8"?>
<svg xmlns="http://www.w3.org/2000/svg" id="Layer_1" data-name="Layer 1" viewBox="0 0 24 24" width="512" height="512"><path d="M7.006,21.623A6.8,6.8,0,0,0,8.612,24H5.5c-3.764.121-5.5-4-5.5-7-.081-4.193,3.85-6.149,4-10V5a1,1,0,1,1,.142-2,4,4,0,0,1,6.713-1.771A3,3,0,0,0,9.184,5H6V7a8.989,8.989,0,0,1-1.8,5H7.456A10.242,10.242,0,0,0,7.006,21.623ZM24,17c.006,3-1.733,7.122-5.5,7H13.5c-3.763.122-5.506-4-5.5-7-.081-4.193,3.85-6.149,4-10V5a1,1,0,1,1,.142-2,3.994,3.994,0,0,1,7.716,0A1,1,0,1,1,20,5V7C20.15,10.852,24.081,12.807,24,17Zm-4.2-5A8.981,8.981,0,0,1,18,7V5H14V7a8.989,8.989,0,0,1-1.8,5ZM17,17a1,1,0,0,0-2,0A1,1,0,0,0,17,17Zm2,3a1,1,0,0,0-2,0A1,1,0,0,0,19,20Zm2-3a1,1,0,0,0-2,0A1,1,0,0,0,21,17Z"/></svg>
