<?xml version="1.0" encoding="UTF-8"?>
<svg xmlns="http://www.w3.org/2000/svg" id="Layer_1" data-name="Layer 1" viewBox="0 0 24 24" width="512" height="512"><path d="M12,0H6c-1.654,0-3,1.346-3,3v3c0,1.654,1.346,3,3,3h6c1.654,0,3-1.346,3-3V3c0-1.654-1.346-3-3-3Zm-2,4h-2c-.552,0-1-.447-1-1s.448-1,1-1h2c.552,0,1,.447,1,1s-.448,1-1,1Zm13.341,8.345l-7.702,8.409c-1.894,2.068-4.57,3.246-7.374,3.246H4.003C1.794,24,.003,22.209,.003,20v-5C.003,12.791,1.794,11,4.003,11h7.787c1.374,0,2.46,1.26,2.164,2.685-.192,.926-1.004,1.598-1.94,1.732l-4.162,.583c-.547,.078-.927,.585-.848,1.131h0c.078,.547,.585,.926,1.131,.848l4.252-.596c2.062-.294,3.617-2.087,3.617-4.17,0-.219-.032-.429-.065-.638l3.541-3.737c.455-.5,1.097-.803,1.794-.835,.692-.034,1.363,.209,1.878,.678,1.052,.958,1.138,2.602,.189,3.665Z"/></svg>
