<?xml version="1.0" encoding="UTF-8"?>
<svg xmlns="http://www.w3.org/2000/svg" id="Layer_1" data-name="Layer 1" viewBox="0 0 24 24" width="512" height="512"><path d="M12,0A12.013,12.013,0,0,0,0,12c.6,15.9,23.4,15.893,24,0A12.013,12.013,0,0,0,12,0ZM5,11c.248-5.285,5.753-5.282,6,0a1,1,0,0,1-2,0c0-1.054-.679-2-1-2s-1,.946-1,2A1,1,0,0,1,5,11Zm12.842,4.542A6.827,6.827,0,0,1,12,19a6.836,6.836,0,0,1-5.848-3.458A1,1,0,0,1,7.2,14.024,15.4,15.4,0,0,0,12,15a15.4,15.4,0,0,0,4.792-.976A1,1,0,0,1,17.842,15.542ZM18,12a1,1,0,0,1-1-1c0-1.054-.679-2-1-2s-1,.946-1,2a1,1,0,0,1-2,0c0-1.892,1.232-4,3-4s3,2.108,3,4A1,1,0,0,1,18,12Z"/></svg>
