<?xml version="1.0" encoding="UTF-8"?>
<svg xmlns="http://www.w3.org/2000/svg" id="Layer_1" data-name="Layer 1" viewBox="0 0 24 24" width="512" height="512"><path d="M23.891,6.454a1,1,0,0,1-1.346.437L13.752,2.4a4.02,4.02,0,0,0-3.517.007l-8.78,4.48a1,1,0,0,1-.91-1.782L9.339.623A6.043,6.043,0,0,1,14.648.616l8.807,4.493A1,1,0,0,1,23.891,6.454ZM22.078,13.12,20.02,9.52A5.013,5.013,0,0,0,15.679,7H8.321A5.013,5.013,0,0,0,3.98,9.52l-2.058,3.6A7.109,7.109,0,0,0,1.5,14h21A7.109,7.109,0,0,0,22.078,13.12ZM19,16v1a1,1,0,0,1-2,0V16H7v1a1,1,0,0,1-2,0V16H1.026Q1,16.3,1,16.594V18a4,4,0,0,0,2,3.463V22a2,2,0,0,0,4,0H17a2,2,0,0,0,4,0v-.537A4,4,0,0,0,23,18V16.594q0-.3-.026-.594Z"/></svg>
