<?xml version="1.0" encoding="UTF-8"?>
<svg xmlns="http://www.w3.org/2000/svg" id="Layer_1" data-name="Layer 1" viewBox="0 0 24 24" width="512" height="512"><path d="M24,4a1,1,0,0,1-1,1H21.226l.882,1.539a1,1,0,1,1-1.735,1L19.5,6.011l-.873,1.523a1,1,0,1,1-1.735-1L17.774,5H16a1,1,0,0,1,0-2h1.774l-.882-1.539a1,1,0,1,1,1.735-1L19.5,1.989,20.373.466a1,1,0,1,1,1.735,1L21.226,3H23A1,1,0,0,1,24,4Zm-9.7,8.974-1.478.859a4.017,4.017,0,0,1,0,2.334l1.478.859a2.29,2.29,0,0,1,.661-.3l1.78-.47a1,1,0,1,1,.51,1.934l-1.778.47a.249.249,0,0,0-.176.3l.47,1.78a1,1,0,1,1-1.933.51l-.47-1.778a2.259,2.259,0,0,1-.07-.722l-1.517-.883a3.99,3.99,0,0,1-1.781,1v1.79a2.22,2.22,0,0,1,.589.423l1.3,1.3A1,1,0,0,1,10.476,23.8l-1.3-1.3a.247.247,0,0,0-.35,0l-1.3,1.3A1,1,0,0,1,6.11,22.387l1.3-1.3A2.22,2.22,0,0,1,8,20.663v-1.79a3.99,3.99,0,0,1-1.781-1L4.7,18.755a2.259,2.259,0,0,1-.07.722l-.47,1.778a1,1,0,1,1-1.933-.51l.47-1.779a.249.249,0,0,0-.176-.3l-1.778-.47a1,1,0,0,1,.51-1.934l1.779.47a2.284,2.284,0,0,1,.662.3l1.478-.859a4.017,4.017,0,0,1,0-2.334L3.7,12.974a2.29,2.29,0,0,1-.661.3l-1.78.47a1,1,0,0,1-.51-1.934l1.778-.47a.249.249,0,0,0,.176-.3l-.47-1.78a1,1,0,1,1,1.933-.51l.47,1.778a2.259,2.259,0,0,1,.07.722l1.517.883a4,4,0,0,1,1.776-1l-.008-1.7A2.218,2.218,0,0,1,7.4,9l-1.3-1.3A1,1,0,1,1,7.507,6.284l1.3,1.3a.249.249,0,0,0,.351,0l1.3-1.3A1,1,0,1,1,11.873,7.7L10.572,9a2.232,2.232,0,0,1-.585.421L10,11.125a4,4,0,0,1,1.785,1l1.517-.883a2.259,2.259,0,0,1,.07-.722l.47-1.778a1,1,0,1,1,1.933.51l-.47,1.779a.249.249,0,0,0,.176.3l1.778.47a1,1,0,0,1-.51,1.934l-1.779-.47A2.284,2.284,0,0,1,14.3,12.974Z"/></svg>
