<?xml version="1.0" encoding="UTF-8"?>
<svg xmlns="http://www.w3.org/2000/svg" id="Layer_1" data-name="Layer 1" viewBox="0 0 24 24" width="512" height="512"><path d="M14.5,5A2.5,2.5,0,1,0,12,2.5,2.5,2.5,0,0,0,14.5,5ZM23,19a1,1,0,0,0-1,1,2,2,0,0,1-1.739,1.982L22.975,9.225a1,1,0,0,0-1.95-.45L20.512,11H19.13a1.006,1.006,0,0,1-.856-.484l-1.261-2.1A5.026,5.026,0,0,0,12.729,6H6.5A3.011,3.011,0,0,0,4.083,7.22L3.208,8.407a1,1,0,1,0,1.61,1.186l.874-1.187A1.006,1.006,0,0,1,6.5,8H9.461L7.7,12.273a3,3,0,0,0,1.175,3.676l3.658,2.308A1,1,0,0,1,13,19.1V22H7.238l1.2-3.48a1,1,0,1,0-1.85-.758L5.076,22H2.255l1.786-8.776a1,1,0,0,0-1.95-.448l-2.066,10A1,1,0,0,0,1,24H20a4,4,0,0,0,4-4A1,1,0,0,0,23,19Zm-9.4-2.434-1.175-.742,2.719-6.6c.055.074,1.415,2.325,1.415,2.325A3.016,3.016,0,0,0,19.13,13h.92L18.2,22H15V19.1A2.984,2.984,0,0,0,13.6,16.566Z"/></svg>
