<?xml version="1.0" encoding="UTF-8"?>
<svg xmlns="http://www.w3.org/2000/svg" id="Layer_1" data-name="Layer 1" viewBox="0 0 24 24" width="512" height="512"><path d="M14.515,5.776l3.71,3.71L4.881,22.828c-.75,.75-1.768,1.172-2.828,1.172H0v-2.053c0-1.061,.421-2.078,1.172-2.828L14.515,5.776ZM23.145,.855c-1.024-1.024-2.685-1.024-3.71,0l-3.507,3.507,3.71,3.71,3.507-3.507c1.024-1.024,1.024-2.685,0-3.71ZM12.266,5.196l-1.5-1.5-2.253,2.253c-.195,.195-.451,.293-.707,.293s-.512-.098-.707-.293c-.391-.391-.391-1.023,0-1.414l2.253-2.253-1.256-1.256C6.729-.342,4.513-.342,3.146,1.025L1.025,3.146c-1.367,1.367-1.367,3.583,0,4.95l4.171,4.171,7.071-7.071Zm-.533,13.609l4.171,4.171c1.367,1.367,3.583,1.367,4.95,0l2.121-2.121c1.367-1.367,1.367-3.583,0-4.95l-1.256-1.256-2.253,2.253c-.391,.391-1.023,.391-1.414,0-.195-.195-.293-.451-.293-.707s.098-.512,.293-.707l2.253-2.253-1.5-1.5-7.071,7.071Z"/></svg>
