<?xml version="1.0" encoding="UTF-8"?>
<svg xmlns="http://www.w3.org/2000/svg" id="Layer_1" data-name="Layer 1" viewBox="0 0 24 24" width="512" height="512"><path d="M17,5.5A2.5,2.5,0,1,1,19.5,8,2.5,2.5,0,0,1,17,5.5Zm5.332,14.99A1.991,1.991,0,0,1,21,21a2.253,2.253,0,0,1-2.058-1.333,1,1,0,0,0-1.884,0,2.255,2.255,0,0,1-4.116,0,1,1,0,0,0-1.884,0,2.255,2.255,0,0,1-4.116,0,1,1,0,0,0-1.884,0A2.253,2.253,0,0,1,3,21a1.991,1.991,0,0,1-1.332-.51A1,1,0,1,0,.332,21.977,3.981,3.981,0,0,0,3,23a4.375,4.375,0,0,0,3-1.225,4.286,4.286,0,0,0,6,0,4.286,4.286,0,0,0,6,0A4.375,4.375,0,0,0,21,23a3.981,3.981,0,0,0,2.668-1.023,1,1,0,1,0-1.336-1.487Zm-22-3.513A3.981,3.981,0,0,0,3,18a4.375,4.375,0,0,0,3-1.225,4.286,4.286,0,0,0,6,0,4.286,4.286,0,0,0,6,0A4.375,4.375,0,0,0,21,18a3.981,3.981,0,0,0,2.668-1.023,1,1,0,1,0-1.336-1.487A1.991,1.991,0,0,1,21,16a2.253,2.253,0,0,1-2.058-1.333,1,1,0,0,0-1.884,0,2.255,2.255,0,0,1-4.116,0,1,1,0,0,0-1.884,0,2.255,2.255,0,0,1-4.116,0,1,1,0,0,0-1.884,0A2.253,2.253,0,0,1,3,16a1.991,1.991,0,0,1-1.332-.51A1,1,0,1,0,.332,16.977Zm2.675-3.031a.465.465,0,0,0,.2-.087,3,3,0,0,1,5.594,0,.359.359,0,0,0,.406,0,3,3,0,0,1,5.594,0,.359.359,0,0,0,.406,0A3,3,0,0,1,18,11.942c.059,0,.118,0,.177.006l-6.162-8.86A4.949,4.949,0,0,0,7.909,1H3a.952.952,0,0,0-1,.942,1,1,0,0,0,1,1H7.909a3,3,0,0,1,2.463,1.287l.746.961L0,13.35A3,3,0,0,1,3.007,13.946Z"/></svg>
