<?xml version="1.0" encoding="UTF-8"?>
<svg xmlns="http://www.w3.org/2000/svg" id="Layer_1" data-name="Layer 1" viewBox="0 0 24 24" width="512" height="512"><path d="M23.944,12.669l-3.031-8.66c-.42-1.202-1.559-2.01-2.832-2.01h-5.081V1c-.006-1.308-1.995-1.307-2,0v1H5.919c-1.273,0-2.412,.808-2.832,2.009L.056,12.669c-.037,.106-.056,.632-.056,.632,0,2.506,1.871,4.567,4.26,4.692,1.241,.069,2.434-.371,3.338-1.229,.892-.846,1.402-2.036,1.402-3.264,0,0-.021-.732-.061-.842L5.794,4.008c.041-.005,.083-.008,.125-.008h5.081V22H5c-1.308,.006-1.307,1.995,0,2h14c1.308-.006,1.307-1.995,0-2h-6V4h5.081c.042,0,.084,.002,.125,.008l-3.146,8.65c-.04,.109-.061,.842-.061,.842,0,1.229,.511,2.418,1.402,3.264,2.809,2.701,7.648,.752,7.598-3.462,0,0-.019-.526-.056-.632Zm-17.372-.669H2.409l2.042-5.833,2.121,5.833Zm12.977-5.833l2.042,5.833h-4.163l2.121-5.833Z"/></svg>
