<?xml version="1.0" encoding="UTF-8"?>
<svg xmlns="http://www.w3.org/2000/svg" id="Layer_1" data-name="Layer 1" viewBox="0 0 24 24" width="512" height="512"><path d="M9,13v1H7a1,1,0,0,1-1-1V11.829A3,3,0,0,0,7,12H8A1,1,0,0,1,9,13Zm7-1a1,1,0,0,0-1,1v1h2a1,1,0,0,0,1-1V11.829A3.009,3.009,0,0,1,17,12Zm8,0v7a5.006,5.006,0,0,1-5,5h-.046l0-.007c-2.341,0-3.1-1.593-3.627-2.556l-.371-.681A3.369,3.369,0,0,0,12,19l-.022.033L11.956,19h0A3.368,3.368,0,0,0,9,20.756l-.371.681C8.1,22.4,7.34,23.993,5,23.993L5,24H5a5.006,5.006,0,0,1-5-5V12.365A12.248,12.248,0,0,1,11.775,0,12,12,0,0,1,24,12ZM11,13a3,3,0,0,0-3-3H7A1,1,0,0,1,6,9,1,1,0,0,0,4,9v4a3,3,0,0,0,3,3H9a2,2,0,0,0,2-2Zm9-4a1,1,0,0,0-2,0,1,1,0,0,1-1,1H16a3,3,0,0,0-3,3v1a2,2,0,0,0,2,2h2a3,3,0,0,0,3-3Z"/></svg>
