<?xml version="1.0" encoding="UTF-8"?>
<!-- Generator: Adobe Illustrator 24.3.0, SVG Export Plug-In . SVG Version: 6.00 Build 0)  -->
<svg xmlns="http://www.w3.org/2000/svg" xmlns:xlink="http://www.w3.org/1999/xlink" version="1.1" id="Layer_1" x="0px" y="0px" viewBox="0 0 512 512" style="enable-background:new 0 0 512 512;" xml:space="preserve" width="512" height="512">
<path d="M256,0.824C114.678,0.977,0.153,115.502,0,256.824c12.8,339.2,499.2,339.072,512,0C511.847,115.502,397.322,0.977,256,0.824  z M106.667,240.419c5.291-112.747,122.731-112.683,128,0c0,11.782-9.551,21.333-21.333,21.333c-11.782,0-21.333-9.551-21.333-21.333  c0-22.485-14.507-42.667-21.333-42.667c-6.827,0-21.333,20.181-21.333,42.667c0,11.782-9.551,21.333-21.333,21.333  S106.667,252.201,106.667,240.419z M376.875,341.667c-68.354,62.783-173.395,62.783-241.749,0  c-8.789-7.847-9.554-21.333-1.707-30.123s21.333-9.554,30.123-1.707c52.098,48.544,132.862,48.544,184.96,0  c8.973-7.636,22.437-6.552,30.073,2.421c7.392,8.687,6.644,21.652-1.699,29.43V341.667z M384,261.752  c-11.782,0-21.333-9.551-21.333-21.333c0-22.485-14.507-42.667-21.333-42.667S320,217.933,320,240.419  c0,11.782-9.551,21.333-21.333,21.333c-11.782,0-21.333-9.551-21.333-21.333c0-40.363,26.283-85.333,64-85.333s64,44.971,64,85.333  C405.333,252.201,395.782,261.752,384,261.752z"/>
</svg>
