<?xml version="1.0" encoding="UTF-8"?>
<svg xmlns="http://www.w3.org/2000/svg" id="Layer_1" data-name="Layer 1" viewBox="0 0 24 24" width="512" height="512"><path d="M14,7V.46c.913,.346,1.753,.879,2.465,1.59l3.484,3.486c.712,.711,1.245,1.551,1.591,2.464h-6.54c-.552,0-1-.449-1-1Zm-1,12h3v-2h-3v2Zm-5-4h3v-2h-3v2Zm0,4h3v-2h-3v2Zm13.976-9h-6.976c-1.654,0-3-1.346-3-3V.024c-.161-.011-.322-.024-.485-.024H7C4.243,0,2,2.243,2,5v14c0,2.757,2.243,5,5,5h10c2.757,0,5-2.243,5-5V10.485c0-.163-.013-.324-.024-.485Zm-3.976,9c0,1.103-.897,2-2,2H8c-1.103,0-2-.897-2-2v-6c0-1.103,.897-2,2-2h3c1.103,0,2,.897,2,2v2h3c1.103,0,2,.897,2,2v2Z"/></svg>
