<?xml version="1.0" encoding="UTF-8"?>
<svg xmlns="http://www.w3.org/2000/svg" id="Layer_1" data-name="Layer 1" viewBox="0 0 24 24" width="512" height="512"><path d="M23.666,22.728a1,1,0,0,1-1.413-.08A8.884,8.884,0,0,1,20,16.72V14H17.314A5.967,5.967,0,0,0,14,13H4a5.973,5.973,0,0,0-2.992.8l0-3.8A3.958,3.958,0,0,1,4,6.143V9a1,1,0,0,0,1,1H15a2,2,0,0,1,1.955,1.583,3.033,3.033,0,0,1,.035.407V12H20V8a1,1,0,0,1,2,0v8.72a6.89,6.89,0,0,0,1.745,4.6A1,1,0,0,1,23.666,22.728ZM18,19a4.005,4.005,0,0,1-4,4H4c-5.276-.139-5.272-7.862,0-8H14A4,4,0,0,1,18,19ZM6,19a1,1,0,0,0-2,0A1,1,0,0,0,6,19Zm4,0a1,1,0,0,0-2,0A1,1,0,0,0,10,19Zm4,0a1,1,0,0,0-2,0A1,1,0,0,0,14,19ZM12.12,3.357A4,4,0,0,0,8.468.99l.025,0A2.5,2.5,0,0,0,6,3.493V8h8.2Z"/></svg>
