<?xml version="1.0" encoding="UTF-8"?>
<svg xmlns="http://www.w3.org/2000/svg" id="Layer_1" data-name="Layer 1" viewBox="0 0 24 24" width="512" height="512"><path d="M19,9H14a5.006,5.006,0,0,0-5,5v5a5.006,5.006,0,0,0,5,5h5a5.006,5.006,0,0,0,5-5V14A5.006,5.006,0,0,0,19,9Zm-5,6a1,1,0,1,1,1-1A1,1,0,0,1,14,15Zm5,5a1,1,0,1,1,1-1A1,1,0,0,1,19,20ZM15.6,5,12.069,1.462A5.006,5.006,0,0,0,5,1.462L1.462,5a5.006,5.006,0,0,0,0,7.071L5,15.6a4.961,4.961,0,0,0,2,1.223V14a7.008,7.008,0,0,1,7-7h2.827A4.961,4.961,0,0,0,15.6,5ZM5,10A1,1,0,1,1,6,9,1,1,0,0,1,5,10ZM9,6a1,1,0,1,1,1-1A1,1,0,0,1,9,6Z"/></svg>
