<?xml version="1.0" encoding="UTF-8"?>
<svg xmlns="http://www.w3.org/2000/svg" id="Layer_1" data-name="Layer 1" viewBox="0 0 24 24" width="512" height="512"><path d="M2.446,5.825A7.168,7.168,0,0,1,2,4a4,4,0,0,1,8,0,7.168,7.168,0,0,1-.446,1.825A11.618,11.618,0,0,0,9,8H3A11.618,11.618,0,0,0,2.446,5.825ZM9.511,10H2.489c-.217.5-.48,1.012-.753,1.537A11.781,11.781,0,0,0,0,17a11.08,11.08,0,0,0,.986,4.7A4,4,0,0,0,4.61,24H7.39a4,4,0,0,0,3.624-2.3A11.08,11.08,0,0,0,12,17a11.781,11.781,0,0,0-1.736-5.463C9.991,11.012,9.728,10.5,9.511,10Zm4.935-4.175A7.168,7.168,0,0,1,14,4a4,4,0,0,1,8,0,7.168,7.168,0,0,1-.446,1.825A11.618,11.618,0,0,0,21,8H15A11.618,11.618,0,0,0,14.446,5.825ZM21.511,10H14.489c-.217.5-.48,1.012-.753,1.537A11.781,11.781,0,0,0,12,17a11.08,11.08,0,0,0,.986,4.7A4,4,0,0,0,16.61,24h2.78a4,4,0,0,0,3.624-2.3A11.08,11.08,0,0,0,24,17a11.781,11.781,0,0,0-1.736-5.463C21.991,11.012,21.728,10.5,21.511,10Z"/></svg>
