<?xml version="1.0" encoding="UTF-8"?>
<svg xmlns="http://www.w3.org/2000/svg" id="Layer_1" data-name="Layer 1" viewBox="0 0 24 24" width="512" height="512"><path d="M22.5,14H1.5a7.116,7.116,0,0,1,.424-.88L3.98,9.52A5.011,5.011,0,0,1,8.321,7h7.358A5.011,5.011,0,0,1,20.02,9.52l2.057,3.6A7.116,7.116,0,0,1,22.5,14Zm.473,2H19v1a1,1,0,0,1-2,0V16H7v1a1,1,0,0,1-2,0V16H1.026Q1,16.3,1,16.594V18a4,4,0,0,0,2,3.463V22a2,2,0,0,0,4,0H17a2,2,0,0,0,4,0v-.537A4,4,0,0,0,23,18V16.594Q23,16.3,22.974,16ZM12,5a2.013,2.013,0,0,0,1.414-3.414l-.8-.9a.817.817,0,0,0-1.222,0l-.8.9A2,2,0,0,0,12,5Zm5.985,0A2.013,2.013,0,0,0,19.4,1.586l-.8-.9a.818.818,0,0,0-1.223,0l-.8.9A2.013,2.013,0,0,0,17.985,5Zm-12,0A2.013,2.013,0,0,0,7.4,1.586l-.8-.9a.818.818,0,0,0-1.223,0l-.8.9A2.013,2.013,0,0,0,5.985,5Z"/></svg>
