<?xml version="1.0" encoding="UTF-8"?>
<svg xmlns="http://www.w3.org/2000/svg" id="Layer_1" data-name="Layer 1" viewBox="0 0 24 24" width="512" height="512"><path d="M13.892,24c-1.96,0-3.837-.008-4.491-.026a3.749,3.749,0,0,1-.834-.121,3.5,3.5,0,0,1-.449-6.588,6.366,6.366,0,0,1,.057-2.732,6,6,0,0,1,11.368-.855c.136.326.763.469.763.469h0a5.014,5.014,0,0,1,3.559,6,4.951,4.951,0,0,1-3.7,3.7,5.283,5.283,0,0,1-1.064.131C18.229,23.99,16.013,24,13.892,24ZM8.987,9.755a7.93,7.93,0,0,1,7.178-1.476,1.928,1.928,0,0,0,1.493-.21L20.105,6.64A1,1,0,1,0,19,4.972l-2.641,1.75c-.554.281-.843-.442-1.27-.717l1.843-3.146a1,1,0,0,0-1.727-1.011L13.384,4.963A6.137,6.137,0,0,0,12,4.577V1a1,1,0,0,0-2,0V4.58a6.5,6.5,0,0,0-1.326.363L6.831,1.834A1,1,0,0,0,5.11,2.854L6.944,5.947a6.718,6.718,0,0,0-.951.934l-3.1-1.814a1,1,0,1,0-1.01,1.725L4.962,8.6A6.206,6.206,0,0,0,4.575,10H1a1,1,0,0,0,0,2H4.576a6.425,6.425,0,0,0,.2.882.5.5,0,0,1-.3.54L1.768,15.034a1,1,0,0,0,1.023,1.719l2.59-1.513a1.739,1.739,0,0,0,.83-1.094A7.981,7.981,0,0,1,8.987,9.755Z"/></svg>
