<?xml version="1.0" encoding="UTF-8"?>
<svg xmlns="http://www.w3.org/2000/svg" id="Layer_1" data-name="Layer 1" viewBox="0 0 24 24" width="512" height="512"><path d="M15,7.5C15,3.364,11.636,0,7.5,0h-2.5C2.243,0,0,2.243,0,5V23c.006,1.308,1.995,1.307,2,0V15H7.412l4.714,8.485c.269,.487,.886,.655,1.359,.389,.483-.269,.657-.877,.389-1.359l-4.335-7.804c3.147-.891,5.461-3.783,5.461-7.211Zm-7.5,5.5H2V5c0-1.654,1.346-3,3-3h2.5c7.27,.232,7.265,10.77,0,11Zm16.5,8c0,1.654-1.346,3-3,3h-2.268c-1.067,0-2.063-.574-2.598-1.499-.277-.479-.113-1.09,.364-1.366,.48-.279,1.091-.113,1.366,.364,.179,.31,.511,.501,.867,.501h2.268c.997,.065,1.443-1.548,.356-1.76l-3.041-.507c-3.501-.651-2.748-5.753,.685-5.733h2.268c1.067,0,2.063,.574,2.598,1.499,.277,.479,.113,1.09-.364,1.366-.481,.277-1.091,.113-1.366-.364-.179-.31-.511-.501-.867-.501h-2.268c-.998-.065-1.443,1.55-.355,1.761l3.04,.507c1.342,.223,2.315,1.372,2.315,2.732Z"/></svg>
