<?xml version="1.0" encoding="UTF-8"?>
<svg xmlns="http://www.w3.org/2000/svg" id="Layer_1" data-name="Layer 1" viewBox="0 0 24 24" width="512" height="512"><path d="M24,20.5c0,1.93-1.57,3.5-3.5,3.5H3.5c-3.951-.009-4.805-5.612-1.085-6.81,4.524,6.35,14.648,6.348,19.17,0,1.397,.46,2.415,1.762,2.415,3.31Zm-2-10.5c0,5.514-4.486,10-10,10C-1.248,19.497-1.244,.501,12,0c5.514,0,10,4.486,10,10Zm-6,2c0-1.359-.974-2.51-2.315-2.733l-3.041-.506c-1.087-.211-.641-1.826,.356-1.761h2.268c.356,0,.688,.191,.867,.501,.277,.478,.89,.643,1.366,.364,.479-.276,.642-.888,.365-1.366-.535-.925-1.531-1.499-2.598-1.499h-.268v-1c-.006-1.308-1.995-1.307-2,0v1c-3.435-.019-4.184,5.083-.685,5.733l3.041,.506c1.087,.211,.641,1.826-.356,1.761h-2.268c-.356,0-.688-.191-.867-.501-.277-.478-.89-.643-1.366-.364-.479,.276-.642,.888-.365,1.366,.535,.925,1.531,1.499,2.598,1.499h.268v1c.006,1.308,1.995,1.307,2,0v-1c1.654,0,3-1.346,3-3Z"/></svg>
