<?xml version="1.0" encoding="UTF-8"?>
<svg xmlns="http://www.w3.org/2000/svg" id="Layer_1" data-name="Layer 1" viewBox="0 0 24 24" width="512" height="512"><path d="M19,12h5v7c0,2.757-2.243,5-5,5H5c-2.757,0-5-2.243-5-5v-7H5v1c0,.552,.447,1,1,1s1-.448,1-1v-1h10v1c0,.552,.447,1,1,1s1-.448,1-1v-1Zm5-3v1h-5v-1c0-.552-.447-1-1-1s-1,.448-1,1v1H7v-1c0-.552-.447-1-1-1s-1,.448-1,1v1H0v-1c0-2.757,2.243-5,5-5h1.101C6.566,1.721,8.586,0,11,0h2c2.414,0,4.434,1.721,4.899,4h1.101c2.757,0,5,2.243,5,5ZM8.184,4h7.631c-.414-1.161-1.514-2-2.816-2h-2c-1.302,0-2.402,.839-2.816,2Z"/></svg>
