<?xml version="1.0" encoding="UTF-8"?>
<svg xmlns="http://www.w3.org/2000/svg" id="Layer_1" data-name="Layer 1" viewBox="0 0 24 24" width="512" height="512"><path d="M21.672,14.366c.149-.291,.251-.608,.298-.942,.113-.794-.089-1.584-.57-2.226-.481-.641-1.183-1.056-1.976-1.169-.792-.111-1.583,.09-2.224,.57-.507,.38-.898,.848-1.2,1.336-.302-.487-.693-.956-1.2-1.336-.641-.48-1.431-.683-2.224-.57-.793,.113-1.495,.528-1.977,1.17-.48,.641-.683,1.431-.569,2.225,.048,.333,.149,.65,.298,.942-1.373,.634-2.328,2.024-2.328,3.634v2c0,2.206,1.794,4,4,4h3v-7c0-.54,.428-.979,.962-.999,.018,0,.037,0,.055,0,.544,.01,.982,.453,.982,1v7h3c2.206,0,4-1.794,4-4v-2c0-1.609-.955-2.999-2.328-3.634Zm-8.933-.366c-.123-.057-.237-.124-.339-.201-.213-.159-.352-.394-.39-.657-.038-.265,.029-.528,.189-.741,.161-.214,.395-.353,.659-.391s.527,.03,.742,.19c.614,.46,.965,1.19,1.163,1.8h-2.025Zm7.251-.858c-.038,.264-.176,.498-.391,.659-.101,.075-.214,.142-.336,.199h-2.026c.198-.61,.549-1.34,1.163-1.8,.213-.16,.475-.229,.742-.19,.264,.038,.498,.177,.658,.39,.161,.214,.228,.478,.19,.742Zm-13.99,4.858v2c0,1.535,.58,2.938,1.532,4h-2.532c-2.761,0-5-2.239-5-5V9c0-2.761,2.239-5,5-5h.586l-1.293-1.293c-.391-.391-.391-1.023,0-1.414s1.023-.391,1.414,0l1.293,1.293V1c0-.553,.448-1,1-1s1,.447,1,1v1.586l1.293-1.293c.391-.391,1.023-.391,1.414,0s.391,1.023,0,1.414l-1.293,1.293h.597c2.758,0,4.996,2.234,5,4.992l-.011,.008h0c-1.067-.8-2.383-1.14-3.706-.949-1.322,.188-2.492,.881-3.294,1.949-.76,1.014-1.103,2.252-.974,3.509-1.265,1.123-2.026,2.754-2.026,4.491Z"/></svg>
