<?xml version="1.0" encoding="UTF-8"?>
<svg xmlns="http://www.w3.org/2000/svg" id="Layer_1" data-name="Layer 1" viewBox="0 0 24 24" width="512" height="512"><path d="M17.212,7a6.055,6.055,0,0,1,3.079,3.327l-3.639,3.639-3.2-3.2Zm-2.159-.669h-.008l0,.011ZM8.776,15.439l3.2,3.2,3.259-3.259-3.2-3.2Zm1.845-4.673L6.835,6.98A6.064,6.064,0,0,0,3.7,10.361l3.664,3.664Zm-1,13.064a17.034,17.034,0,0,0,4.725.005L11.979,21.47Zm-6.48-11.2a18.7,18.7,0,0,0,.124,5.495l2.685-2.685Zm4.223,4.224L3.971,20.245a6.109,6.109,0,0,0,3.391,3.013l3.2-3.2Zm6.031,3.2,3.213,3.213A6.112,6.112,0,0,0,20.052,20.2l-3.4-3.4Zm7.464-7.465-2.791,2.792,2.681,2.681A18.792,18.792,0,0,0,20.857,12.591ZM17.9,1.553a1,1,0,0,0-1.342-.448A6.461,6.461,0,0,0,13,6V1a1,1,0,0,0-2,0V6A6.461,6.461,0,0,0,7.447,1.105,1,1,0,1,0,6.553,2.9a4.468,4.468,0,0,1,2.4,3.438H8.947L12,9.387l3.043-3.043a4.474,4.474,0,0,1,2.4-3.449A1,1,0,0,0,17.9,1.553Z"/></svg>
