<?xml version="1.0" encoding="UTF-8"?>
<svg xmlns="http://www.w3.org/2000/svg" id="Layer_1" data-name="Layer 1" viewBox="0 0 24 24" width="512" height="512"><path d="M6.907,15h14.093c1.308-.005,1.307-1.995,0-2H12.181l5.333-2h3.486c1.308-.005,1.307-1.995,0-2h-.889c1.69-2.35,.851-6.026-1.716-7.355-1.364-.75-3.581-1.645-6.395-1.645C6.647,0,3.428,3.158,3.293,3.293c-.39,.39-.39,1.02,0,1.41,.387,.391,1.021,.395,1.413,.007C6.796,2.541,12.807,.636,17.431,3.396c2.205,1.134,1.999,4.693-.318,5.604H3c-1.308,.005-1.307,1.995,0,2H11.817l-5.333,2H3c-1.308,.005-1.307,1.995,0,2h.93c-1.831,2.52-.806,6.437,2.023,7.746,5.801,2.971,13.349-.026,15.647-1.946,1.042-.789-.148-2.378-1.198-1.601-1.879,1.574-8.604,4.314-13.568,1.752-2.436-1.107-2.39-4.9,.074-5.951Z"/></svg>
