<?xml version="1.0" encoding="UTF-8"?>
<svg xmlns="http://www.w3.org/2000/svg" id="Layer_1" data-name="Layer 1" viewBox="0 0 24 24" width="512" height="512"><g><path d="M19,16a1,1,0,0,1-.8-1.6c.659-1.36,5.485-3.848,5.8-1.4a1,1,0,0,1-1,1,3.966,3.966,0,0,0-3.2,1.6A1,1,0,0,1,19,16Zm-2.707-3a1,1,0,0,1-.745-1.667A10.012,10.012,0,0,1,23,8a1,1,0,0,1,0,2,8.012,8.012,0,0,0-5.963,2.667A1,1,0,0,1,16.292,13Zm-2.673-3A1,1,0,0,1,12.9,8.308,13.883,13.883,0,0,1,23,4a1,1,0,0,1,0,2,11.9,11.9,0,0,0-8.659,3.692A1,1,0,0,1,13.619,10ZM10,8.045A1,1,0,0,1,9.236,6.4,17.974,17.974,0,0,1,23,0a1,1,0,0,1,0,2A15.979,15.979,0,0,0,10.764,7.689,1,1,0,0,1,10,8.045Z"/><path d="M7.9,23.984c-3.687-.11-6.613.709-7.773-2.592a3.626,3.626,0,0,1,2-4.258,6,6,0,0,1,11.424-3.471c.137.325.287.359.588.427l.176.042h0a5.012,5.012,0,0,1,3.559,6,4.949,4.949,0,0,1-3.7,3.7,5.277,5.277,0,0,1-1.066.132C12.23,23.975,10.015,23.984,7.9,23.984Z"/></g></svg>
