<?xml version="1.0" encoding="UTF-8"?>
<svg xmlns="http://www.w3.org/2000/svg" id="Layer_1" data-name="Layer 1" viewBox="0 0 24 24" width="512" height="512"><path d="M.98,8.733A4.984,4.984,0,0,1,3.388,4.357L10.26.74A4.955,4.955,0,0,1,15.2.688L19.49,3.509a5.439,5.439,0,0,1,.852.611L1.809,14.674c-.058-.278-.1-.532-.136-.737C1.673,13.937.981,8.77.98,8.733Zm17.826-.245A1,1,0,0,1,17.093,9.52l-.56-.929L7.565,13.7l.461.751a1,1,0,1,1-1.7,1.047l-.5-.808L2.414,16.632a4.832,4.832,0,0,0,.257.5l.533,1.03A3.98,3.98,0,0,0,8.121,19.8l.146.241a1.987,1.987,0,1,0,3.405-2.05l-.066-.111,7.01-3.929.193.321a1.988,1.988,0,1,0,3.406-2.051l-.233-.386a3.924,3.924,0,0,0,.553-4.71L22,6.091c-.094-.155-.2-.3-.3-.443L18.272,7.6ZM23,22H1a1,1,0,0,0,0,2H23A1,1,0,0,0,23,22Z"/></svg>
