<?xml version="1.0" encoding="UTF-8"?>
<svg xmlns="http://www.w3.org/2000/svg" id="Layer_1" data-name="Layer 1" viewBox="0 0 24 24" width="512" height="512"><path d="M15.9,16.093A2.99,2.99,0,0,0,13.036,14H10.964A2.99,2.99,0,0,0,8.1,16.093l-.672,2.119C7.205,19.31,6.256,21.814,8,22v1a1,1,0,0,0,2,0V22h4v1a1,1,0,0,0,2,0V22c1.744-.188.8-2.688.568-3.789ZM10.964,16h2.072a1,1,0,0,1,.953.7L14.4,18H9.6l.414-1.3A1,1,0,0,1,10.964,16ZM24,9.762v9.365a5.009,5.009,0,0,1-3.748,4.841A1,1,0,0,1,19,22.994V13a3,3,0,0,0-3-3H8a3,3,0,0,0-3,3v9.994a1,1,0,0,1-1.252.974A5.009,5.009,0,0,1,0,19.127V9.762A5,5,0,0,1,2.2,5.618L9.2.894a5,5,0,0,1,5.594,0l7,4.724A5,5,0,0,1,24,9.762Z"/></svg>
