<?xml version="1.0" encoding="UTF-8"?>
<svg xmlns="http://www.w3.org/2000/svg" id="Layer_1" data-name="Layer 1" viewBox="0 0 24 24" width="512" height="512"><path d="M18.5,0A2.5,2.5,0,1,0,21,2.5,2.5,2.5,0,0,0,18.5,0ZM8.707,18.474,5.685,21.5l.2.2a.99.99,0,0,0,.7.3.944.944,0,0,0,.71-.286,1,1,0,0,1,1.4,1.429A2.982,2.982,0,0,1,6.6,24H6.57a2.981,2.981,0,0,1-2.112-.9l-2.8-2.856a1,1,0,1,1,1.428-1.4l1.2,1.224L7.293,17.06a1,1,0,0,1,1.414,1.414ZM18,20a1,1,0,0,0-1,1,1,1,0,0,1-1,1V18.845a1,1,0,0,0-.312-.725l-3.4-3.229,4.83-4.829h0a3,3,0,0,0-.1-4.338l-.67-.56A5.011,5.011,0,0,0,13.145,4H5A1,1,0,0,0,5,6h7.781L9,9.783a3.35,3.35,0,0,0,.062,4.8L14,19.274V22H12a1,1,0,0,0,0,2h4a3,3,0,0,0,3-3A1,1,0,0,0,18,20Z"/></svg>
