<?xml version="1.0" encoding="UTF-8"?>
<svg xmlns="http://www.w3.org/2000/svg" id="Layer_1" data-name="Layer 1" viewBox="0 0 24 24" width="512" height="512"><path d="M6,18c-.257,0-.514-.099-.709-.295-.39-.392-.388-1.025,.004-1.415l6.001-5.964c.391-.388,1.02-.387,1.41,0l5.999,5.964c.392,.389,.394,1.022,.004,1.414-.389,.393-1.021,.395-1.414,.004l-5.294-5.263-5.296,5.264c-.195,.194-.45,.291-.705,.291Zm12-6.262c-.254,0-.508-.096-.702-.289l-3.93-3.88c-.738-.737-2.003-.733-2.731-.004l-3.935,3.884c-.393,.388-1.024,.385-1.414-.009-.388-.393-.384-1.026,.01-1.414l3.93-3.88c.736-.738,1.723-1.146,2.772-1.146s2.036,.409,2.777,1.151l3.925,3.875c.394,.388,.397,1.021,.01,1.414-.196,.198-.454,.297-.712,.297Z"/></svg>
