<?xml version="1.0" encoding="UTF-8"?>
<svg xmlns="http://www.w3.org/2000/svg" id="Layer_1" data-name="Layer 1" viewBox="0 0 24 24" width="512" height="512"><path d="M12,9c-2.481,0-4.5-2.019-4.5-4.5S9.519,0,12,0s4.5,2.019,4.5,4.5-2.019,4.5-4.5,4.5Zm10.204,2.162c-1.141-.953-2.629-1.348-4.157-1.069l-1.764,.432c-1.902,.347-3.283,2.002-3.283,3.936v7.467c-.664,.097-1.336,.097-2,0v-7.467c0-1.934-1.381-3.589-3.226-3.923l-1.88-.457c-1.464-.263-2.956,.128-4.099,1.081-1.142,.953-1.796,2.352-1.796,3.838v2.792c0,2.417,1.727,4.486,4.105,4.919l6.285,1.143c.534,.097,1.071,.146,1.609,.146s1.075-.048,1.609-.146l6.285-1.143c2.379-.433,4.105-2.502,4.105-4.919v-2.792c0-1.487-.654-2.886-1.796-3.838Z"/></svg>
