<?xml version="1.0" encoding="UTF-8"?>
<svg xmlns="http://www.w3.org/2000/svg" id="Layer_1" data-name="Layer 1" viewBox="0 0 24 24" width="512" height="512"><path d="M23.983,21.926a32.651,32.651,0,0,0-.608-5.545A3,3,0,0,0,20.439,14h-2.1s-.343-4.126-.346-4.147l.436-.033c.949-.138,1.682-.181,2.139-1.025a3.02,3.02,0,0,0,.156-2.71C19.084,2.559,14.786,0,10.5,0A10.512,10.512,0,0,0,0,10.5a39.043,39.043,0,0,0,.587,5.155,4.99,4.99,0,0,0,3.457,3.989c.514.161,1.02.311,1.519.458A21.1,21.1,0,0,1,9.3,21.569,4.073,4.073,0,0,0,11.121,22,3.975,3.975,0,0,0,13.9,20.877l1.1-.877h1.834l.071.855a2.978,2.978,0,0,0,2.137,2.631A25.208,25.208,0,0,0,21.979,24a2.013,2.013,0,0,0,2-2.074ZM9,18a1,1,0,1,1,1-1A1,1,0,0,1,9,18Zm11.439-2a.994.994,0,0,1,.977.783c.061.3.138.709.215,1.217H18.667L18.5,16Zm-8.353-3.74a2.854,2.854,0,0,1,2.338-2.142L16,10c0,.027.329,4,.329,4H12.2A2.864,2.864,0,0,1,12.086,12.26Zm2.9,5.74-1.437-2H16.5l.166,2ZM19.6,21.567a.99.99,0,0,1-.707-.878L18.833,20h3.034c.053.608.094,1.277.113,2A11.842,11.842,0,0,1,19.6,21.567Z"/></svg>
