<?xml version="1.0" encoding="UTF-8"?>
<!-- Generator: Adobe Illustrator 25.0.0, SVG Export Plug-In . SVG Version: 6.00 Build 0)  -->
<svg xmlns="http://www.w3.org/2000/svg" xmlns:xlink="http://www.w3.org/1999/xlink" version="1.1" id="Capa_1" x="0px" y="0px" viewBox="0 0 512 512" style="enable-background:new 0 0 512 512;" xml:space="preserve" width="512" height="512">
<g>
	<path d="M256,512c141.385,0,256-114.615,256-256S397.385,0,256,0S0,114.615,0,256C0.153,397.322,114.678,511.847,256,512z    M150.4,150.4c58.363-58.22,152.837-58.22,211.2,0c8.185,8.475,7.95,21.98-0.524,30.165c-8.267,7.985-21.374,7.985-29.641,0   c-41.661-41.65-109.199-41.642-150.849,0.02s-41.642,109.199,0.02,150.849c41.654,41.643,109.176,41.643,150.83,0   c8.475-8.185,21.98-7.95,30.165,0.525c7.984,8.267,7.984,21.373,0,29.641c-58.321,58.321-152.879,58.321-211.2,0   C92.079,303.279,92.079,208.721,150.4,150.4L150.4,150.4z"/>
</g>















</svg>
