<?xml version="1.0" encoding="UTF-8"?>
<svg xmlns="http://www.w3.org/2000/svg" id="Layer_1" data-name="Layer 1" viewBox="0 0 24 24" width="512" height="512"><path d="M12.74,.045C9.264-.189,5.864,1.083,3.412,3.537,.96,5.993-.308,9.394-.067,12.871c.44,6.354,6.052,11.146,13.054,11.146h5.917c2.757,0,5-2.243,5-5v-6.66C23.904,5.878,19,.47,12.74,.045Zm4.26,10.955c-.552,0-1-.447-1-1s-.449-1-1-1h-2v8h1c.552,0,1,.447,1,1s-.448,1-1,1h-4c-.552,0-1-.447-1-1s.448-1,1-1h1V9h-2c-.551,0-1,.448-1,1s-.448,1-1,1-1-.447-1-1c0-1.654,1.346-3,3-3h6c1.654,0,3,1.346,3,3,0,.553-.448,1-1,1Z"/></svg>
