<?xml version="1.0" encoding="UTF-8"?>
<svg xmlns="http://www.w3.org/2000/svg" id="Layer_1" data-name="Layer 1" viewBox="0 0 24 24" width="512" height="512"><path d="M18.16,24H5.84a5.014,5.014,0,0,1-4.9-4.018L.059,15.587A3.017,3.017,0,0,1,3,12H21a3,3,0,0,1,2.942,3.587l-.878,4.392A5.014,5.014,0,0,1,18.16,24Zm4.483-18.06a3.45,3.45,0,0,0-3.27-1.922c1.269-4.029-4.362-5.756-5.4-1.713l-.079.4a2.975,2.975,0,0,0-3.8,0l-.079-.4C8.987-1.744,3.358-.011,4.627,4.015A3.477,3.477,0,0,0,1.186,8.583L1.677,10H3.8L3.077,7.934A1.463,1.463,0,0,1,5,6.118L5.686,10H11V5a1,1,0,1,1,2,0v5h5.314L19,6.118a1.463,1.463,0,0,1,1.922,1.816L20.2,10h2.118C22.805,8.746,23.37,7.212,22.643,5.937Z"/></svg>
