<?xml version="1.0" encoding="UTF-8"?>
<svg xmlns="http://www.w3.org/2000/svg" id="Layer_1" data-name="Layer 1" viewBox="0 0 24 24" width="512" height="512"><path d="M24,15v6.5c0,1.381-1.119,2.5-2.5,2.5s-2.5-1.119-2.5-2.5,1.119-2.5,2.5-2.5c.171,0,.338,.018,.5,.05v-4.05c0-.551-.448-1-1-1h-3c-.552,0-1,.449-1,1v6.5c0,1.381-1.119,2.5-2.5,2.5s-2.5-1.119-2.5-2.5,1.119-2.5,2.5-2.5c.171,0,.338,.018,.5,.05v-4.05c0-1.654,1.346-3,3-3h3c1.654,0,3,1.346,3,3Zm-15.104-3.157c-.562-.808-.896-1.786-.896-2.843V5c0-2.757,2.243-5,5-5h6c1.709,0,3.217,.864,4.119,2.175l-4.962,4.994-.475-.479c-.736-.738-1.894-.792-2.711-.111l-6.075,5.265Zm1.091-8.228c0,.828,.672,1.5,1.5,1.5s1.5-.672,1.5-1.5-.672-1.5-1.5-1.5-1.5,.672-1.5,1.5Zm.013,17.885c0,.925,.281,1.785,.76,2.5H4.5c-2.485,0-4.5-2.015-4.5-4.5v-5c0-2.485,2.015-4.5,4.5-4.5h.766c.448,0,.848,.296,.958,.73,.769,3.024,3.501,5.264,6.764,5.27l.012,.002v1.291c-1.743,.616-3,2.252-3,4.207Zm-6-1.5h-1.945c.2,.977,.968,1.75,1.945,1.95v-1.95Zm0-4H2v2h2v-2Zm0-3.95c-.978,.199-1.745,.972-1.945,1.95h1.945v-1.95ZM23.919,4.203l-4.351,4.374c-.781,.781-2.051,.781-2.83,.002l-.476-.48-5.909,5.126c.77,.484,1.672,.775,2.646,.775h.101c.465-2.279,2.484-4,4.899-4h3c.979,0,1.885,.293,2.657,.781,.213-.555,.343-1.152,.343-1.781V5c0-.273-.038-.536-.081-.797Z"/></svg>
