<?xml version="1.0" encoding="UTF-8"?>
<svg xmlns="http://www.w3.org/2000/svg" id="Layer_1" data-name="Layer 1" viewBox="0 0 24 24" width="512" height="512"><path d="M12.836,.028C9.364-.205,5.96,1.066,3.509,3.521,1.057,5.977-.211,9.378,.03,12.854c.44,6.354,6.052,11.146,13.054,11.146h5.917c2.757,0,5-2.243,5-5v-6.66C24,5.861,19.096,.454,12.836,.028ZM7.878,13.482c-.16,.899-1.019,1.552-2.04,1.552-.814,0-1.597-.354-2.124-.92-.1-.111-.164-.254-.164-.414,0-.345,.28-.625,.625-.625,.183,0,.343,.081,.458,.206,.286,.315,.738,.503,1.206,.503,.448,0,.764-.265,.81-.521,.062-.345-.451-.562-.61-.621-.752-.277-1.43-.58-1.43-.58-.6-.382-.864-.969-.777-1.579,.094-.649,.568-1.178,1.239-1.38,.236-.071,.464-.101,.68-.101,.993-.003,1.729,.614,1.766,.645,.142,.115,.239,.283,.239,.48,0,.345-.28,.625-.625,.625-.157,0-.296-.063-.405-.158-.021-.017-.437-.332-.946-.34-.112-.002-.23,.012-.349,.047-.293,.088-.351,.282-.362,.361-.008,.059-.013,.206,.13,.302,.016,0,.614,.263,1.272,.506,1.223,.451,1.529,1.336,1.408,2.014Zm7.122,.893c0,.345-.28,.625-.625,.625s-.625-.28-.625-.625h-.003v-3.267l-1.281,1.388c-.251,.272-.681,.272-.932,0l-1.282-1.389-.002,3.269c0,.345-.28,.625-.625,.625s-.625-.28-.625-.625v-4.75c0-.345,.28-.625,.625-.625,.445,0,.772,.165,1.023,.452l1.352,1.548,1.333-1.526c.263-.301,.643-.473,1.042-.474,.345,0,.625,.28,.625,.625l-.003,4.734,.003,.016Zm5.436-.893c-.16,.899-1.019,1.552-2.04,1.552-.814,0-1.597-.354-2.124-.92-.1-.111-.164-.254-.164-.414,0-.345,.28-.625,.625-.625,.183,0,.343,.081,.458,.206,.286,.315,.738,.503,1.206,.503,.448,0,.764-.265,.81-.521,.062-.345-.451-.562-.61-.621-.752-.277-1.43-.58-1.43-.58-.6-.382-.864-.969-.777-1.579,.094-.649,.568-1.178,1.239-1.38,.236-.071,.464-.101,.68-.101,.993-.003,1.729,.614,1.766,.645,.142,.115,.239,.283,.239,.48,0,.345-.28,.625-.625,.625-.157,0-.296-.063-.405-.158-.021-.017-.437-.332-.946-.34-.112-.002-.23,.012-.349,.047-.293,.088-.351,.282-.362,.361-.008,.059-.013,.206,.13,.302,.016,0,.614,.263,1.272,.506,1.223,.451,1.529,1.336,1.408,2.014Z"/></svg>
