<?xml version="1.0" encoding="UTF-8"?>
<svg xmlns="http://www.w3.org/2000/svg" id="Layer_1" data-name="Layer 1" viewBox="0 0 24 24" width="512" height="512"><path d="M22.611,23.313c-.345,.437-.86,.687-1.415,.687H2.804c-.555,0-1.07-.25-1.415-.687-.345-.438-.469-.999-.339-1.541,.153-.639,.577-1.236,.95-1.772H22c.373,.537,.797,1.134,.95,1.771,.13,.543,.006,1.104-.339,1.542Zm-1.683-15.942l.698-1.744,1.744-.698c.38-.152,.629-.52,.629-.929s-.249-.776-.629-.929l-1.744-.698-.698-1.744c-.152-.38-.52-.629-.929-.629s-.776,.249-.929,.629l-.694,1.734-1.731,.655c-.382,.146-.638,.508-.646,.917s.234,.781,.611,.94l1.758,.74,.702,1.755c.152,.38,.52,.629,.929,.629s.776-.249,.929-.629Zm1.732,.997c.213,.857,.339,1.748,.339,2.671,0,2.644-.942,5.061-2.493,6.962H3.419c-1.552-1.901-2.496-4.316-2.496-6.962C.923,4.942,5.865,0,11.962,0c1.597,0,3.111,.346,4.482,.956l-.51,.193c-1.151,.438-1.91,1.518-1.934,2.748-.023,1.233,.696,2.341,1.835,2.821l.987,.416,.393,.98c.459,1.146,1.553,1.885,2.785,1.885,1.137,0,2.15-.634,2.661-1.632Zm-7.161,3.132c0-.459-.312-.858-.758-.97l-1.418-.354-.354-1.418c-.111-.445-.511-.758-.97-.758s-.859,.312-.97,.758l-.352,1.405-1.404,.324c-.446,.104-.766,.498-.774,.957-.008,.459,.297,.864,.74,.983l1.433,.385,.357,1.43c.111,.445,.511,.758,.97,.758s.858-.312,.97-.758l.354-1.418,1.418-.354c.445-.111,.758-.511,.758-.97Z"/></svg>
