<?xml version="1.0" encoding="UTF-8"?>
<svg xmlns="http://www.w3.org/2000/svg" id="Layer_1" data-name="Layer 1" viewBox="0 0 24 24" width="512" height="512"><path d="M17.368,8.019A5.227,5.227,0,0,0,18,5.546,5.793,5.793,0,0,0,12,0,5.793,5.793,0,0,0,6,5.546a5.23,5.23,0,0,0,.632,2.473,5.994,5.994,0,0,0-.526,11.912,5.942,5.942,0,0,0,4.816-1.454C10.729,20.853,10.078,22,8,22H6a1,1,0,0,0,0,2H18a1,1,0,0,0,0-2H16c-2.078,0-2.729-1.147-2.922-3.523a5.943,5.943,0,0,0,4.816,1.454,5.994,5.994,0,0,0-.526-11.912ZM11.971,22c.009-.016.02-.031.029-.047.009.016.02.031.029.047Z"/></svg>
