<?xml version="1.0" encoding="UTF-8"?>
<svg xmlns="http://www.w3.org/2000/svg" id="Layer_1" data-name="Layer 1" viewBox="0 0 24 24" width="512" height="512"><path d="M23.94,14.658l-3.005-8.265c-.461-1.267-1.519-2.21-2.829-2.523l-5.105-1.221V1c-.006-1.308-1.994-1.307-2,0v1.17L6.531,1.102c-1.514-.404-3.061,.404-3.59,1.869L.063,10.649c-.042,.112-.063,.653-.063,.653,0,2.506,1.871,4.567,4.26,4.692,1.251,.063,2.434-.372,3.338-1.229,.891-.846,1.402-2.036,1.402-3.264,0,0-.022-.745-.067-.859L6.006,3.032c.012,.002,4.994,1.194,4.994,1.194V22H5c-1.308,.006-1.307,1.994,0,2h14c1.308-.006,1.307-1.994,0-2h-6V4.705l4.641,1.11c.198,.047,.384,.124,.554,.224l-3.135,8.619c-.04,.109-.06,.644-.06,.644-.078,3.923,4.749,6.268,7.597,3.462,.892-.846,1.403-2.036,1.403-3.264,0,0,0-.538-.06-.842ZM6.544,10H2.443l2.024-5.401,2.078,5.401Zm12.956-1.699l2.072,5.699h-4.145l2.072-5.699Z"/></svg>
