<?xml version="1.0" encoding="UTF-8"?>
<svg xmlns="http://www.w3.org/2000/svg" id="Layer_1" data-name="Layer 1" viewBox="0 0 24 24" width="512" height="512"><path d="M.332,17.978A4.185,4.185,0,0,0,6,17.774a4.334,4.334,0,0,0,6,0,4.334,4.334,0,0,0,6,0,4.185,4.185,0,0,0,5.668.2,1,1,0,1,0-1.335-1.489,2.2,2.2,0,0,1-3.39-.822,1.006,1.006,0,0,0-1.886,0,2.278,2.278,0,0,1-4.114,0,1.006,1.006,0,0,0-1.886,0,2.278,2.278,0,0,1-4.114,0,1.006,1.006,0,0,0-1.886,0,2.2,2.2,0,0,1-3.389.822A1,1,0,0,0,.332,17.978Zm22,3.511a2.2,2.2,0,0,1-3.39-.822,1.006,1.006,0,0,0-1.886,0,2.278,2.278,0,0,1-4.114,0,1.006,1.006,0,0,0-1.886,0,2.278,2.278,0,0,1-4.114,0,1.006,1.006,0,0,0-1.886,0,2.2,2.2,0,0,1-3.389.822A1,1,0,0,0,.332,22.978,4.185,4.185,0,0,0,6,22.774a4.334,4.334,0,0,0,6,0,4.334,4.334,0,0,0,6,0,4.185,4.185,0,0,0,5.668.2,1,1,0,1,0-1.335-1.489Zm-6.628-18.2-3-3a1,1,0,0,0-1.414,0l-3,3A1,1,0,0,0,9.705,4.708L11,3.415V11a1,1,0,0,0,2,0V3.415l1.3,1.293a1,1,0,0,0,1.413-1.415h0Z"/></svg>
