<?xml version="1.0" encoding="UTF-8"?>
<svg xmlns="http://www.w3.org/2000/svg" id="Layer_1" data-name="Layer 1" viewBox="0 0 24 24" width="512" height="512"><path d="M23.938,10.654l-3.071-8.335c-.423-1.151-1.634-1.781-2.824-1.465l-5.043,1.345V1c-.006-1.308-1.994-1.307-2,0v1.732l-5.254,1.401c-1.255,.335-2.273,1.263-2.723,2.482L.062,14.654c-.041,.111-.062,.647-.062,.647-.078,3.924,4.749,6.267,7.598,3.462,.891-.846,1.402-2.036,1.402-3.264,0,0-.021-.732-.06-.842L5.87,6.216c.124-.063,.255-.114,.392-.15l4.738-1.264V22H5c-1.308,.006-1.307,1.994,0,2h14c1.308-.006,1.307-1.994,0-2h-6V4.268l4.896-1.306-2.834,7.691c-.041,.111-.062,.647-.062,.647,0,2.506,1.871,4.567,4.26,4.692,1.249,.066,2.434-.371,3.338-1.229,.891-.846,1.402-2.036,1.402-3.264,0,0-.021-.735-.062-.846ZM6.572,14H2.434l2.083-5.653,2.056,5.653ZM19.5,4.393l2.066,5.607h-4.132l2.066-5.607Z"/></svg>
