<?xml version="1.0" encoding="UTF-8"?>
<svg xmlns="http://www.w3.org/2000/svg" id="Layer_1" data-name="Layer 1" viewBox="0 0 24 24" width="512" height="512"><path d="M20,10.5a10.01,10.01,0,0,0-2,.273A5.006,5.006,0,0,0,13,6h-.272A9.929,9.929,0,0,0,13,4,4,4,0,0,0,5,4a9.929,9.929,0,0,0,.272,2H5a5,5,0,0,0-5,5v8a5,5,0,0,0,5,5H6.224a.772.772,0,0,0,.748-.975C6.623,21.766,6,21,6,20a3,3,0,0,1,6,0c0,1-.632,1.768-.973,3.029a.772.772,0,0,0,.748.971H13a5,5,0,0,0,5-5v-.772a10.02,10.02,0,0,0,2,.272,4,4,0,0,0,0-8Z"/></svg>
