<?xml version="1.0" encoding="UTF-8"?>
<svg xmlns="http://www.w3.org/2000/svg" id="Layer_1" data-name="Layer 1" viewBox="0 0 24 24" width="512" height="512"><path d="M19,2H5C2.243,2,0,4.243,0,7v7c0,2.757,2.243,5,5,5h6v1h-3c-.552,0-1,.447-1,1s.448,1,1,1h8c.553,0,1-.447,1-1s-.447-1-1-1h-3v-1h6c2.757,0,5-2.243,5-5V7c0-2.757-2.243-5-5-5Zm-4,6h-1v4.5c0,1.381-1.119,2.5-2.5,2.5s-2.5-1.119-2.5-2.5,1.119-2.5,2.5-2.5c.171,0,.338,.018,.5,.05v-2.05c0-1.103,.897-2,2-2h1c.553,0,1,.448,1,1s-.447,1-1,1Z"/></svg>
