<?xml version="1.0" encoding="UTF-8"?>
<svg xmlns="http://www.w3.org/2000/svg" id="Layer_1" data-name="Layer 1" viewBox="0 0 24 24" width="512" height="512"><path d="M13,4H5C2.243,4,0,6.243,0,9v6c0,2.757,2.243,5,5,5H13c2.757,0,5-2.243,5-5v-6c0-2.757-2.243-5-5-5Zm-.293,5.707l-4.293,4.293h2.586c.552,0,1,.448,1,1s-.448,1-1,1h-3c-1.654,0-3-1.346-3-3v-3c0-.552,.448-1,1-1s1,.448,1,1v2.586l4.293-4.293c.391-.391,1.023-.391,1.414,0s.391,1.023,0,1.414Zm11.292-1.394v7.319c0,.757-.42,1.437-1.097,1.775-.283,.141-.587,.211-.889,.211-.421,0-.837-.135-1.189-.399-.037-.028-.825-.81-.825-.81V7.544s.786-.789,.825-.818c.604-.454,1.399-.527,2.078-.188s1.097,1.018,1.097,1.775Z"/></svg>
