<?xml version="1.0" encoding="UTF-8"?>
<svg xmlns="http://www.w3.org/2000/svg" id="Layer_1" data-name="Layer 1" viewBox="0 0 24 24" width="512" height="512"><path d="M4.395,16.061c-.87,.104-1.696,.437-2.395,.964V5c0-2.376,1.672-4.425,4-4.9v15.9h-1c-.203,0-.406,.02-.605,.061Zm-2.395,4.939c0,1.657,1.343,3,3,3h12c2.761,0,5-2.239,5-5v-1H5c-1.657,0-3,1.343-3,3ZM22,5v11H8V0h9c2.761,0,5,2.239,5,5Zm-2.867,1.907l-1.613-1.614c-.391-.391-1.023-.391-1.414,0-.391,.39-.391,1.023,0,1.414l1.293,1.293h-6.398c-.553,0-1,.448-1,1s.447,1,1,1h6.398l-1.293,1.293c-.391,.391-.391,1.024,0,1.414,.195,.195,.451,.293,.707,.293s.512-.098,.707-.293l1.613-1.614c1.154-1.154,1.154-3.032,0-4.187Z"/></svg>
