<?xml version="1.0" encoding="UTF-8"?>
<svg xmlns="http://www.w3.org/2000/svg" id="Layer_1" data-name="Layer 1" viewBox="0 0 24 24" width="512" height="512"><path d="M12.836,.029C9.364-.208,5.961,1.064,3.509,3.521,1.057,5.976-.211,9.378,.03,12.854c.44,6.354,6.052,11.146,13.054,11.146h5.917c2.757,0,5-2.243,5-5v-6.66C24,5.861,19.096,.454,12.836,.029ZM7.291,12.757l2.535,2.536c.391,.391,.391,1.024,0,1.414-.195,.195-.451,.293-.707,.293s-.512-.098-.707-.293l-2.535-2.536c-.565-.565-.876-1.318-.876-2.121s.312-1.556,.876-2.121l2.636-2.636c.391-.391,1.023-.391,1.414,0,.391,.39,.391,1.023,0,1.414l-2.636,2.636c-.39,.39-.39,1.024,0,1.414Zm10.833,1.414l-2.536,2.536c-.195,.195-.451,.293-.707,.293s-.512-.098-.707-.293c-.391-.391-.391-1.023,0-1.414l2.536-2.536c.39-.39,.39-1.024,0-1.414l-2.636-2.636c-.391-.391-.391-1.024,0-1.414,.391-.391,1.023-.391,1.414,0l2.636,2.636c.565,.565,.876,1.318,.876,2.121s-.312,1.556-.876,2.121Z"/></svg>
