<?xml version="1.0" encoding="UTF-8"?>
<svg xmlns="http://www.w3.org/2000/svg" id="Layer_1" data-name="Layer 1" viewBox="0 0 24 24" width="512" height="512"><path d="M24,8H0v-1C0,4.243,2.243,2,5,2h1V1c0-.552,.447-1,1-1s1,.448,1,1v1h8V1c0-.552,.447-1,1-1s1,.448,1,1v1h1c2.757,0,5,2.243,5,5v1Zm-14,14.545c0-.892,.187-1.753,.535-2.545H6c-.553,0-1-.448-1-1s.447-1,1-1c0,0,4.022,0,5.92,.001l2.001-2.001H6c-.553,0-1-.448-1-1s.447-1,1-1H15.922l2.741-2.741c.812-.812,1.891-1.259,3.039-1.259H0v9c0,2.757,2.243,5,5,5h5v-1.455Zm10.077-9.872c.897-.897,2.353-.897,3.25,0,.897,.897,.897,2.353,0,3.25l-6.807,6.807c-.813,.813-1.915,1.27-3.065,1.27h-1.455v-1.455c0-1.15,.457-2.252,1.27-3.065l6.807-6.807Z"/></svg>
