<?xml version="1.0" encoding="UTF-8"?>
<!-- Generator: Adobe Illustrator 24.3.0, SVG Export Plug-In . SVG Version: 6.00 Build 0)  -->
<svg xmlns="http://www.w3.org/2000/svg" xmlns:xlink="http://www.w3.org/1999/xlink" version="1.1" id="Layer_1" x="0px" y="0px" viewBox="0 0 512 512" style="enable-background:new 0 0 512 512;" xml:space="preserve" width="512" height="512">
<path d="M511.822,254.941c0.011,25.302-3.735,50.465-11.115,74.667c-12.016-4.27-24.91-5.458-37.504-3.456  c-22.373-27.55-60.663-36.268-92.757-21.12c-21.303,10.128-37.661,28.369-45.419,50.645c-12.203,34.411-2.624,80.256,27.925,136.149  C190.222,562.354-4.103,433.48-0.178,254.941C12.366-84.259,499.321-84.259,511.822,254.941z M149.156,233.608h64  c11.782,0,21.333-9.551,21.333-21.333c0-11.782-9.551-21.333-21.333-21.333h-64c-11.782,0-21.333,9.551-21.333,21.333  C127.822,224.056,137.373,233.608,149.156,233.608z M383.822,212.274c0-23.564-19.103-42.667-42.667-42.667  c-23.564,0-42.667,19.103-42.667,42.667c0,21.333,19.093,21.333,42.667,21.333C364.729,233.608,383.822,233.608,383.822,212.274z   M487.588,370.013c-21.115-6.574-43.562,5.215-50.135,26.33c-0.103,0.331-0.202,0.664-0.297,0.998  c18.347-53.333-51.2-81.813-71.872-27.499c-11.456,32.32,15.68,85.653,29.867,110.208c4.404,7.845,13.777,11.433,22.293,8.533  c26.155-9.109,80.107-31.445,91.563-63.744C517.704,403.777,508.26,379.601,487.588,370.013L487.588,370.013z M319.822,308.274  c0-29.455-23.878-53.333-53.333-53.333h-36.928c-11.782,0-21.333,9.551-21.333,21.333s9.551,21.333,21.333,21.333h36.928  c5.891,0,10.667,4.776,10.667,10.667s-4.776,10.667-10.667,10.667h-10.667c-11.782,0-21.333,9.551-21.333,21.333  s9.551,21.333,21.333,21.333h10.667c5.891,0,10.667,4.776,10.667,10.667s-4.776,10.667-10.667,10.667h-36.928  c-11.782,0-21.333,9.551-21.333,21.333s9.551,21.333,21.333,21.333h36.928c29.536-0.316,53.223-24.516,52.907-54.052  c-0.121-11.275-3.802-22.223-10.518-31.281C315.942,331.099,319.788,319.853,319.822,308.274z"/>
</svg>
