<?xml version="1.0" encoding="UTF-8"?>
<svg xmlns="http://www.w3.org/2000/svg" id="Layer_1" data-name="Layer 1" viewBox="0 0 24 24" width="512" height="512"><path d="M11.022,9.01c-.295-3.7-2.084-4.643-2-6.5.312-3.871,6.366-2.912,4.725.9C13.061,4.711,12.153,6.451,11.022,9.01Zm9.614,1.281c-1.747.917-3.739,1.909-5.615,2.719,3.7.3,4.631,2.083,6.487,2C25.351,14.705,24.453,8.674,20.636,10.291Zm3.381-6.409A3.9,3.9,0,0,0,17.41,1.145c-.488.488-3.981,6.721-5.984,10.328C8.42,8.707,4.447,7.92,1.465,10.949c-2,1.916-1.291,6.491-1.448,9.035a4.018,4.018,0,0,0,4,4.016c2.539-.156,7.145.567,9.061-1.428,2.758-2.762,2.539-6.524-.515-9.958,3.584-1.981,9.761-5.432,10.322-6A3.846,3.846,0,0,0,24.017,3.882Z"/></svg>
