<?xml version="1.0" encoding="UTF-8"?>
<svg xmlns="http://www.w3.org/2000/svg" id="Layer_1" data-name="Layer 1" viewBox="0 0 24 24" width="512" height="512"><path d="M21.9,2.551C21.329,4.289,19.729,7,15.309,7c-.841-.021-2.274.255-2.309-1A3.851,3.851,0,0,0,9,2,1,1,0,0,1,9,0a5.5,5.5,0,0,1,5.2,2.9A5.878,5.878,0,0,1,19.285,0C20.857-.132,22.44.783,21.9,2.551Zm.039,3.8C20.109,8.483,16.766,9.235,13.7,8.98A7.09,7.09,0,0,1,14,11a17.161,17.161,0,0,1-2.168,7.555,1,1,0,0,1-1.665-1.109A15.5,15.5,0,0,0,12,11c0-.818-.495-6-5.495-6A6.41,6.41,0,0,0,0,11.5C0,19.588,7.927,24,12,24s12-4.412,12-12.5A7.476,7.476,0,0,0,21.94,6.347Z"/></svg>
