<?xml version="1.0" encoding="UTF-8"?>
<svg xmlns="http://www.w3.org/2000/svg" id="Layer_1" data-name="Layer 1" viewBox="0 0 24 24" width="512" height="512"><path d="M0,8v-1C0,4.243,2.243,2,5,2h1V1c0-.552,.447-1,1-1s1,.448,1,1v1h8V1c0-.552,.447-1,1-1s1,.448,1,1v1h1c2.757,0,5,2.243,5,5v1H0Zm24,2v9c0,2.757-2.243,5-5,5H5c-2.757,0-5-2.243-5-5V10H24Zm-6.168,3.152c-.384-.397-1.016-.409-1.414-.026l-4.754,4.582c-.376,.376-1.007,.404-1.439-.026l-2.278-2.117c-.403-.375-1.035-.354-1.413,.052-.376,.404-.353,1.037,.052,1.413l2.252,2.092c.566,.567,1.32,.879,2.121,.879s1.556-.312,2.108-.866l4.74-4.568c.397-.383,.409-1.017,.025-1.414Z"/></svg>
