<?xml version="1.0" encoding="UTF-8"?>
<svg xmlns="http://www.w3.org/2000/svg" id="Layer_1" data-name="Layer 1" viewBox="0 0 24 24" width="512" height="512"><path d="M22.824,17.179l-1.611-1.611-2.322,2.322c-.195,.195-.451,.293-.707,.293s-.512-.098-.707-.293c-.391-.391-.391-1.023,0-1.414l2.322-2.322-1.414-1.414-2.323,2.323c-.195,.195-.451,.293-.707,.293s-.512-.098-.707-.293c-.391-.391-.391-1.023,0-1.414l2.323-2.323-1.414-1.414-2.323,2.323c-.195,.195-.451,.293-.707,.293s-.512-.098-.707-.293c-.391-.391-.391-1.023,0-1.414l2.323-2.323-1.415-1.414-2.322,2.322c-.195,.195-.451,.293-.707,.293s-.512-.098-.707-.293c-.391-.391-.391-1.023,0-1.414l2.322-2.322-1.466-1.466-2.323,2.323c-.195,.195-.451,.293-.707,.293s-.512-.098-.707-.293c-.391-.391-.391-1.023,0-1.414l2.323-2.323-1.611-1.611C5.656,.012,3.986-.322,2.467,.311,.945,.94,0,2.354,0,4.002v14.991c0,2.761,2.246,5.007,5.007,5.007h14.991c1.646,0,3.061-.945,3.691-2.467s.298-3.189-.866-4.354Zm-10.4,.204c-.155,.374-.52,.617-.924,.617H7c-.552,0-1-.447-1-1v-4.5c0-.404,.244-.77,.617-.924,.374-.157,.804-.07,1.09,.217l4.5,4.5c.286,.286,.372,.716,.217,1.09Z"/></svg>
