<?xml version="1.0" encoding="UTF-8"?>
<svg xmlns="http://www.w3.org/2000/svg" id="Layer_1" data-name="Layer 1" viewBox="0 0 24 24" width="512" height="512"><path d="M22,20c-.134,5.276-7.867,5.275-8,0C14.134,14.724,21.867,14.725,22,20ZM12,18a1,1,0,0,1-1,1h-.1a4.961,4.961,0,0,1-.732,1.753l.076.076a1,1,0,0,1-1.414,1.414l-.076-.076A4.961,4.961,0,0,1,7,22.9V23a1,1,0,0,1-2,0v-.1a4.961,4.961,0,0,1-1.753-.732l-.076.076a1,1,0,0,1-1.414-1.414l.076-.076A4.961,4.961,0,0,1,1.1,19H1a1,1,0,0,1,0-2h.1a4.961,4.961,0,0,1,.732-1.753l-.076-.076a1,1,0,0,1,1.414-1.414l.076.076A4.961,4.961,0,0,1,5,13.1V13a1,1,0,0,1,2,0v.1a4.961,4.961,0,0,1,1.753.732l.076-.076a1,1,0,0,1,1.414,1.414l-.076.076A4.961,4.961,0,0,1,10.9,17H11A1,1,0,0,1,12,18ZM7,18a1,1,0,0,0-2,0A1,1,0,0,0,7,18ZM12.023,2.35A4.971,4.971,0,0,0,7.783,0H6A3,3,0,0,0,3,3V6H14.3ZM20,8V6a1,1,0,0,0-2,0V8H3a3,3,0,0,0-3,3v1.721C3.978,7.96,12.165,9.85,13.693,15.828a6.057,6.057,0,0,1,8.514-.1L23.2,14.4A4.025,4.025,0,0,0,20,8Z"/></svg>
