<?xml version="1.0" encoding="UTF-8"?>
<svg xmlns="http://www.w3.org/2000/svg" id="Layer_1" data-name="Layer 1" viewBox="0 0 24 24" width="512" height="512"><path d="M24,4.5c0,.553-.447,1-1,1s-1-.447-1-1c0-1.212-.977-2.5-2.785-2.5-.553,0-1-.447-1-1s.447-1,1-1c2.684,0,4.785,1.977,4.785,4.5ZM2,4.5c0-1.212,.977-2.5,2.785-2.5,.553,0,1-.447,1-1s-.447-1-1-1C2.102,0,0,1.977,0,4.5c0,.553,.447,1,1,1s1-.447,1-1ZM23,13c0,2.738-1.006,5.246-2.667,7.173,.846,.449,1.667,1.317,1.667,2.827,0,.553-.447,1-1,1s-1-.447-1-1c0-1-.858-1.194-1.122-1.23-.065-.009-.128-.024-.188-.044-1.855,1.426-4.175,2.275-6.69,2.275s-4.833-.848-6.687-2.273c-.065,.021-.132,.036-.202,.044-.252,.034-1.11,.229-1.11,1.229,0,.553-.447,1-1,1s-1-.447-1-1c0-1.51,.821-2.378,1.667-2.827-1.661-1.927-2.667-4.435-2.667-7.173C1,7.272,5.401,2.553,11,2.046V1c0-.553,.447-1,1-1s1,.447,1,1v1.046c5.599,.507,10,5.226,10,10.954Zm-9.5,5.5c0-.828-.672-1.5-1.5-1.5s-1.5,.672-1.5,1.5,.672,1.5,1.5,1.5,1.5-.672,1.5-1.5Zm-.5-11.5c0-.553-.447-1-1-1s-1,.447-1,1v7c0,.553,.447,1,1,1s1-.447,1-1V7Z"/></svg>
