<?xml version="1.0" encoding="UTF-8"?>
<svg xmlns="http://www.w3.org/2000/svg" id="Layer_1" data-name="Layer 1" viewBox="0 0 24 24" width="512" height="512"><path d="M22.373,2.324A4.336,4.336,0,0,0,15.5,1.273L1.273,15.5A4.347,4.347,0,0,0,.059,19.242c.718,3.917,5.816,4.606,9.038,4.765C19.975,24.163,27.521,12.05,22.373,2.324ZM8.618,18.614a1.307,1.307,0,0,1-1.849,0,5.369,5.369,0,0,1-.751-1.966.526.526,0,0,1,.634-.635,5.386,5.386,0,0,1,1.966.752A1.307,1.307,0,0,1,8.618,18.614Zm5-1a1.307,1.307,0,0,1-1.849,0,5.378,5.378,0,0,1-.752-1.966.526.526,0,0,1,.635-.634,5.394,5.394,0,0,1,1.966.751A1.307,1.307,0,0,1,13.616,17.614Zm3-3a1.31,1.31,0,0,1-1.85,0,5.412,5.412,0,0,1-.751-1.966.526.526,0,0,1,.635-.635,5.412,5.412,0,0,1,1.966.751A1.31,1.31,0,0,1,16.615,14.616Zm2-5a1.309,1.309,0,0,1-1.849,0,5.393,5.393,0,0,1-.752-1.966.526.526,0,0,1,.635-.635,5.412,5.412,0,0,1,1.966.751A1.308,1.308,0,0,1,18.614,9.618Z"/></svg>
